<?xml version="1.0" encoding="UTF-8"?>
<!-- Generator: Adobe Illustrator 26.1.0, SVG Export Plug-In . SVG Version: 6.00 Build 0)  -->
<svg xmlns="http://www.w3.org/2000/svg" xmlns:xlink="http://www.w3.org/1999/xlink" version="1.1" id="Layer_1" x="0px" y="0px" width="636px" height="636px" viewBox="0 0 636 636" xml:space="preserve">
<path id="_x23_191919" fill="#191919" d="M318,0C142.374,0,0,142.373,0,318s142.374,318,318,318s318-142.373,318-318  S493.627,0,318,0z M318,614.973C153.987,614.973,21.027,482.013,21.027,318S153.987,21.027,318,21.027  c164.013,0,296.973,132.959,296.973,296.973S482.013,614.973,318,614.973z"></path>
<path id="_x23_F2F2F3" fill="#F2F2F3" d="M318,21.027C153.987,21.027,21.027,153.987,21.027,318S153.987,614.973,318,614.973  c164.013,0,296.973-132.959,296.973-296.972S482.013,21.027,318,21.027z M455.261,496.69l-270.767-2.732l-11.951-381.395h99.361  l-9.219,298.082l192.576-12.292V496.69z"></path>
<polygon id="_x23_199647" fill="#199647" points="271.905,112.563 172.544,112.563 184.495,493.958 455.261,496.69 455.261,398.354   262.686,410.646 "></polygon>
<g>
</g>
<g>
</g>
<g>
</g>
<g>
</g>
<g>
</g>
</svg>
