<?xml version="1.0" encoding="UTF-8"?>
<!-- Generator: Adobe Illustrator 26.1.0, SVG Export Plug-In . SVG Version: 6.00 Build 0)  -->
<svg xmlns="http://www.w3.org/2000/svg" xmlns:xlink="http://www.w3.org/1999/xlink" version="1.1" id="Layer_1" x="0px" y="0px" width="420.066px" height="643.464px" viewBox="0 0 420.066 643.464" xml:space="preserve">
<path id="_x23_000000" d="M414.027,287.751c-0.582-0.649-0.926-1.474-0.994-2.386c-0.405-5.433-4.024-23.256-33.576-24.519  c-16.911-0.726-28.886,3.161-36.776,7.394c-1.48-0.843-9.278-4.848-18.553-1.551c-1.928,0.685-3.771,1.647-5.538,2.855  c-43.371-7.714-80.075-3.558-86.462-2.726c-3.683-3.932-8.993-5.039-12.704-5.29c0.129-0.271,0.255-0.545,0.361-0.83  c1.164-3.145,2.371-6.097,3.601-8.884c4.745,2.952,8.486,4.405,11.409,4.405c1.353,0,2.532-0.311,3.554-0.927  c1.935-1.166,2.715-3.107,2.992-4.871c4.303,1.539,7.646,1.33,9.955-0.633c3.321-2.819,3.758-8.814,1.263-17.337  c-2.158-7.374-2.453-13.445-2.4-16.778c8.251,2.378,35.545,7.527,48.308-23.271c2.632-6.352,3.72-11.603,3.813-15.934  c4.774-3.004,21.549-15.238,19.147-37.536c-2.415-22.425-20.087-27.667-25.789-28.78c-1.161-12.812-4.305-30.258-10.222-47.493  c-7.781-22.668-22.539-51.367-48.661-59.359c-17.123-5.238-31.602-4.235-43.036,2.98c-14.982,9.455-20.173,26.651-21.658,33.202  c-4.554-1.442-8.987-2.362-13.194-2.628c-9.259-0.589-16.713,1.975-22.169,7.612c-2.397,2.477-4.317,5.126-5.762,7.933  c-2.935-1.929-6.966-4.111-9.381-5.265c-14.103-6.737-31.721-6.309-48.159,1.598c-22.847,10.991-37.04,33.429-37.04,58.557  c0,15.956,4.724,28.594,14.041,37.56c5.275,5.077,11.35,8.339,17.104,10.436c0.345,8.967,3.561,15.414,9.58,19.17  c1.972,1.23,4.163,2.091,6.483,2.675l40.476,94.212l4.48,10.429c-4.836,4.361-9.517,9.508-13.701,15.464  c-5.857,0.515-11.323,6.249-14.12,14.964c-2.021,6.297-2.028,12.577-0.083,16.992c-0.567,4.267-0.002,7.388,1.167,9.683  c-9.308,26.045-5.458,44.247-0.751,54.777c-5.059-0.299-13.254-0.218-17.134,2.926c-0.509,0.412-0.938,0.873-1.29,1.37  c-1.653-0.867-3.342-1.661-5.074-2.358c-13.632-5.481-28.723-5.167-43.64,0.911C3.997,408.682,4.112,436.952,4.346,441.637  c-8.139,17.789-4.837,35.867,9.819,53.74c11.294,13.773,32.088,26.98,35.259,28.954c11.859,15.997,26.513,23.916,46.078,24.911  c0.432,0.022,0.859,0.033,1.282,0.033c15.629-0.001,25.575-14.614,27.853-18.335c15.525-4.74,19.239-21.74,20.003-26.727  c7.702-3.615,10.641-12.353,11.742-19.189c9.658,14.08,37.071,52.865,58.729,72.062c0.266,0.236,0.404,0.577,0.378,0.935  c-0.248,3.383,0.022,9.835,4.629,15.036c1.48,1.671,3.277,3.053,5.373,4.15c-0.262,7.126-0.339,36.83,15.337,54.047  c7.101,7.8,16.445,11.902,27.77,12.192c0.488,0.012,0.969,0.018,1.449,0.018c7.716,0,14.4-1.633,20.014-4.849  c6.913-1.556,31.14-8.862,33.723-35.217c2.474-25.229-5.921-45.242-8.553-50.775c-0.189-0.398-0.139-0.852,0.133-1.184  c2.344-2.873,6.104-9.293,4.939-20.005c-2.701-24.854-18.238-27.686-23.301-27.942c-0.198-0.238-0.389-0.483-0.597-0.714  c-5.017-5.574-12.055-8.144-20.92-7.662c-3.257-2.417-7.305-3.36-12.086-2.796c-0.21,0.025-0.413-0.058-0.52-0.219l-29.804-44.295  c2.112-2.044,4.115-4.26,5.988-6.66c11.699-14.989,15.782-35.086,11.805-58.118c-2.517-14.58-7.423-25.874-9.054-29.364  c-0.144-0.309-0.172-0.648-0.088-0.979c2.326-9.167,1.666-20.524,1.327-24.546c9.904-2.082,27.165-3.459,55.469,0.362  c0.692,1.983,1.616,3.769,2.794,5.335c4.38,5.82,10.781,6.923,13.66,7.115c1.833,6.539,4.966,12.319,8.406,16.678  c6.158,7.805,13.984,12.259,21.173,12.259c1.231,0,2.445-0.131,3.627-0.398c5.502-1.243,9.349-3.35,12.044-5.75  c3.562,3.13,9.005,5.265,14.806,5.708c0.764,0.058,1.525,0.087,2.283,0.087c7.097,0,13.842-2.541,19.2-7.276  c3.988-3.524,5.892-7.747,6.604-11.96c6.394-4.237,10.355-9.821,11.762-16.619c0.777-3.752,0.71-7.536,0.164-11.117  C425.29,308.775,417.197,291.286,414.027,287.751z"></path>
<path id="_x23_000000_00000031891169274726493940000007185465401911757499_" d="M188.634,311.443  c-4.416-0.583-8.804,0.933-12.375,4.262c-3.476,3.241-5.76,7.836-6.432,12.938c-0.674,5.103,0.342,10.133,2.858,14.163  c2.586,4.142,6.438,6.742,10.847,7.324c0.609,0.08,1.215,0.119,1.818,0.119c8.26,0,15.679-7.379,16.99-17.32v0  C203.747,322.264,197.597,312.625,188.634,311.443z M198.765,332.458c-1.147,8.694-7.766,15.021-14.76,14.096  c-3.321-0.438-6.254-2.447-8.259-5.658c-2.074-3.322-2.906-7.506-2.342-11.781c0.564-4.275,2.452-8.101,5.316-10.772  c2.391-2.229,5.218-3.413,8.082-3.413c0.453,0,0.907,0.03,1.361,0.089C195.155,315.941,199.911,323.764,198.765,332.458z   M193.297,322.792c4.465,6.525,1.827,17.003-6.377,18.84C192.582,336.133,193.529,330.426,193.297,322.792z M110.979,324.821  c4.01-4.866,6.646-10.243,8.116-16.377C120.913,314.816,117.189,322.446,110.979,324.821z M373.522,273.487  c0.784,2.493-1.062,5.048-3.672,5.197l-9.812,0.561c-0.554,0.032-0.899-0.589-0.579-1.043c1.785-2.536,5.469-5.187,7.999-6.829  c2.186-1.419,5.209-0.481,6.026,1.994C373.496,273.406,373.509,273.446,373.522,273.487z M372.166,292.385  c0.033,0.608-0.036,1.247-0.261,1.891c-0.858,2.454-3.771,3.491-6.107,2.349c-2.922-1.429-7.453-3.934-9.705-6.669  c-0.221-0.269-0.048-0.676,0.299-0.704l10.988-0.886C369.788,288.172,372.036,289.973,372.166,292.385z M361.491,315.135  c-0.019,0.015-0.038,0.029-0.057,0.043c-1.78,1.321-4.485,1.014-5.655-0.868c-3.104-4.993-3.697-9.001-4.982-12.633  c-0.085-0.239,0.205-0.43,0.394-0.261c2.11,1.889,6.886,4.275,9.966,7.015C363.273,310.313,363.752,313.428,361.491,315.135z   M91.849,513.368c-6.061,1.039-12.011,1.399-18.074,1.879c-6.07,0.402-12.008,0.897-18.157,0.73  c5.627-2.648,11.749-3.845,17.898-4.327C79.671,511.253,85.9,511.562,91.849,513.368z M282.684,175.503  c-2.699,0.062-11.897,0.752-15.669,7.147c0,0,8.347-1.166,10.866,4.629c0.057,0.13-0.075,0.269-0.206,0.215  c-1.768-0.726-9.671-3.558-12.857,2.33c-2.607,4.818-0.757,9.532,0.173,11.357c0.08,0.158-0.118,0.311-0.247,0.19  c-2.303-2.139-9.231-9.821-3.524-20.46c5.986-11.16,18.438-6.967,21.52-5.714C282.899,175.262,282.857,175.499,282.684,175.503z   M213.293,113.893c-4.512-1.204-9.453,0.411-13.916,4.545c-4.35,4.031-7.749,10.008-9.569,16.831  c-1.821,6.823-1.852,13.698-0.087,19.361c1.81,5.809,5.291,9.67,9.802,10.874c0.961,0.256,1.935,0.38,2.917,0.38  c2.369,0,4.773-0.723,7.078-2.048c3.834-2.203,7.397-6.071,10.082-11.052c0.948-1.733,1.775-3.617,2.477-5.607  c0.348-0.985,0.674-1.988,0.952-3.027c0.706-2.646,1.121-5.268,1.271-7.796C225.024,125.255,220.751,115.883,213.293,113.893z   M217.604,143.97c-0.706,2.647-2.489,4.469-3.981,4.071c-1.493-0.398-2.13-2.867-1.424-5.513c0.706-2.647,2.489-4.469,3.981-4.071  C217.672,138.855,218.31,141.323,217.604,143.97z M220.775,144.587c0.699-5.903-1.076-10.886-4.536-11.809  c-4.095-1.093-8.985,3.908-10.922,11.169c-1.937,7.261-0.188,14.033,3.907,15.125c1.375,0.367,2.839,0.034,4.251-0.829  c-1.416,1.481-2.922,2.706-4.476,3.595c-1.13,0.31-2.258,0.349-3.344,0.06c-2.563-0.684-4.54-3.098-5.564-6.797  c-1.07-3.869-0.96-8.622,0.311-13.385c1.271-4.763,3.544-8.94,6.399-11.761c2.204-2.177,4.529-3.32,6.692-3.32  c0.516,0,1.024,0.065,1.518,0.197c4.09,1.091,6.437,6.42,6.29,13.075C221.256,141.412,221.076,142.984,220.775,144.587z   M222.255,132.776c-1.187-4.262-3.602-7.365-6.95-8.258c-3.281-0.875-6.896,0.428-10.176,3.67  c-3.157,3.119-5.659,7.699-7.045,12.895c-1.387,5.196-1.499,10.413-0.316,14.69c1.063,3.84,3.064,6.542,5.703,7.773  c-0.976,0.045-1.946-0.036-2.897-0.29c-7.973-2.127-11.656-14.369-8.209-27.289c3.101-11.62,10.928-19.891,18.272-19.891  c0.822,0,1.638,0.104,2.44,0.318c5.635,1.503,9.117,8.064,9.462,16.342C222.546,132.909,222.301,132.942,222.255,132.776z   M414.027,287.751c-0.582-0.649-0.926-1.474-0.994-2.386c-0.405-5.433-4.024-23.256-33.576-24.519  c-16.911-0.726-28.886,3.161-36.776,7.394c-1.48-0.843-9.278-4.848-18.553-1.551c-1.928,0.685-3.771,1.647-5.538,2.855  c-43.371-7.714-80.075-3.558-86.462-2.726c-3.683-3.932-8.993-5.039-12.704-5.29c0.129-0.271,0.255-0.545,0.361-0.83  c1.164-3.145,2.371-6.097,3.601-8.884c4.745,2.952,8.486,4.405,11.409,4.405c1.353,0,2.532-0.311,3.554-0.927  c1.935-1.166,2.715-3.107,2.992-4.871c4.303,1.539,7.646,1.33,9.955-0.633c3.321-2.819,3.758-8.814,1.263-17.337  c-2.158-7.374-2.453-13.445-2.4-16.778c8.251,2.378,35.545,7.527,48.308-23.271c2.632-6.352,3.72-11.603,3.813-15.934  c4.774-3.004,21.549-15.238,19.147-37.536c-2.415-22.425-20.087-27.667-25.789-28.78c-1.161-12.812-4.305-30.258-10.222-47.493  c-7.781-22.668-22.539-51.367-48.661-59.359c-17.123-5.238-31.602-4.235-43.036,2.98c-14.982,9.455-20.173,26.651-21.658,33.202  c-4.554-1.442-8.987-2.362-13.194-2.628c-9.259-0.589-16.713,1.975-22.169,7.612c-2.397,2.477-4.317,5.126-5.762,7.933  c-2.935-1.929-6.966-4.111-9.381-5.265c-14.103-6.737-31.721-6.309-48.159,1.598c-22.847,10.991-37.04,33.429-37.04,58.557  c0,15.956,4.724,28.594,14.041,37.56c5.275,5.077,11.35,8.339,17.104,10.436c0.345,8.967,3.561,15.414,9.58,19.17  c1.972,1.23,4.163,2.091,6.483,2.675l40.476,94.212l4.48,10.429c-4.836,4.361-9.517,9.508-13.701,15.464  c-5.857,0.515-11.323,6.249-14.12,14.964c-2.021,6.297-2.028,12.577-0.083,16.992c-0.567,4.267-0.002,7.388,1.167,9.683  c-9.308,26.045-5.458,44.247-0.751,54.777c-5.059-0.299-13.254-0.218-17.134,2.926c-0.509,0.412-0.938,0.873-1.29,1.37  c-1.653-0.867-3.342-1.661-5.074-2.358c-13.632-5.481-28.723-5.167-43.64,0.911C3.997,408.682,4.112,436.952,4.346,441.637  c-8.139,17.789-4.837,35.867,9.819,53.74c11.294,13.773,32.088,26.98,35.259,28.954c11.859,15.997,26.513,23.916,46.078,24.911  c0.432,0.022,0.859,0.033,1.282,0.033c15.629-0.001,25.575-14.614,27.853-18.335c15.525-4.74,19.239-21.74,20.003-26.727  c7.702-3.615,10.641-12.353,11.742-19.189c9.658,14.08,37.071,52.865,58.729,72.062c0.266,0.236,0.404,0.577,0.378,0.935  c-0.248,3.383,0.022,9.835,4.629,15.036c1.48,1.671,3.277,3.053,5.373,4.15c-0.262,7.126-0.339,36.83,15.337,54.047  c7.101,7.8,16.445,11.902,27.77,12.192c0.488,0.012,0.969,0.018,1.449,0.018c7.716,0,14.4-1.633,20.014-4.849  c6.913-1.556,31.14-8.862,33.723-35.217c2.474-25.229-5.921-45.242-8.553-50.775c-0.189-0.398-0.139-0.852,0.133-1.184  c2.344-2.873,6.104-9.293,4.939-20.005c-2.701-24.854-18.238-27.686-23.301-27.942c-0.198-0.238-0.389-0.483-0.597-0.714  c-5.017-5.574-12.055-8.144-20.92-7.662c-3.257-2.417-7.305-3.36-12.086-2.796c-0.21,0.025-0.413-0.058-0.52-0.219l-29.804-44.295  c2.112-2.044,4.115-4.26,5.988-6.66c11.699-14.989,15.782-35.086,11.805-58.118c-2.517-14.58-7.423-25.874-9.054-29.364  c-0.144-0.309-0.172-0.648-0.088-0.979c2.326-9.167,1.666-20.524,1.327-24.546c9.904-2.082,27.165-3.459,55.469,0.362  c0.692,1.983,1.616,3.769,2.794,5.335c4.38,5.82,10.781,6.923,13.66,7.115c1.833,6.539,4.966,12.319,8.406,16.678  c6.158,7.805,13.984,12.259,21.173,12.259c1.231,0,2.445-0.131,3.627-0.398c5.502-1.243,9.349-3.35,12.044-5.75  c3.562,3.13,9.005,5.265,14.806,5.708c0.764,0.058,1.525,0.087,2.283,0.087c7.097,0,13.842-2.541,19.2-7.276  c3.988-3.524,5.892-7.747,6.604-11.96c6.394-4.237,10.355-9.821,11.762-16.619c0.777-3.752,0.71-7.536,0.164-11.117  C425.29,308.775,417.197,291.286,414.027,287.751z M228.835,268.634c-3.774,3.604-13.83,14.549-16.878,31.374  c-0.602,3.324-1.087,7.265-1.599,11.437c-0.375,3.055-0.765,6.216-1.219,9.383c-0.202,1.412-0.418,2.824-0.651,4.23  c-2.797,16.846-8.153,32.671-24.192,32.668c-1.036,0-2.119-0.066-3.245-0.202c-5.055-0.611-9.16-3.45-11.875-8.213  c-4.975-8.729-4.28-22.272,1.861-36.227c1.096-2.491,2.421-4.985,3.905-7.457c0.636-1.061,1.297-2.118,1.991-3.168  c10.373-15.694,26.699-29.927,35.153-35.324c1.485-0.948,2.732-1.629,3.656-1.992c0.17-0.015,0.45-0.036,0.81-0.051  C218.909,264.993,224.906,265.127,228.835,268.634z M173.372,301.368c-13.442-3.856-25.002-4.317-30.35-4.279  c3.858-7.317,8.609-14.712,14.395-20.985c0.822-0.891,1.723-1.708,2.677-2.573c1.039-0.943,2.114-1.918,3.096-3.012  c1.174-1.307,3.2-4.324,4.701-6.636c1.086,1.651,2.469,3.07,4.187,4.216c3.991,2.665,9.239,3.651,14.819,3.651  c5.198,0,10.681-0.857,15.708-2.008C193.368,277.213,181.475,288.895,173.372,301.368z M248.38,246.35  c-1.249,1.06-4.107,0.638-7.843-1.156c-0.83-0.399-1.813-0.319-2.564,0.213c-0.748,0.527-1.151,1.418-1.053,2.327  c0.147,1.367,0.001,3.155-0.897,3.696c-0.431,0.26-2.892,1.224-10.736-3.747c7.602-15.859,15.752-25.337,20.371-29.906  c0.101,3.823,0.659,9.389,2.576,15.94C250.438,241.251,249.755,245.183,248.38,246.35z M294.303,190.676  c-11.791,28.455-36.754,22.721-44.125,20.285c-1.679-0.555-3.481-0.2-4.821,0.948c-4.238,3.639-18.914,17.798-29.801,47.224  c-0.564,1.526-1.769,2.695-3.306,3.207c-6.364,2.122-27.89,8.541-37.669,2.01c-2.01-1.342-3.386-3.167-4.184-5.502  c6.691,1.066,11.037-0.919,12.685-1.891c0.244-0.144,0.153-0.515-0.13-0.531c-2.325-0.132-8.803-0.687-13.628-2.921  c-2.147-0.994-4.467-2.313-6.81-4.059c-11.411-8.509-18.379-23.495-20.233-43.379c8.497-0.059,12.201-7.891,13.275-10.774  c0.159-0.426,0.716-0.512,0.992-0.151c1.743,2.282,7.101,8.316,16.611,11.252c-4.611,1.376-12.008,2.626-21.986,1.295  c-0.366-0.049-0.699,0.162-0.809,0.515c-0.109,0.349,0.042,0.71,0.369,0.878c0.842,0.43,2.203,1.049,3.968,1.59  c0.786,3.967,4.726,21.429,14.202,27.88c2.361,1.608,4.913,2.423,7.585,2.423c0.934,0,1.896-0.101,2.858-0.299  c14.15-2.924,15.763-23.768,15.696-33.903c24.236-5.938,18.725-29.574,16.822-35.769c-0.228-0.741-1.094-1.084-1.751-0.672  c-14.414,9.034-31.018,5.75-31.018,5.75c0.854-2.197,0.629-5.088,0.348-6.92c-0.121-0.788-1.061-1.115-1.658-0.586  c-20.767,18.386-38.389,12.096-47.118,6.641c-1.638-1.023-3.527-2.368-5.122-3.905c-2.067-1.993-3.706-4.194-4.347-5.24  c-1.615-2.631-3.021-5.815-3.819-9.407c-1.501-6.759-0.269-12.938,3.661-18.365c4.362-6.023,11.208-9.18,19.237-8.924  c5.346,0.178,10.726,1.8,15.734,4.603c0.776,0.434,1.54,0.902,2.297,1.392c1.44,0.933,2.84,1.968,4.194,3.093  c1.499,1.245,2.933,2.61,4.299,4.073c2.102,2.252,4.04,4.737,5.742,7.451c0,0-0.275-3.525-3.399-8.187  c2.838-1.235,5.622-3.628,7.893-6.86c0.808-1.135,1.544-2.386,2.201-3.721c0.326-0.661,0.638-1.336,0.918-2.041  c0.715-1.795,1.223-3.596,1.539-5.354c1.431-7.713-0.782-14.633-5.839-16.647c-3.06-1.219-6.655-0.499-10.125,2.025  c-3.382,2.461-6.26,6.365-8.102,10.992c-1.319,3.31-1.985,6.711-1.985,9.887c-1.323-0.731-2.736-1.449-4.274-2.143  c1.857-6.505,8.738-27.842,21.132-36.099c2.241-1.493,5.266-1.363,7.279,0.425c2.527,2.246,3.746,5.399,4.287,7.34  c0.134,0.481,0.826,0.479,0.965,0c1.122-3.875,1.163-7.611,0.488-10.858c9.129,1.16,16.747,3.558,23.484,7.069  c-2.558,2.612-4.729,5.896-6.167,9.766c-0.1,0.27,0.199,0.522,0.446,0.373c2.142-1.291,8.586-4.767,15.019-4.24  c2.015,0.165,4.029,0.718,5.909,1.86c3.811,2.313,5.699,6.043,6.606,9.625c0.924,3.649,0.831,7.145,0.702,8.834  c-0.023,0.308,0.374,0.457,0.554,0.206c0.582-0.809,1.465-2.196,2.312-4.089c0.433-0.046,0.384-0.041,0.817-0.087  c8.088,10.19,20.376,9.429,24.938,8.725c0.33,0.613,0.653,1.22,0.967,1.818c-3.937,19.258-14.838,25.703-22.839,30.426  c-4.627,2.73-8.622,5.088-9.484,9.23c-0.653,3.133,0.564,6.609,3.942,11.27c2.587,3.569,5.576,5.481,8.884,5.684  c6.985,0.434,13.563-6.66,20.547-14.163c1.92-2.062,3.905-4.194,5.86-6.116c5.628-5.532,16.852-6.457,23.548-1.941  C298.726,167.824,299.699,177.655,294.303,190.676z M190.985,212.002c-4.452,2.989-16.295,9.505-30.121,5.489  c-1.269-0.368-2.276-1.405-2.628-2.706c-0.373-1.379-0.657-2.57-0.851-3.438c5.063,1.006,12.781,1.063,22.193-3.593  c3.379,0.408,7.135,0.417,11.302-0.178c0.569-0.081,1.112-0.178,1.653-0.277c-0.002,0.608-0.009,1.247-0.026,1.92  C192.48,210.34,191.91,211.38,190.985,212.002z M192.239,214.137c-0.858,10.078-3.904,22.148-13.396,24.109  c-3.044,0.628-5.92,0.042-8.543-1.743c-0.904-0.616-1.81-1.401-2.691-2.334c-0.873-6.407,3.441-11.756,4.549-13.009  C181.479,220.525,188.951,216.312,192.239,214.137z M176.347,120.647c-2.777-1.106-6.618,1.989-8.579,6.914  c-1.961,4.924-1.3,9.813,1.477,10.919c0.933,0.371,1.985,0.26,3.047-0.227c-1.115,0.92-2.272,1.652-3.434,2.145  c-0.228,0.034-0.453,0.05-0.677,0.054c-1.254-1.653-2.862-3.409-4.935-5.181c-0.021-0.113-0.048-0.218-0.066-0.334  c-0.427-2.799,0.045-6.119,1.332-9.349c1.286-3.23,3.226-5.966,5.46-7.704c1.725-1.342,3.448-1.948,4.963-1.768  c0.361,0.043,0.712,0.131,1.047,0.264c2.774,1.105,3.974,5.032,3.318,9.681c-0.157,1.051-0.413,2.137-0.758,3.234  C179.522,125.219,178.694,121.581,176.347,120.647z M176.372,128.599c-0.715,1.795-2.115,2.923-3.127,2.52  c-1.012-0.403-1.253-2.185-0.539-3.98c0.715-1.795,2.115-2.923,3.127-2.52C176.846,125.023,177.087,126.804,176.372,128.599z   M176.381,114.785c-2.225-0.886-4.866-0.274-7.432,1.724c-2.471,1.922-4.604,4.921-6.007,8.445c-1.19,2.987-1.732,6.058-1.584,8.809  c-1.15-0.869-2.418-1.733-3.815-2.584c-0.171-3.143,0.399-6.719,1.819-10.284c3.139-7.881,9.309-13.022,14.452-12.411  c0.575,0.068,1.139,0.209,1.683,0.426c3.822,1.522,5.714,6.407,5.267,12.233c-0.009,0.121-0.183,0.124-0.202,0.004  C180.084,118.063,178.652,115.689,176.381,114.785z M264.209,134.774c5.384,11.27,7.554,18.989,8.328,22.326  c-2.923,1.023-5.588,2.561-7.682,4.619c-2.025,1.992-4.045,4.161-5.998,6.259c-5.964,6.406-12.106,13.038-16.971,12.734  c-1.924-0.118-3.726-1.371-5.508-3.83c-2.5-3.449-3.54-5.97-3.179-7.705c0.456-2.191,3.504-3.99,7.362-6.266  C248.083,158.473,259.047,151.991,264.209,134.774z M196.156,10.075c10.272-6.469,23.487-7.296,39.283-2.464  c44.968,13.757,57.873,96.385,56.083,117.081c-0.028,0.325,0.346,0.525,0.6,0.322c1.385-1.106,4.071-4.344,3.865-10.217  c5.651,1.288,18.982,6.254,20.959,24.617c1.897,17.614-9.464,27.964-15.06,31.935c-1.2-6.419-4.858-10.108-7.802-12.094  c-4.764-3.214-11.189-4.245-17.164-3.276c-1.61-7.082-8.313-29.661-33.22-62.942c-4.77-6.373-11.538-13.663-19.438-20.837  c8.199-4.739,13.79-17.415,12.798-29.984c-1.008-12.788-8.244-21.319-19.854-23.405c-8.64-1.551-15.756-0.048-21.156,4.468  c-7.524,6.292-9.508,16.432-10.02,21.989c-3.243-1.63-6.476-3.067-9.668-4.28C177.57,35.543,182.297,18.802,196.156,10.075z   M203.896,50.488c0.231,0.427,0.655,0.719,1.133,0.781l15.781,2.081l-2.063,6.739c-3-0.644-6.277-1.088-8.719-1.365  c-4.115-3.066-8.267-5.905-12.359-8.449c1.941-8.808,7.579-18.869,9.104-21.488h6.573l-9.48,20.322  C203.655,49.546,203.667,50.062,203.896,50.488z M219.356,63.001l1.237,0.299l3.74-12.214l-17.337-2.286l10.598-22.716h-12.352  l-0.395,0.649c-0.319,0.522-7.712,12.732-9.924,23.467c-2.09-1.257-4.187-2.468-6.288-3.587c0.428-7.036,2.983-16.1,9.151-21.258  c4.756-3.979,11.131-5.286,18.941-3.88c14.633,2.629,17.208,15.53,17.636,20.955c0.948,12.027-4.462,24.083-12.245,27.851  c-3.334-2.942-6.856-5.838-10.492-8.635C214.039,61.956,216.873,62.402,219.356,63.001z M139.942,47.602  c4.495-4.646,10.775-6.749,18.643-6.249c27.579,1.747,65.699,33.266,81.505,54.385c7.435,9.934,13.199,18.904,17.679,26.772  c-4.452,0.372-12.83,0.014-18.552-6.668c-0.999-1.166-1.995-2.303-2.991-3.415c0.802-3.917,0.942-8.819-0.612-14.558  c-2.269-8.382-9.737-10.624-17.162-8.117c-5.321-6.5-23.813-27.896-40.848-33.286c-0.422-0.134-0.703,0.44-0.339,0.693  c6.541,4.54,27.723,20.062,33.992,34.724c-7.353-3.854-15.69-6.487-25.808-7.701c-0.523-0.063-1.039-0.101-1.551-0.127  c-1.755-3.453-4.422-5.736-7.188-6.04c-5.614-0.616-12.214,5.791-13.247,15.831c-3.609,4.024-6.598,8.849-9.011,13.612  c-5.893-5.891-21.635-23.187-22.251-40.356C131.938,59.743,134.542,53.182,139.942,47.602z M79.472,170.63  c-4.316-2.693-6.782-7.356-7.359-13.879c5.692,1.563,12.485-0.557,15.402-1.657c0.318-0.12,0.241-0.589-0.099-0.599  c-5.155-0.142-22.078-1.504-33.917-12.92c-8.382-8.083-12.632-19.618-12.632-34.286c0-27.946,17.814-46.473,34.486-54.494  c15.268-7.346,31.567-7.747,44.482-1.485c2.336,1.133,6.67,3.486,9.324,5.322c-1.107,3.356-1.599,6.909-1.464,10.642  c0.057,1.571,0.234,3.136,0.494,4.689c-1.732,0.267-3.908,0.67-6.315,1.27c-6.631-12.785-15.088-15.358-19.329-15.79  c-0.552-0.056-0.75,0.701-0.248,0.937c8.193,3.85,13.028,12.944,14.59,16.314c-4.788,1.626-9.854,4.05-13.863,7.647  c-1.553-3.622-6.172-10.915-18.519-12.417c-0.209-0.025-0.299,0.263-0.109,0.355c2.781,1.354,10.267,5.877,14.817,16.359  C96.426,90.7,95.2,95.4,95.58,100.654c0.326,4.488,2.075,8.024,4.984,10.337c-1.232,1.716-5.068,5.774-13.119,4.395  c0.727-6.77-0.751-14.393-4.135-20.077C78.78,87.7,71.765,85.353,68.293,84.406c-0.284-0.077-0.438,0.311-0.18,0.453  c8.04,4.415,20.006,20.721,12.625,36.537c-6.139,13.155-18.964,1.633-22.002-4.797c-0.111-0.236-0.462-0.133-0.425,0.126  c0.63,4.478,3.877,15.685,16.244,14.526c6.878-0.644,10.88-5.982,12.385-12.749c1.811,0.811,9.444,3.437,17.259-5.49  c0.994,0.368,2.057,0.651,3.199,0.823c0.956,0.144,1.943,0.213,2.946,0.213c8.452-0.81,12.195-4.44,13.837-7.209  c0.32-0.54-0.339-1.12-0.824-0.722c-3.393,2.783-9.948,4.981-15.419,4.152c-5.396-0.815-8.343-4.137-8.759-9.875  c-0.373-5.156,1.079-9.667,4.318-13.407c6.682-7.714,19.319-10.53,25.449-11.474c3.048,11.81,11.004,22.626,17.076,29.565  c-2.587,9.709-7.484,17.423-9.92,20.854c-7.419,0.793-13.703,4.338-17.985,10.251c-4.496,6.21-5.97,13.562-4.26,21.262  c0.807,3.634,2.31,7.127,4.131,10.176C109.68,171.219,90.204,177.328,79.472,170.63z M88.836,177.972  c1.056,0.083,2.122,0.135,3.199,0.135c10.926,0,22.611-4.015,28.547-6.703c0.739,0.941,1.497,1.808,2.258,2.579  c0.631,0.639,0.919,1.53,0.777,2.417c-1.442,8.975-1.51,22.698,11.42,28.086c0.921,0.384,1.802,0.686,2.649,0.924  c2.303,27.593,13.408,41.236,22.367,47.824c1.776,1.306,3.534,2.391,5.227,3.297c0.094,0.731,0.231,1.43,0.392,2.112  c-1.418,1.047-3.068,2.409-4.347,3.887c-0.557,0.644-1.277,1.103-2.081,1.326c-7.439,2.065-17.41,6.929-27.133,14.844  L88.836,177.972z M160.21,267.331c0.451-0.125,0.887-0.29,1.305-0.492c-0.389,0.526-0.734,0.966-1.009,1.272  c-0.859,0.956-1.818,1.827-2.836,2.749c-0.97,0.88-1.973,1.79-2.904,2.799c-15.664,16.984-23.912,41.596-27.434,52.105  c-0.639,1.908-1.145,3.415-1.509,4.337c-3.554,9.004-9.263,12.844-16.068,10.818c-2.394-0.713-5.323-2.255-5.726-7.268  c0.005,0.004,0.011,0.007,0.017,0.011c0.014,0.011,0.03,0.019,0.044,0.03c0.222,0.161,0.451,0.308,0.684,0.448  c0.076,0.045,0.153,0.087,0.229,0.129c0.186,0.103,0.375,0.2,0.568,0.29c0.079,0.037,0.158,0.075,0.238,0.11  c0.267,0.115,0.538,0.222,0.817,0.311c0.417,0.134,0.839,0.232,1.266,0.309c0.044,0.008,0.088,0.019,0.132,0.026  c0.406,0.067,0.816,0.103,1.229,0.118c0.063,0.002,0.126,0.006,0.19,0.007c0.059,0.001,0.117,0.007,0.176,0.007  c0.363,0,0.728-0.023,1.094-0.062c0.079-0.008,0.158-0.025,0.237-0.036c0.346-0.045,0.693-0.108,1.04-0.187  c0.126-0.029,0.252-0.06,0.378-0.094c0.347-0.092,0.694-0.201,1.04-0.327c0.08-0.029,0.16-0.052,0.24-0.083  c0.418-0.162,0.835-0.351,1.251-0.563c0.108-0.055,0.215-0.117,0.322-0.175c0.322-0.174,0.643-0.362,0.962-0.566  c0.119-0.076,0.238-0.151,0.357-0.231c0.412-0.278,0.822-0.572,1.227-0.899c3.398-2.746,6.128-6.935,7.687-11.793  c1.56-4.859,1.776-9.854,0.611-14.064c-0.153-0.552-0.328-1.083-0.523-1.592c-0.069-0.179-0.153-0.342-0.226-0.516  c-0.136-0.32-0.268-0.645-0.42-0.945c-0.096-0.19-0.208-0.361-0.311-0.543c-0.148-0.263-0.292-0.532-0.453-0.778  c-0.118-0.181-0.252-0.341-0.377-0.513c-0.164-0.224-0.323-0.455-0.499-0.663c-0.138-0.163-0.288-0.306-0.433-0.459  c-0.181-0.192-0.358-0.39-0.55-0.565c-0.155-0.142-0.322-0.264-0.484-0.395c-0.198-0.161-0.392-0.326-0.6-0.471  c-0.172-0.119-0.354-0.218-0.532-0.326c-0.214-0.129-0.424-0.263-0.647-0.375c-0.188-0.095-0.385-0.17-0.58-0.252  c-0.181-0.077-0.355-0.169-0.542-0.236C135.841,274.643,157.7,268.028,160.21,267.331z M104.137,313.3  c2.369-7.382,7.108-12.51,11.548-12.51c0.026,0,0.053,0,0.078,0.001c0.594,0.008,1.18,0.104,1.743,0.284  c2.372,0.761,4.178,2.982,5.083,6.252c0.98,3.541,0.778,7.802-0.569,12c-1.346,4.197-3.662,7.78-6.519,10.09  c-2.64,2.134-5.403,2.887-7.771,2.127c-1.55-0.498-2.777-1.642-3.649-3.402C102.292,324.533,102.313,318.984,104.137,313.3z   M108.431,541.25c-3.606,2.214-7.88,3.734-12.7,3.49c-18.5-0.941-31.741-8.167-42.934-23.429l-0.262-0.357l-0.379-0.232  c-0.228-0.14-23.005-14.178-34.505-28.203c-6.663-8.125-10.78-16.264-12.357-24.364c0.501-3.912,3.263-9.283,8.328-13.357  c5.116-4.117,16.621-10.008,36.185-3.202c32.093,11.163,48.57,60.39,48.733,60.886l0.127,0.387l0.28,0.294  C112.053,526.944,109.69,537.815,108.431,541.25z M112.875,537.937c0.727-5.954-0.452-15.691-11.036-26.968  c-1.728-5.099-18.236-51.439-50.845-62.782c-21.208-7.376-33.933-0.786-39.631,3.799c-2.989,2.405-5.217,5.11-6.792,7.799  c0.128-5.621,1.493-11.214,4.103-16.76l0.265-0.568l-0.001-0.012c4.637-3.794,24.084-17.019,53.949-1.107  c34.207,18.224,44.786,61.858,44.889,62.296l0.143,0.602l0.478,0.388c0.097,0.079,9.438,7.828,12.723,23.41  C120.676,528.797,117.746,533.648,112.875,537.937z M124.41,526.248c-3.306-14.335-11.206-22.174-13.266-24.015  c-1.408-5.571-12.663-46.018-46.563-64.078c-28.054-14.947-48.118-5.219-55.778-0.034c0.272-8.235,3.459-27.938,26.796-37.445  c7.657-3.12,14.983-4.501,21.846-4.501c20.009,0,36.04,11.756,44.567,26.443c10.312,17.764,16.031,34.342,20.626,47.662  c5.175,15.002,9.31,26.989,17.515,33.386C139.448,507.908,136.256,521.849,124.41,526.248z M316.719,531.824  c1.022,9.406-2.16,14.898-4.148,17.334c-1.145,1.401-1.379,3.369-0.596,5.014c2.531,5.321,10.604,24.57,8.221,48.874  c-1.698,17.315-13.435,25.55-22.327,29.34c0.838-0.906,1.644-1.857,2.404-2.873c14.793-19.764,10.98-54.927,3.221-79.033  c-0.034-0.104-0.041-0.205-0.021-0.307c0.905-4.926,4.538-28.061-3.774-42.762C305.208,508.547,314.697,513.228,316.719,531.824z   M293.055,505.794c11.293,12.55,6.561,40.426,5.984,43.565c-0.154,0.843-0.1,1.684,0.164,2.502  c8.017,24.907,10.341,57.741-2.539,74.95c-6.259,8.362-15.676,12.448-27.948,12.128c-10.045-0.258-18.303-3.862-24.544-10.711  c-13.398-14.704-14.304-40.497-14.2-49.244c2.434,0.703,5.149,1.13,8.143,1.273c0.564,0.027,1.126,0.041,1.687,0.041  c10.698,0,20.664-4.887,28.912-14.204c7.477-8.446,11.845-18.578,13.44-25.245c1.893-7.92,4.792-29.656-2.531-41.206  C285.227,500.05,289.735,502.105,293.055,505.794z M259.139,494.617c1.054,1.569,2.889,2.401,4.791,2.181  c4.552-0.537,8.007,0.612,10.583,3.509c7.292,8.2,5.868,28.576,3.257,39.493c-2.919,12.204-16.389,37.036-39.439,35.953  c-6.79-0.323-11.781-2.237-14.838-5.687c-3.509-3.962-3.704-9.041-3.508-11.716c0.13-1.772-0.557-3.463-1.885-4.639  c-24.158-21.414-56.805-69.426-61.024-75.694c0.169-1.211,0.668-2.377,1.48-3.333l7.138-8.409c4.783,0.925,9.883,1.419,15.128,1.419  c16.637,0,34.737-4.967,48.871-16.84L259.139,494.617z M236.222,438.927c-15.467,19.817-40.334,26.549-61.391,24.933  c-2.191-0.168-4.723-0.345-6.434-0.77c5.07-7.396,7.682-13.545,8.719-16.312c0.122-0.326-0.305-0.569-0.53-0.304l-21.468,25.293  c-1.611,1.898-2.543,4.293-2.627,6.745c-0.179,5.272-1.494,17.571-9.61,21.544c-7.106-5.561-10.87-16.428-15.981-31.245  c-4.659-13.505-10.456-30.313-20.989-48.456c-4.779-8.231-11.469-15.144-19.332-20.118c0.055-0.052,0.094-0.102,0.16-0.156  c2.813-2.281,11.277-2.281,16.715-1.715c1.62,2.765,4.886,3.097,6.59,3.066c0.448-0.008,0.685-0.527,0.402-0.875  c-1.033-1.267-3.068-4.045-5.015-8.327c5.311-4.895,28.428-25.011,49.604-25.011c16.266,0,25.778,8.862,31.502,16.608  c1.302,1.762,3.238,4.855,4.52,6.94c0.254,0.414,0.893,0.152,0.776-0.319c-1.058-4.262-2.739-11.86-10.404-18.547  c-6.11-5.331-14.829-9.19-26.393-9.19c-21.614,0-43.979,18.362-51.386,25.028c-3.32-9.747-5.125-24.744,1.581-44.984  c1.119,0.751,2.323,1.271,3.495,1.621c1.117,0.333,2.684,0.663,4.496,0.663c4.879,0,11.531-2.398,15.958-13.614  c0.399-1.01,0.917-2.556,1.573-4.515c1.911-5.702,5.246-15.645,10.414-26.171c3.544-0.116,15.785-0.162,30.228,3.82  c-1.383,2.348-2.622,4.712-3.661,7.072c-6.696,15.219-7.313,29.604-1.692,39.465c3.255,5.711,8.431,9.265,14.575,10.007  c1.294,0.156,2.533,0.232,3.723,0.232c17.569,0,24.041-16.495,27.21-33.131c5.5,5.984,10.096,12.884,13.734,20.71l0.822,1.768  c0.132,0.283,0.506,0.349,0.726,0.126l1.371-1.387c0.073-0.074,6.367-6.405,11.525-9.395c-0.154,4.234-0.635,8.866-1.787,12.843  l-0.197,0.682l0.32,0.633C238.315,354.685,263.008,404.608,236.222,438.927z M297.54,324.73  c-27.093-3.535-44.222-2.323-54.545-0.253c-7.536,1.511-10.304,5.347-11.163,6.983c-0.117,0.222,0.124,0.458,0.342,0.334  c1.037-0.59,3.328-1.71,7.326-2.801c0.12,1.595,0.262,4.057,0.284,6.946c-4.12,1.892-9.07,6.161-11.892,8.779  c-0.218,0.202-0.565,0.136-0.7-0.129c-4.212-8.293-9.328-15.109-14.882-20.722c0.668-4.162,1.169-8.244,1.629-11.983  c0.505-4.12,0.984-8.011,1.568-11.234c3.134-17.298,14.503-28.237,16.689-30.204c4.633-0.628,40.026-4.975,82.698,2.121  c-5.24,5.028-9.65,12.648-13.162,22.822C297.579,307.418,296.187,317.23,297.54,324.73z M413.961,317.55  c-2.097-8.285-6.669-11.644-8.819-12.805c-0.333-0.18-0.69,0.2-0.493,0.522c2.225,3.639,9.099,16.106,6.702,27.68  c-1.028,4.966-3.677,9.201-7.884,12.631c-0.456-9.084-4.244-12.399-6.11-13.489c-0.336-0.196-0.728,0.154-0.573,0.511  c1.699,3.896,7.062,18.366-2.656,26.954c-5.192,4.588-11.864,6.823-18.821,6.294c-4.934-0.376-9.656-2.189-12.621-4.751  c2.645-3.47,3.449-7.11,3.669-9.472c3.387,0.87,5.408,2.272,6.417,3.16c0.279,0.246,0.714-0.013,0.633-0.376  c-0.426-1.908-1.933-5.534-7.257-6.534c-7.396-1.389-9.638,1.692-10.192,2.798c-0.083,0.167,0.051,0.355,0.236,0.338  c2.541-0.239,4.734-0.202,6.645-0.003c-0.168,3.493-2.006,11.924-15.449,14.961c-6.718,1.518-14.831-2.536-21.174-10.577  c-7.3-9.252-13.144-25.398-6.209-41.044c0.174-0.393-0.314-0.757-0.64-0.477c-2.29,1.964-6.75,7.856-5.277,23.348  c-2.591-0.367-6.922-1.582-9.917-5.592c-4.983-6.668-4.649-18.793,0.968-35.064c5.027-14.565,11.805-23.467,20.143-26.46  c5.718-2.053,10.876-0.727,13.638,0.357c-4.086,2.662-5.218,6.514-5.531,8.398c-0.058,0.347,0.367,0.559,0.608,0.303  c3.188-3.371,17.024-15.918,45.305-14.715c25.852,1.105,29.685,15.182,30.133,21.184c0.128,1.712,0.786,3.277,1.905,4.525  C413.773,292.871,419.883,306.202,413.961,317.55z"></path>
<path id="_x23_E4232A" fill="#E4232A" d="M167.609,234.169c0.882,0.933,1.787,1.719,2.691,2.334  c2.623,1.785,5.499,2.371,8.543,1.743c9.492-1.961,12.538-14.031,13.396-24.109c-3.288,2.176-10.759,6.388-20.081,7.022  C171.049,222.413,166.736,227.762,167.609,234.169z"></path>
<path id="_x23_F7EC13" fill="#F2F2F3" d="M190.881,207.577c0.569-0.081,1.112-0.178,1.653-0.277  c-0.002,0.608-0.009,1.247-0.026,1.92c-0.028,1.12-0.598,2.16-1.523,2.782c-4.452,2.989-16.295,9.505-30.121,5.489  c-1.269-0.368-2.276-1.405-2.628-2.706c-0.373-1.379-0.657-2.57-0.851-3.438c5.063,1.006,12.781,1.063,22.194-3.593  C182.958,208.163,186.714,208.172,190.881,207.577z M161.357,133.763c-0.148-2.752,0.394-5.822,1.584-8.809  c1.403-3.524,3.537-6.524,6.007-8.445c2.567-1.998,5.207-2.61,7.432-1.724c2.271,0.905,3.704,3.278,4.181,6.362  c0.018,0.12,0.193,0.117,0.202-0.004c0.447-5.826-1.446-10.711-5.267-12.233c-0.544-0.217-1.107-0.357-1.683-0.426  c-5.144-0.611-11.314,4.531-14.452,12.411c-1.419,3.565-1.99,7.141-1.819,10.284C158.94,132.03,160.208,132.895,161.357,133.763z   M176.372,128.599c-0.715,1.795-2.115,2.923-3.127,2.52c-1.012-0.403-1.253-2.185-0.539-3.98c0.715-1.795,2.115-2.923,3.127-2.52  C176.846,125.023,177.087,126.804,176.372,128.599z M213.077,116.396c-0.802-0.214-1.619-0.318-2.44-0.318  c-7.344,0-15.171,8.271-18.272,19.891c-3.447,12.92,0.236,25.162,8.209,27.289c0.951,0.254,1.921,0.335,2.897,0.29  c-2.639-1.231-4.64-3.933-5.703-7.773c-1.183-4.277-1.071-9.494,0.316-14.69c1.386-5.197,3.888-9.776,7.045-12.895  c3.279-3.242,6.894-4.545,10.176-3.67c3.349,0.894,5.763,3.996,6.95,8.258c0.046,0.166,0.291,0.133,0.284-0.039  C222.194,124.46,218.712,117.899,213.077,116.396z M217.604,143.97c-0.706,2.647-2.489,4.469-3.981,4.071  c-1.493-0.398-2.13-2.867-1.424-5.513c0.706-2.647,2.489-4.469,3.981-4.071C217.672,138.855,218.31,141.323,217.604,143.97z   M404.649,305.268c2.225,3.639,9.099,16.106,6.702,27.68c-1.028,4.966-3.677,9.201-7.884,12.631  c-0.456-9.084-4.244-12.399-6.11-13.489c-0.336-0.196-0.728,0.154-0.573,0.511c1.699,3.896,7.062,18.366-2.656,26.954  c-5.192,4.588-11.864,6.823-18.821,6.294c-4.934-0.376-9.656-2.189-12.621-4.751c2.645-3.47,3.449-7.11,3.669-9.472  c3.387,0.87,5.408,2.272,6.417,3.16c0.279,0.246,0.714-0.013,0.633-0.376c-0.426-1.908-1.933-5.534-7.257-6.534  c-7.396-1.389-9.638,1.692-10.192,2.798c-0.083,0.167,0.051,0.355,0.236,0.338c2.541-0.239,4.734-0.202,6.645-0.003  c-0.168,3.493-2.006,11.924-15.449,14.961c-6.718,1.518-14.831-2.536-21.174-10.577c-7.3-9.252-13.144-25.398-6.209-41.044  c0.174-0.393-0.314-0.757-0.64-0.477c-2.29,1.964-6.75,7.856-5.277,23.348c-2.591-0.367-6.922-1.582-9.917-5.592  c-4.983-6.668-4.649-18.793,0.968-35.064c5.027-14.565,11.805-23.467,20.143-26.46c5.718-2.053,10.876-0.727,13.638,0.357  c-4.086,2.662-5.218,6.514-5.531,8.398c-0.058,0.347,0.367,0.559,0.608,0.303c3.188-3.371,17.024-15.918,45.305-14.715  c25.852,1.105,29.685,15.182,30.133,21.184c0.128,1.712,0.786,3.277,1.905,4.525c2.432,2.712,8.541,16.044,2.619,27.392  c-2.097-8.285-6.669-11.644-8.819-12.805C404.809,304.566,404.452,304.946,404.649,305.268z M361.157,308.431  c-3.081-2.74-7.856-5.126-9.966-7.015c-0.189-0.169-0.479,0.021-0.394,0.261c1.285,3.632,1.878,7.641,4.982,12.633  c1.171,1.882,3.875,2.189,5.655,0.868c0.019-0.014,0.038-0.029,0.057-0.043C363.752,313.428,363.273,310.313,361.157,308.431z   M372.166,292.385c-0.131-2.411-2.378-4.213-4.785-4.019l-10.988,0.886c-0.347,0.028-0.52,0.435-0.299,0.704  c2.251,2.736,6.783,5.241,9.705,6.669c2.336,1.142,5.249,0.105,6.107-2.349C372.13,293.632,372.199,292.993,372.166,292.385z   M373.522,273.487c-0.013-0.04-0.026-0.081-0.039-0.121c-0.817-2.475-3.84-3.413-6.026-1.994c-2.53,1.642-6.214,4.293-7.999,6.829  c-0.319,0.454,0.026,1.075,0.579,1.043l9.812-0.561C372.46,278.534,374.306,275.98,373.522,273.487z M103.496,86.986  c-3.239,3.739-4.691,8.25-4.318,13.407c0.416,5.738,3.362,9.06,8.759,9.875c5.472,0.829,12.026-1.369,15.419-4.152  c0.485-0.398,1.144,0.183,0.824,0.722c-1.642,2.769-5.385,6.399-13.837,7.209c-1.003,0-1.989-0.069-2.946-0.213  c-1.142-0.172-2.205-0.455-3.199-0.823c-7.815,8.927-15.448,6.301-17.259,5.49c-1.504,6.767-5.507,12.105-12.385,12.749  c-12.367,1.158-15.614-10.048-16.244-14.526c-0.036-0.258,0.314-0.362,0.426-0.126c3.038,6.43,15.864,17.952,22.002,4.797  c7.381-15.816-4.585-32.122-12.625-36.537c-0.258-0.142-0.104-0.53,0.18-0.453C71.765,85.353,78.78,87.7,83.31,95.309  c3.384,5.684,4.862,13.306,4.135,20.077c8.051,1.379,11.887-2.679,13.119-4.395c-2.909-2.312-4.659-5.849-4.984-10.337  C95.2,95.4,96.426,90.7,99.216,86.641c-4.55-10.482-12.036-15.005-14.817-16.359c-0.189-0.092-0.1-0.38,0.109-0.355  c12.347,1.502,16.965,8.795,18.519,12.417c4.009-3.597,9.075-6.022,13.863-7.647c-1.563-3.37-6.398-12.464-14.59-16.314  c-0.502-0.236-0.304-0.994,0.248-0.937c4.241,0.432,12.698,3.005,19.329,15.79c2.407-0.601,4.583-1.003,6.315-1.27  c-0.26-1.554-0.437-3.118-0.494-4.689c-0.136-3.733,0.357-7.286,1.464-10.642c-2.654-1.836-6.988-4.189-9.324-5.322  c-12.916-6.263-29.214-5.862-44.482,1.485c-16.672,8.02-34.486,26.548-34.486,54.494c0,14.668,4.25,26.203,12.632,34.286  c11.838,11.416,28.762,12.779,33.917,12.92c0.34,0.009,0.417,0.479,0.099,0.599c-2.917,1.1-9.71,3.22-15.402,1.657  c0.577,6.523,3.043,11.186,7.359,13.879c10.732,6.698,30.208,0.589,38.515-3.009c-1.821-3.048-3.324-6.542-4.131-10.176  c-1.709-7.7-0.236-15.052,4.26-21.262c4.282-5.913,10.566-9.458,17.985-10.251c2.436-3.431,7.333-11.145,9.92-20.854  c-6.072-6.939-14.028-17.755-17.076-29.565C122.815,76.457,110.178,79.273,103.496,86.986z M216.728,21.473  c-7.81-1.405-14.185-0.099-18.941,3.88c-6.168,5.158-8.723,14.222-9.151,21.258c2.101,1.119,4.198,2.33,6.288,3.587  c2.212-10.734,9.605-22.945,9.924-23.467l0.395-0.649h12.352l-10.598,22.716l17.337,2.287l-3.74,12.214l-1.237-0.299  c-2.482-0.599-5.316-1.045-7.728-1.358c3.635,2.797,7.158,5.693,10.492,8.635c7.783-3.768,13.193-15.823,12.245-27.851  C233.936,37.003,231.361,24.102,216.728,21.473z"></path>
<path id="_x23_F7EC13_00000065050239896872722350000002886482860744928958_" fill="#F7EC13" d="M188.162,315.019  c-0.453-0.06-0.907-0.089-1.361-0.089c-2.865,0-5.691,1.184-8.082,3.413c-2.865,2.671-4.753,6.496-5.316,10.772  c-0.564,4.275,0.269,8.46,2.342,11.781c2.005,3.211,4.939,5.22,8.259,5.658c6.994,0.925,13.613-5.402,14.76-14.096  C199.911,323.764,195.155,315.941,188.162,315.019z M186.92,341.632c5.662-5.499,6.609-11.207,6.377-18.84  C197.762,329.317,195.124,339.795,186.92,341.632z M117.506,301.076c-0.563-0.181-1.148-0.276-1.743-0.284  c-0.026,0-0.052-0.001-0.078-0.001c-4.439,0-9.179,5.127-11.548,12.51c-1.824,5.684-1.845,11.233-0.057,14.843  c0.872,1.76,2.099,2.904,3.649,3.402c2.369,0.76,5.131,0.007,7.771-2.127c2.858-2.31,5.173-5.893,6.519-10.09  c1.347-4.197,1.549-8.459,0.569-12C121.684,304.058,119.878,301.837,117.506,301.076z M110.979,324.821  c4.01-4.866,6.646-10.243,8.116-16.377C120.913,314.816,117.189,322.446,110.979,324.821z"></path>
<path id="_x23_22A84A" fill="#22A84A" d="M314.893,272.567c-5.24,5.028-9.65,12.648-13.162,22.822  c-4.152,12.029-5.543,21.841-4.191,29.34c-27.093-3.535-44.222-2.323-54.545-0.253c-7.536,1.511-10.304,5.347-11.163,6.983  c-0.117,0.222,0.124,0.458,0.342,0.334c1.037-0.59,3.328-1.71,7.326-2.801c0.12,1.595,0.262,4.057,0.284,6.946  c-4.12,1.892-9.07,6.161-11.892,8.779c-0.218,0.202-0.565,0.136-0.7-0.129c-4.212-8.293-9.328-15.109-14.882-20.722  c0.668-4.162,1.169-8.244,1.629-11.983c0.505-4.12,0.984-8.011,1.568-11.234c3.134-17.298,14.503-28.237,16.689-30.204  C236.828,269.818,272.221,265.471,314.893,272.567z M172.078,268.1c-1.718-1.147-3.101-2.566-4.187-4.216  c-1.501,2.313-3.528,5.329-4.701,6.636c-0.982,1.094-2.057,2.069-3.096,3.012c-0.954,0.865-1.855,1.682-2.677,2.573  c-5.785,6.273-10.536,13.668-14.395,20.985c5.348-0.038,16.908,0.423,30.35,4.279c8.103-12.473,19.997-24.156,29.234-31.626  c-5.028,1.15-10.511,2.008-15.708,2.008C181.316,271.751,176.069,270.765,172.078,268.1z M161.325,262.529  c1.279-1.478,2.929-2.84,4.347-3.887c-0.161-0.682-0.298-1.381-0.392-2.112c-1.693-0.906-3.451-1.991-5.227-3.297  c-8.959-6.588-20.063-20.231-22.367-47.824c-0.848-0.238-1.728-0.54-2.649-0.924c-12.93-5.388-12.862-19.111-11.42-28.086  c0.142-0.887-0.146-1.777-0.777-2.417c-0.761-0.771-1.519-1.638-2.258-2.579c-5.935,2.688-17.621,6.703-28.547,6.703  c-1.077,0-2.143-0.052-3.199-0.135l43.274,100.727c9.724-7.915,19.695-12.778,27.133-14.844  C160.048,263.632,160.767,263.173,161.325,262.529z M177.266,57.159c-0.364-0.253-0.083-0.826,0.339-0.693  c17.035,5.39,35.527,26.786,40.848,33.286c7.425-2.507,14.894-0.266,17.162,8.117c1.553,5.739,1.414,10.641,0.612,14.558  c0.996,1.111,1.992,2.248,2.991,3.415c5.722,6.683,14.1,7.04,18.552,6.668c-4.48-7.868-10.245-16.838-17.679-26.772  c-15.806-21.119-53.926-52.639-81.505-54.385c-7.867-0.5-14.148,1.603-18.643,6.249c-5.401,5.58-8.005,12.141-7.741,19.499  c0.617,17.169,16.358,34.464,22.251,40.356c2.413-4.763,5.401-9.588,9.011-13.612c1.033-10.04,7.633-16.447,13.247-15.831  c2.766,0.304,5.432,2.587,7.188,6.04c0.512,0.027,1.027,0.065,1.551,0.127c10.118,1.214,18.456,3.847,25.808,7.701  C204.989,77.22,183.806,61.699,177.266,57.159z M213.346,28.788h-6.573c-1.524,2.618-7.163,12.68-9.104,21.488  c4.091,2.544,8.243,5.382,12.359,8.449c2.442,0.277,5.719,0.721,8.719,1.365l2.063-6.739l-15.781-2.081  c-0.478-0.062-0.903-0.354-1.133-0.781c-0.23-0.426-0.241-0.941-0.03-1.378L213.346,28.788z M196.051,23.278  c5.4-4.517,12.516-6.019,21.156-4.468c11.609,2.086,18.845,10.617,19.854,23.405c0.991,12.569-4.599,25.246-12.798,29.984  c7.9,7.174,14.668,14.465,19.438,20.837c24.908,33.281,31.61,55.86,33.22,62.942c5.975-0.968,12.4,0.063,17.164,3.276  c2.944,1.986,6.602,5.675,7.802,12.094c5.596-3.971,16.956-14.321,15.06-31.935c-1.978-18.363-15.308-23.329-20.959-24.617  c0.206,5.873-2.48,9.111-3.865,10.217c-0.255,0.203-0.628,0.003-0.6-0.322c1.79-20.696-11.115-103.325-56.083-117.081  c-15.796-4.832-29.011-4.005-39.283,2.464c-13.859,8.727-18.586,25.468-19.793,30.912c3.192,1.213,6.426,2.65,9.668,4.28  C186.543,39.71,188.527,29.57,196.051,23.278z"></path>
<g id="_x3C_Group_x3E__-__x23_FBD2B3">
	<path id="_x23_FBD2B3_00000096054812995004346850000008238611669896179897_" fill="#FBD2B3" d="M291.564,162.993   c-6.695-4.516-17.92-3.591-23.548,1.941c-1.955,1.922-3.94,4.054-5.86,6.116c-6.983,7.502-13.562,14.597-20.547,14.163   c-3.308-0.203-6.296-2.115-8.884-5.684c-3.378-4.662-4.594-8.137-3.942-11.27c0.862-4.142,4.857-6.5,9.484-9.23   c8.001-4.722,18.902-11.168,22.839-30.426c-0.314-0.598-0.637-1.204-0.967-1.818c-4.563,0.704-16.85,1.465-24.938-8.725   c-0.433,0.046-0.384,0.041-0.817,0.087c-0.847,1.892-1.73,3.28-2.312,4.089c-0.181,0.251-0.578,0.103-0.554-0.206   c0.129-1.69,0.223-5.186-0.702-8.834c-0.907-3.582-2.796-7.312-6.606-9.625c-1.881-1.142-3.895-1.695-5.909-1.86   c-6.433-0.527-12.876,2.949-15.019,4.24c-0.247,0.149-0.546-0.102-0.446-0.373c1.438-3.869,3.609-7.154,6.167-9.766   c-6.737-3.511-14.355-5.909-23.484-7.069c0.675,3.247,0.635,6.983-0.488,10.858c-0.139,0.48-0.831,0.482-0.965,0   c-0.541-1.941-1.76-5.094-4.287-7.34c-2.013-1.789-5.038-1.918-7.279-0.425c-12.394,8.258-19.276,29.594-21.132,36.099   c1.538,0.694,2.951,1.412,4.274,2.143c0-3.176,0.667-6.577,1.985-9.887c1.843-4.627,4.72-8.531,8.102-10.992   c3.47-2.524,7.065-3.244,10.125-2.025c5.058,2.014,7.271,8.934,5.839,16.647c-0.316,1.758-0.824,3.56-1.539,5.354   c-0.281,0.705-0.593,1.38-0.918,2.041c-0.657,1.335-1.393,2.586-2.201,3.721c-2.272,3.231-5.055,5.624-7.893,6.86   c3.124,4.663,3.399,8.187,3.399,8.187c-1.702-2.714-3.64-5.199-5.742-7.451c-1.366-1.464-2.8-2.828-4.299-4.073   c-1.354-1.125-2.754-2.16-4.194-3.093c-0.756-0.49-1.521-0.958-2.297-1.392c-5.008-2.803-10.388-4.425-15.734-4.603   c-8.029-0.255-14.875,2.902-19.237,8.924c-3.93,5.427-5.161,11.606-3.661,18.365c0.797,3.592,2.204,6.776,3.819,9.407   c0.642,1.046,2.28,3.247,4.347,5.24c1.595,1.537,3.484,2.882,5.122,3.905c8.729,5.455,26.35,11.746,47.118-6.641   c0.597-0.528,1.537-0.202,1.658,0.586c0.282,1.832,0.507,4.723-0.348,6.92c0,0,16.604,3.284,31.018-5.75   c0.657-0.412,1.523-0.069,1.751,0.672c1.902,6.195,7.414,29.831-16.822,35.769c0.067,10.135-1.546,30.98-15.696,33.903   c-0.962,0.199-1.923,0.299-2.858,0.299c-2.672,0-5.224-0.815-7.585-2.423c-9.475-6.452-13.416-23.913-14.202-27.88   c-1.765-0.542-3.126-1.16-3.968-1.59c-0.327-0.167-0.478-0.528-0.369-0.878c0.11-0.352,0.443-0.564,0.809-0.515   c9.978,1.331,17.375,0.082,21.986-1.295c-9.51-2.935-14.868-8.97-16.611-11.252c-0.276-0.361-0.833-0.276-0.992,0.151   c-1.074,2.883-4.778,10.715-13.275,10.774c1.855,19.884,8.822,34.869,20.233,43.379c2.343,1.747,4.663,3.065,6.81,4.059   c4.825,2.235,11.303,2.789,13.628,2.921c0.283,0.016,0.374,0.387,0.13,0.531c-1.648,0.972-5.994,2.957-12.685,1.891   c0.798,2.336,2.174,4.161,4.184,5.502c9.779,6.531,31.305,0.112,37.669-2.01c1.537-0.513,2.741-1.681,3.306-3.207   c10.887-29.426,25.563-43.585,29.801-47.224c1.339-1.148,3.141-1.503,4.821-0.948c7.372,2.436,32.335,8.169,44.125-20.285   C299.699,177.655,298.726,167.824,291.564,162.993z M224.299,136.354c-0.15,2.528-0.565,5.15-1.271,7.796   c-0.277,1.039-0.604,2.042-0.952,3.027c-0.702,1.989-1.529,3.874-2.477,5.607c-2.685,4.98-6.248,8.848-10.082,11.052   c-2.306,1.325-4.709,2.048-7.078,2.048c-0.982,0-1.956-0.124-2.917-0.38c-4.511-1.204-7.993-5.065-9.802-10.874   c-1.765-5.662-1.734-12.538,0.087-19.361c1.82-6.823,5.219-12.8,9.569-16.831c4.463-4.135,9.404-5.749,13.916-4.545   C220.751,115.883,225.024,125.255,224.299,136.354z M282.684,175.503c-2.699,0.062-11.897,0.752-15.669,7.147   c0,0,8.347-1.166,10.866,4.629c0.057,0.13-0.075,0.269-0.206,0.215c-1.768-0.726-9.671-3.558-12.857,2.33   c-2.607,4.818-0.757,9.532,0.173,11.357c0.08,0.158-0.118,0.311-0.247,0.19c-2.303-2.139-9.231-9.821-3.524-20.46   c5.986-11.16,18.438-6.967,21.52-5.714C282.899,175.262,282.857,175.499,282.684,175.503z"></path>
	<path id="_x23_FBD2B3_00000148661579820035289300000013125132151677236905_" fill="#FBD2B3" d="M311.975,554.172   c-0.783-1.645-0.549-3.613,0.596-5.014c1.988-2.436,5.17-7.927,4.148-17.334c-2.022-18.596-11.511-23.277-17.02-24.414   c8.312,14.702,4.679,37.837,3.774,42.762c-0.019,0.103-0.012,0.204,0.021,0.307c7.759,24.106,11.571,59.269-3.221,79.033   c-0.76,1.016-1.567,1.967-2.404,2.873c8.892-3.79,20.628-12.025,22.327-29.34C322.578,578.742,314.506,559.493,311.975,554.172z"></path>
	<path id="_x23_FBD2B3" fill="#FBD2B3" d="M98.668,512.868l-0.127-0.387c-0.163-0.496-16.639-49.723-48.733-60.886   c-19.564-6.806-31.069-0.915-36.185,3.202c-5.064,4.074-7.826,9.446-8.328,13.357c1.576,8.1,5.694,16.239,12.357,24.364   c11.5,14.025,34.277,28.063,34.505,28.203l0.379,0.232l0.262,0.358c11.193,15.262,24.434,22.488,42.934,23.429   c4.82,0.244,9.094-1.276,12.7-3.49c1.258-3.435,3.622-14.306-9.484-28.088L98.668,512.868z M73.775,515.247   c-6.07,0.402-12.008,0.897-18.157,0.73c5.627-2.648,11.749-3.845,17.898-4.327c6.155-0.398,12.383-0.088,18.333,1.718   C85.789,514.407,79.839,514.768,73.775,515.247z M121.119,528.036c-0.443,0.761-3.373,5.612-8.244,9.901   c0.727-5.954-0.452-15.691-11.036-26.968c-1.728-5.099-18.236-51.439-50.845-62.782c-21.208-7.376-33.933-0.786-39.631,3.799   c-2.989,2.405-5.217,5.11-6.792,7.799c0.128-5.621,1.493-11.214,4.103-16.76l0.265-0.568l-0.001-0.012   c4.637-3.794,24.084-17.019,53.949-1.107c34.207,18.224,44.786,61.858,44.889,62.296l0.144,0.602l0.478,0.388   C108.493,504.704,117.834,512.453,121.119,528.036z"></path>
</g>
<g id="_x3C_Group_x3E__-__x23_1769B2">
	<path id="_x23_1769B2_00000074406794288788985200000009570186701526295972_" fill="#1769B2" d="M277.769,539.8   c-2.919,12.204-16.389,37.036-39.439,35.953c-6.79-0.323-11.781-2.237-14.838-5.687c-3.509-3.962-3.704-9.041-3.508-11.716   c0.13-1.772-0.557-3.463-1.885-4.639c-24.158-21.414-56.805-69.426-61.024-75.694c0.169-1.211,0.668-2.377,1.48-3.333l7.138-8.409   c4.783,0.925,9.883,1.419,15.128,1.419c16.637,0,34.737-4.967,48.871-16.84l29.446,43.764c1.054,1.569,2.889,2.401,4.791,2.181   c4.552-0.537,8.007,0.612,10.583,3.509C281.804,508.507,280.38,528.883,277.769,539.8z M177.116,446.777   c-1.036,2.767-3.649,8.916-8.719,16.312c1.711,0.425,4.243,0.602,6.434,0.77c21.056,1.616,45.924-5.116,61.391-24.933   c26.786-34.319,2.093-84.242,1.84-84.742l-0.32-0.633l0.197-0.682c1.151-3.977,1.633-8.609,1.787-12.843   c-5.157,2.99-11.451,9.321-11.525,9.395l-1.371,1.387c-0.22,0.222-0.594,0.157-0.726-0.126l-0.822-1.768   c-3.638-7.826-8.234-14.725-13.734-20.71c-3.169,16.636-9.642,33.131-27.21,33.131c-1.191,0-2.429-0.076-3.723-0.232   c-6.144-0.742-11.32-4.296-14.575-10.007c-5.621-9.862-5.005-24.246,1.692-39.465c1.038-2.36,2.278-4.724,3.661-7.072   c-14.444-3.982-26.684-3.937-30.228-3.82c-5.168,10.526-8.503,20.469-10.414,26.171c-0.656,1.958-1.174,3.505-1.573,4.515   c-4.427,11.215-11.079,13.614-15.958,13.614c-1.811,0-3.378-0.33-4.496-0.663c-1.172-0.349-2.376-0.87-3.495-1.621   c-6.706,20.24-4.901,35.237-1.581,44.984c7.408-6.667,29.772-25.028,51.386-25.028c11.564,0,20.284,3.859,26.393,9.19   c7.664,6.687,9.346,14.286,10.404,18.547c0.117,0.471-0.522,0.733-0.776,0.319c-1.281-2.086-3.218-5.178-4.52-6.94   c-5.724-7.746-15.236-16.608-31.502-16.608c-21.176,0-44.293,20.115-49.604,25.011c1.947,4.282,3.982,7.06,5.015,8.327   c0.283,0.348,0.047,0.867-0.402,0.875c-1.704,0.031-4.97-0.302-6.59-3.066c-5.438-0.566-13.902-0.566-16.715,1.715   c-0.066,0.053-0.105,0.104-0.16,0.156c7.862,4.974,14.553,11.886,19.332,20.118c10.532,18.143,16.33,34.95,20.989,48.456   c5.111,14.817,8.875,25.685,15.981,31.245c8.115-3.973,9.431-16.272,9.61-21.544c0.084-2.452,1.016-4.847,2.627-6.745   l21.468-25.293C176.812,446.208,177.238,446.451,177.116,446.777z M171.035,313.084c1.096-2.491,2.421-4.985,3.905-7.457   c0.636-1.061,1.297-2.118,1.991-3.168c10.373-15.694,26.699-29.927,35.153-35.324c1.485-0.948,2.732-1.629,3.656-1.992   c0.17-0.015,0.45-0.036,0.81-0.051c2.359-0.101,8.357,0.034,12.285,3.54c-3.774,3.604-13.83,14.549-16.878,31.374   c-0.602,3.324-1.087,7.265-1.599,11.437c-0.375,3.055-0.765,6.216-1.219,9.383c-0.202,1.412-0.418,2.824-0.651,4.23   c-2.797,16.846-8.153,32.671-24.192,32.668c-1.036,0-2.119-0.066-3.245-0.202c-5.055-0.611-9.16-3.45-11.875-8.213   C164.199,340.581,164.895,327.039,171.035,313.084z M169.828,328.643c-0.674,5.103,0.342,10.133,2.858,14.163   c2.586,4.142,6.438,6.742,10.847,7.324c0.609,0.08,1.215,0.119,1.818,0.119c8.26,0,15.679-7.379,16.99-17.32v0   c1.406-10.666-4.743-20.305-13.706-21.487c-4.416-0.583-8.804,0.933-12.375,4.262C172.784,318.945,170.5,323.541,169.828,328.643z    M109.756,340.919c6.805,2.026,12.514-1.814,16.068-10.818c0.364-0.922,0.869-2.428,1.509-4.337   c3.522-10.509,11.769-35.12,27.434-52.105c0.931-1.01,1.934-1.919,2.904-2.799c1.017-0.922,1.977-1.793,2.836-2.749   c0.275-0.306,0.62-0.745,1.009-1.272c-0.418,0.202-0.854,0.366-1.305,0.492c-2.51,0.697-24.368,7.312-41.32,30.406   c0.187,0.066,0.36,0.159,0.542,0.236c0.194,0.083,0.392,0.158,0.58,0.252c0.223,0.112,0.433,0.246,0.647,0.375   c0.178,0.108,0.36,0.207,0.532,0.326c0.208,0.144,0.402,0.31,0.6,0.471c0.162,0.131,0.329,0.253,0.484,0.395   c0.192,0.176,0.369,0.373,0.55,0.565c0.144,0.153,0.295,0.296,0.433,0.459c0.176,0.208,0.335,0.439,0.499,0.663   c0.125,0.171,0.258,0.332,0.377,0.513c0.161,0.246,0.305,0.515,0.453,0.778c0.103,0.182,0.215,0.353,0.311,0.543   c0.152,0.301,0.284,0.625,0.42,0.945c0.074,0.174,0.158,0.336,0.226,0.516c0.195,0.509,0.37,1.04,0.523,1.592   c1.165,4.211,0.948,9.206-0.611,14.064c-1.559,4.858-4.289,9.047-7.687,11.793c-0.405,0.327-0.815,0.621-1.227,0.899   c-0.119,0.08-0.238,0.155-0.357,0.231c-0.319,0.204-0.64,0.392-0.962,0.566c-0.108,0.058-0.214,0.12-0.322,0.175   c-0.415,0.211-0.832,0.401-1.251,0.563c-0.08,0.031-0.16,0.054-0.24,0.083c-0.346,0.126-0.693,0.235-1.04,0.327   c-0.126,0.034-0.252,0.065-0.378,0.094c-0.347,0.08-0.694,0.142-1.04,0.187c-0.079,0.01-0.158,0.027-0.237,0.036   c-0.366,0.039-0.731,0.062-1.094,0.062c-0.059,0-0.117-0.006-0.176-0.007c-0.063-0.001-0.126-0.005-0.19-0.007   c-0.412-0.015-0.822-0.052-1.229-0.118c-0.044-0.007-0.088-0.018-0.132-0.026c-0.426-0.076-0.849-0.175-1.266-0.309   c-0.279-0.09-0.55-0.196-0.817-0.311c-0.08-0.035-0.159-0.073-0.238-0.11c-0.193-0.09-0.382-0.186-0.568-0.29   c-0.077-0.043-0.154-0.084-0.229-0.129c-0.234-0.139-0.463-0.287-0.684-0.448c-0.014-0.01-0.03-0.019-0.044-0.03   c-0.005-0.004-0.011-0.007-0.017-0.011C104.433,338.664,107.361,340.205,109.756,340.919z"></path>
	<path id="_x23_1769B2" fill="#1769B2" d="M179.299,126.061c-0.157,1.051-0.413,2.137-0.758,3.234   c0.981-4.076,0.152-7.714-2.194-8.648c-2.777-1.106-6.618,1.989-8.579,6.914c-1.961,4.924-1.3,9.813,1.477,10.919   c0.933,0.371,1.985,0.26,3.047-0.227c-1.115,0.92-2.272,1.652-3.434,2.145c-0.228,0.034-0.453,0.05-0.677,0.054   c-1.254-1.653-2.862-3.409-4.935-5.181c-0.021-0.113-0.048-0.218-0.066-0.334c-0.427-2.799,0.045-6.119,1.332-9.349   c1.286-3.23,3.226-5.966,5.46-7.704c1.725-1.342,3.448-1.948,4.963-1.768c0.361,0.043,0.712,0.131,1.047,0.264   C178.755,117.485,179.956,121.412,179.299,126.061z M221.3,139.907c0.147-6.655-2.2-11.984-6.29-13.075   c-0.494-0.132-1.002-0.197-1.518-0.197c-2.163,0-4.488,1.143-6.692,3.32c-2.855,2.821-5.128,6.997-6.399,11.761   c-1.271,4.763-1.381,9.517-0.311,13.385c1.024,3.699,3,6.114,5.564,6.797c1.086,0.289,2.213,0.25,3.344-0.06   c1.554-0.889,3.06-2.114,4.476-3.595c-1.413,0.862-2.876,1.196-4.251,0.829c-4.095-1.093-5.844-7.864-3.907-15.125   c1.937-7.261,6.827-12.261,10.922-11.169c3.46,0.923,5.235,5.906,4.536,11.809C221.076,142.984,221.256,141.412,221.3,139.907z"></path>
</g>
<g id="_x3C_Group_x3E__-__x23_8C5132">
	<path id="_x23_8C5132_00000074426132883298759510000009347350633672315803_" fill="#8C5132" d="M241.885,180.712   c4.865,0.304,11.008-6.329,16.971-12.734c1.953-2.098,3.972-4.267,5.998-6.259c2.094-2.058,4.759-3.596,7.682-4.619   c-0.775-3.337-2.945-11.057-8.328-22.326c-5.161,17.217-16.126,23.699-23.648,28.137c-3.858,2.277-6.906,4.075-7.362,6.266   c-0.361,1.735,0.679,4.255,3.179,7.705C238.16,179.342,239.961,180.594,241.885,180.712z"></path>
	<path id="_x23_8C5132_00000072244722184381155970000013677500395304080052_" fill="#8C5132" d="M236.022,251.43   c0.898-0.541,1.044-2.329,0.897-3.696c-0.098-0.909,0.306-1.801,1.053-2.327c0.751-0.532,1.734-0.612,2.564-0.213   c3.736,1.794,6.594,2.216,7.843,1.156c1.375-1.167,2.058-5.098-0.147-12.633c-1.917-6.551-2.474-12.116-2.576-15.94   c-4.619,4.57-12.769,14.047-20.371,29.906C233.131,252.654,235.591,251.69,236.022,251.43z"></path>
	<path id="_x23_8C5132_00000161624428960597672950000012538510732092690618_" fill="#8C5132" d="M299.202,551.861   c-0.263-0.818-0.318-1.659-0.164-2.502c0.577-3.139,5.309-31.015-5.984-43.565c-3.32-3.689-7.828-5.744-13.432-6.152   c7.323,11.55,4.425,33.286,2.531,41.206c-1.595,6.666-5.963,16.799-13.44,25.245c-8.248,9.317-18.214,14.203-28.912,14.203   c-0.561,0-1.123-0.014-1.687-0.04c-2.994-0.143-5.71-0.569-8.143-1.273c-0.104,8.747,0.802,34.54,14.199,49.244   c6.241,6.849,14.499,10.453,24.544,10.711c12.272,0.321,21.69-3.766,27.948-12.128C309.543,609.602,307.22,576.768,299.202,551.861   z"></path>
	<path id="_x23_8C5132" fill="#8C5132" d="M122.638,470.28c-4.595-13.32-10.314-29.898-20.626-47.662   c-8.527-14.687-24.558-26.443-44.567-26.443c-6.863,0-14.189,1.381-21.846,4.501c-23.337,9.508-26.524,29.21-26.796,37.445   c7.66-5.185,27.724-14.913,55.778,0.034c33.899,18.061,45.155,58.507,46.563,64.078c2.06,1.841,9.96,9.68,13.266,24.015   c11.846-4.399,15.038-18.34,15.742-22.582C131.948,497.269,127.814,485.282,122.638,470.28z"></path>
</g>
<g>
</g>
<g>
</g>
<g>
</g>
<g>
</g>
<g>
</g>
</svg>
