<?xml version="1.0" encoding="UTF-8"?>
<!-- Generator: Adobe Illustrator 26.1.0, SVG Export Plug-In . SVG Version: 6.00 Build 0)  -->
<svg xmlns="http://www.w3.org/2000/svg" xmlns:xlink="http://www.w3.org/1999/xlink" version="1.1" id="Layer_1" x="0px" y="0px" width="484.214px" height="637.667px" viewBox="0 0 484.214 637.667" xml:space="preserve">
<path id="_x23_191919_00000134224378206695370700000009255442527096857262_" fill="#191919" d="M483.129,356.924  c-2.017-10.424-7.192-18.395-15.38-23.69c-2.997-1.938-6.217-3.38-9.503-4.438c26.233-37.739,25.068-96.939-3.798-161.154  c-19.927-44.33-50.661-85.467-86.54-115.836C327.865,17.915,283.846,0,242.107,0c-41.739,0-85.758,17.915-125.8,51.807  c-35.879,30.368-66.614,71.506-86.54,115.836C0.9,231.857-0.264,291.057,25.968,328.796c-3.286,1.058-6.506,2.5-9.503,4.438  c-8.188,5.295-13.363,13.266-15.38,23.69c-4.723,24.401,6.002,68.791,31.564,97.959c17.614,20.099,40.011,30.61,65.058,30.609  c0.152,0,0.306-0.006,0.459-0.007c7.54,23.615,17.588,46.686,29.609,67.294c31.932,54.74,73.046,84.887,114.332,84.887  s82.4-30.147,114.332-84.887c12.021-20.608,22.069-43.679,29.609-67.294c0.153,0.001,0.306,0.007,0.459,0.007  c25.047,0.001,47.444-10.51,65.058-30.609C477.127,425.715,487.852,381.325,483.129,356.924z"></path>
<path id="_x23_191919" fill="#191919" d="M467.749,333.234c-2.997-1.938-6.217-3.38-9.503-4.438  c26.233-37.739,25.068-96.939-3.798-161.154c-19.927-44.33-50.661-85.467-86.54-115.836C327.865,17.915,283.846,0,242.107,0  c-41.739,0-85.758,17.915-125.8,51.807c-35.879,30.368-66.614,71.506-86.54,115.836C0.9,231.857-0.264,291.057,25.968,328.796  c-3.286,1.058-6.506,2.5-9.503,4.438c-8.188,5.295-13.363,13.266-15.38,23.69c-4.723,24.401,6.002,68.791,31.564,97.959  c17.614,20.099,40.011,30.61,65.058,30.609c0.152,0,0.306-0.006,0.459-0.007c7.54,23.615,17.588,46.686,29.609,67.294  c31.932,54.74,73.046,84.887,114.332,84.887s82.4-30.147,114.332-84.887c12.021-20.608,22.069-43.679,29.609-67.294  c0.153,0.001,0.306,0.007,0.459,0.007c25.047,0.001,47.444-10.51,65.058-30.609c25.562-29.168,36.287-73.559,31.564-97.959  C481.112,346.5,475.937,338.529,467.749,333.234z M41.413,172.878C77.18,93.315,158.121,12.77,242.107,12.77  s164.927,80.545,200.694,160.108c28.292,62.938,28.709,119.942,1.357,153.415c-4.877-0.284-9.382-0.038-12.93,0.343  c-1.262-31.586-10.448-64.424-25.704-93.041c-0.002-0.004-0.008-0.019-0.01-0.022l-0.001,0.001  c-5.128-9.617-10.941-18.758-17.37-27.214c-16.164-21.258-41.912-45.227-79.928-58.811c11.66-27.022,11.036-53.342-1.985-74.931  c-13.983-23.182-41.282-37.583-71.242-37.583s-57.259,14.401-71.242,37.583c-13.791,22.864-13.67,51.033,0.215,79.724  c-31.501,13.984-53.492,35.082-67.89,54.018c-6.429,8.455-12.242,17.596-17.37,27.214l-0.001-0.001  c-0.002,0.003-0.008,0.018-0.01,0.022c-15.256,28.617-24.442,61.455-25.704,93.041c-3.548-0.381-8.053-0.627-12.93-0.343  C12.703,292.82,13.121,235.816,41.413,172.878z M412.569,353.005c-2.298,15.469-7.629,26.303-15.417,31.333  c-8.294,5.357-16.933,2.758-18.511,1.58c-6.825-5.265-10.075-10.089-10.226-15.181c-0.238-8.063,7.151-18.689,21.964-31.581  c10.58-9.208,17.875-20.82,21.715-34.36C414.34,323.848,414.503,339.979,412.569,353.005z M90.3,238.773  c17.795-33.109,46.305-62.835,87.313-78.259c4.905-1.845,10.005-3.467,15.271-4.884c14.928-4.017,31.3-6.262,49.223-6.262  c16.153,0,31.044,1.825,44.759,5.121c4.855,1.167,9.572,2.507,14.131,4.034c44.028,14.751,74.323,45.652,92.918,80.249l-0.051,0.023  c0.066,0.148,1.752,4.019,3.608,10.235c-13.956,0.911-18.956-5.146-27.504-15.528c-2.967-3.603-6.25-7.583-10.286-11.662  c-5.359-17.042-15.392-33.306-34.162-36.346c-11.436-1.852-20.74,1.078-28.23,6.315c-14.214-2.451-34.698-5.998-55.182-5.998  s-40.968,3.547-55.182,5.998c-7.49-5.237-16.794-8.167-28.23-6.315c-18.771,3.04-28.803,19.304-34.162,36.346  c-4.036,4.079-7.319,8.059-10.286,11.662c-8.548,10.382-13.548,16.438-27.504,15.528c1.856-6.216,3.542-10.087,3.608-10.235  L90.3,238.773z M265.917,100.501l2.577,23.764l-53.561,13.36V59.628l21.683,3.223l-2.31,46.981L265.917,100.501z M274.974,129.34  l-4.139-36.343l-30.331,8.953l2.168-44.067l-33.544-4.986v86.241c-13.746,2.183-26.269,5.672-37.644,10.094  c-12.849-26.289-13.161-51.889-0.779-72.418c12.522-20.758,37.153-33.654,64.284-33.654c27.13,0,51.762,12.895,64.284,33.654  c11.712,19.418,12.065,43.375,1.195,68.159c-16.92-5.179-36.1-8.313-57.77-8.37L274.974,129.34z M93.835,339.156  c14.813,12.892,22.202,23.518,21.964,31.581c-0.151,5.091-3.401,9.916-10.226,15.181c-1.578,1.178-10.217,3.777-18.511-1.58  c-7.789-5.03-13.119-15.864-15.417-31.333c-1.934-13.026-1.771-29.157,0.475-48.21C75.96,318.336,83.255,329.947,93.835,339.156z   M42.253,446.466c-24.313-27.743-32.25-68.418-28.631-87.115c1.348-6.963,4.535-11.99,9.744-15.372  c13.088-8.496,34.189-3.73,34.391-3.684l0.011,0.003c0.305,7.254,1.05,13.648,2.143,19.281c-5.065-0.186-12.449,0.676-20.065,5.503  c-0.982,0.622-0.477,2.147,0.683,2.08c4.996-0.287,13.739-0.085,22.255,3.455c4.341,12.888,10.889,20.351,17.581,24.596  c0.778,0.493,1.562,0.941,2.351,1.355c0.279,23.928,4.387,50.117,11.617,76.077C74.267,471.793,56.757,463.017,42.253,446.466z   M242.107,624.897c-49.417,0-96.129-52.939-122.776-117.743c22.256,12.395,46.176,10.131,66.939,2.896  c4.416,22.721,18.091,69.49,55.837,69.49c37.746,0,51.42-46.769,55.837-69.49c20.763,7.235,44.683,9.499,66.939-2.896  C338.236,571.957,291.524,624.897,242.107,624.897z M199.648,281.789c-11.06,0-20.026,13.987-20.026,31.24  c0,10.19,3.129,19.238,7.968,24.94c-3.622,2.22-7.019,4.65-10.141,7.282c-7.037-7.653-11.592-19.767-11.592-33.383  c0-23.09,13.094-41.876,29.189-41.876c3.456,0,6.772,0.872,9.852,2.461c2.021,4.152,3.697,8.762,4.971,13.712  C206.876,283.388,203.382,281.789,199.648,281.789z M206.611,309.546c0,5.999-3.117,10.863-6.963,10.863s-6.963-4.863-6.963-10.863  c0-5.999,3.117-10.863,6.963-10.863S206.611,303.547,206.611,309.546z M195.046,264.188c-19.295,0-34.994,21.389-34.994,47.68  c0,15.057,5.156,28.492,13.181,37.232c-4.09,4.011-7.607,8.385-10.445,13.058c-12.854-8.865-21.892-29.575-21.892-53.648  c0-32.12,16.088-58.253,35.864-58.253c9.045,0,17.313,5.479,23.629,14.487C198.648,264.378,196.864,264.188,195.046,264.188z   M167.396,373.359c1.053-2.511,2.339-4.944,3.821-7.295c2.475-3.927,5.528-7.609,9.07-10.994c1.439-1.375,2.956-2.702,4.551-3.974  c3.397-2.708,7.135-5.17,11.166-7.352c3.598-1.947,7.42-3.675,11.444-5.144c3.033-1.107,6.182-2.06,9.42-2.867  c7.691-1.918,16.696-2.972,25.239-2.972s17.548,1.054,25.239,2.972c3.238,0.807,6.387,1.76,9.42,2.867  c4.024,1.469,7.846,3.197,11.444,5.144c4.031,2.181,7.769,4.644,11.166,7.352c1.596,1.272,3.113,2.598,4.552,3.974  c3.541,3.386,6.595,7.067,9.07,10.994c1.482,2.351,2.768,4.785,3.821,7.295c2.291,5.46,3.529,11.265,3.529,17.283  c0,10.626-3.869,20.585-10.583,29.153c-13.452,17.166-39.17,28.728-67.656,28.728c-28.487,0-54.204-11.562-67.656-28.728  c-6.714-8.568-10.583-18.527-10.583-29.153C163.868,384.624,165.106,378.819,167.396,373.359z M289.168,269.992  c16.095,0,29.189,18.785,29.189,41.876c0,13.616-4.555,25.73-11.592,33.383c-3.122-2.632-6.519-5.062-10.141-7.282  c4.839-5.703,7.968-14.75,7.968-24.94c0-17.254-8.966-31.24-20.026-31.24c-3.735,0-7.228,1.6-10.221,4.376  c1.273-4.949,2.95-9.56,4.97-13.712C282.395,270.864,285.712,269.992,289.168,269.992z M283.823,264.744  c6.316-9.008,14.584-14.487,23.629-14.487c19.776,0,35.864,26.132,35.864,58.253c0,24.074-9.038,44.783-21.892,53.648  c-2.838-4.672-6.355-9.046-10.445-13.058c8.026-8.74,13.181-22.175,13.181-37.232c0-26.291-15.698-47.68-34.994-47.68  C287.351,264.188,285.566,264.378,283.823,264.744z M291.529,309.546c0,5.999-3.117,10.863-6.963,10.863s-6.963-4.863-6.963-10.863  c0-5.999,3.117-10.863,6.963-10.863S291.529,303.547,291.529,309.546z M242.107,519.255c-22.092,0-36.682-2.607-41.93-3.728  c-0.974-0.208-1.654-1.032-1.654-2.002v-8.432c2.729-1.255,5.377-2.567,7.926-3.914h71.316c2.55,1.348,5.197,2.66,7.927,3.915v8.432  c0,0.97-0.68,1.794-1.654,2.002C278.789,516.647,264.197,519.255,242.107,519.255z M278.233,546.465  c-9.341,17.324-21.495,26.108-36.126,26.108c-14.63,0-26.784-8.784-36.126-26.108c5.721-6.655,20.149-21.324,36.126-21.324  C258.084,525.142,272.512,539.811,278.233,546.465z M218.456,494.212c14.444-9.127,23.651-17.662,23.651-17.662  s9.207,8.536,23.651,17.662H218.456z M387.216,421.06c-3.811-5.248-9.333-11.697-15.458-15.159c0,0-15.242,28.128-52.917,17.146  c6.869-9.615,10.792-20.66,10.792-32.405c0-7.466-1.605-14.642-4.521-21.356c15.486-10.286,26.33-33.65,26.33-60.776  c0-36.601-19.734-66.379-43.991-66.379c-15.03,0-28.318,11.439-36.256,28.844c-2.176,4.772-3.947,9.992-5.243,15.55  c-1.607,6.885-2.49,14.281-2.49,21.985c0,5.944,0.543,11.694,1.521,17.177c-7.055-1.44-15.246-2.214-22.876-2.214  c-7.631,0-15.822,0.774-22.876,2.214c0.978-5.484,1.521-11.233,1.521-17.177c0-7.704-0.884-15.099-2.49-21.985  c-1.297-5.557-3.067-10.778-5.243-15.55c-7.938-17.405-21.226-28.844-36.256-28.844c-24.256,0-43.991,29.778-43.991,66.379  c0,27.126,10.844,50.489,26.33,60.776c-2.916,6.714-4.521,13.891-4.521,21.356c0,11.745,3.923,22.79,10.792,32.405  c-37.675,10.982-52.917-17.146-52.917-17.146c-6.125,3.462-11.646,9.911-15.458,15.159c-0.765-7.013-1.259-13.968-1.445-20.813  c0.856,0.065,1.705,0.107,2.535,0.107c6.534,0,12.172-1.925,15.282-4.324c9.954-7.679,14.924-15.829,15.193-24.916  c0.367-12.413-8.004-25.628-26.344-41.591c-22.398-19.494-22.256-48.104-18.52-67.966c1.983,0.191,3.864,0.288,5.64,0.288  c14.874,0,22.82-6.425,30.067-14.649c-0.695,6.285-0.909,11.512-0.969,14.663c-0.013,0.69,0.933,0.889,1.203,0.253  c4.197-9.893,18.941-41.186,39.054-45.273c25.133-5.106,47.696,12.676,53.7,17.929c0.47,0.411,1.186-0.033,1.018-0.635  c-1.456-5.188-5.977-19.248-14.962-31.015c11.426-1.307,27.542-4.283,43.656-4.283s32.23,2.975,43.657,4.283  c-8.985,11.767-13.506,25.827-14.962,31.015c-0.169,0.601,0.548,1.046,1.018,0.635c6.003-5.253,28.566-23.035,53.7-17.929  c20.112,4.086,34.857,35.38,39.054,45.273c0.27,0.636,1.216,0.437,1.203-0.253c-0.06-3.151-0.273-8.378-0.969-14.663  c7.247,8.224,15.193,14.649,30.067,14.649c1.776,0,3.656-0.097,5.64-0.288c3.736,19.862,3.878,48.472-18.52,67.966  c-18.34,15.962-26.711,29.178-26.344,41.591c0.269,9.087,5.239,17.237,15.193,24.916c3.11,2.399,8.749,4.324,15.282,4.324  c0.83,0,1.679-0.042,2.535-0.107C388.475,407.092,387.981,414.047,387.216,421.06z M441.961,446.466  c-14.504,16.551-32.014,25.327-52.079,26.179c7.23-25.96,11.338-52.149,11.617-76.077c0.788-0.414,1.573-0.862,2.351-1.355  c6.692-4.245,13.24-11.708,17.581-24.596c8.515-3.54,17.258-3.742,22.255-3.455c1.16,0.067,1.665-1.458,0.683-2.08  c-7.616-4.826-15-5.688-20.065-5.503c1.093-5.633,1.839-12.027,2.143-19.281l0.012-0.003c0.202-0.046,21.302-4.812,34.391,3.684  c5.209,3.382,8.396,8.41,9.744,15.372C474.211,378.048,466.275,418.724,441.961,446.466z"></path>
<path id="_x23_E4232A" fill="#E4232A" d="M205.981,546.465c9.343,17.324,21.496,26.108,36.126,26.108  c14.631,0,26.786-8.784,36.126-26.108c-5.721-6.655-20.149-21.324-36.126-21.324C226.13,525.142,211.701,539.811,205.981,546.465z"></path>
<g id="_x3C_Group_x3E__-__x23_8B5035">
	<path id="_x23_8B5035_00000098941783436445039270000001132256442967257488_" fill="#8B5035" d="M93.835,339.156   c-10.58-9.208-17.875-20.82-21.715-34.36c-2.246,19.053-2.409,35.184-0.475,48.21c2.298,15.469,7.629,26.303,15.417,31.333   c8.294,5.357,16.933,2.758,18.511,1.58c6.825-5.265,10.075-10.089,10.226-15.181C116.037,362.673,108.648,352.048,93.835,339.156z"></path>
	<path id="_x23_8B5035" fill="#8B5035" d="M412.094,304.795c-3.84,13.541-11.135,25.152-21.715,34.36   c-14.813,12.892-22.202,23.518-21.964,31.581c0.151,5.091,3.401,9.916,10.226,15.181c1.578,1.178,10.217,3.777,18.511-1.58   c7.788-5.03,13.119-15.864,15.417-31.333C414.503,339.979,414.34,323.848,412.094,304.795z"></path>
</g>
<path id="_x23_27A8E0" fill="#27A8E0" d="M204.898,272.453c2.021,4.152,3.697,8.762,4.971,13.712  c-2.993-2.777-6.486-4.376-10.221-4.376c-11.06,0-20.026,13.987-20.026,31.24c0,10.19,3.129,19.238,7.968,24.94  c-3.622,2.22-7.019,4.65-10.141,7.282c-7.037-7.653-11.592-19.767-11.592-33.383c0-23.09,13.094-41.876,29.189-41.876  C198.503,269.992,201.819,270.864,204.898,272.453z M289.168,269.992c-3.456,0-6.772,0.872-9.852,2.461  c-2.021,4.152-3.697,8.762-4.97,13.712c2.992-2.777,6.486-4.376,10.221-4.376c11.06,0,20.026,13.987,20.026,31.24  c0,10.19-3.129,19.238-7.968,24.94c3.622,2.22,7.019,4.65,10.141,7.282c7.037-7.653,11.592-19.767,11.592-33.383  C318.357,288.778,305.263,269.992,289.168,269.992z"></path>
<path id="_x23_FDD2B2" fill="#FDD2B2" d="M441.961,446.466c-14.504,16.551-32.014,25.327-52.079,26.179  c7.23-25.96,11.338-52.149,11.617-76.077c0.788-0.414,1.573-0.862,2.351-1.355c6.692-4.245,13.24-11.708,17.581-24.596  c8.515-3.54,17.258-3.742,22.255-3.455c1.16,0.067,1.665-1.458,0.683-2.08c-7.616-4.826-15-5.688-20.065-5.503  c1.093-5.633,1.839-12.027,2.143-19.281l0.012-0.003c0.202-0.046,21.302-4.812,34.391,3.684c5.209,3.382,8.396,8.41,9.744,15.372  C474.211,378.048,466.275,418.724,441.961,446.466z M80.364,395.213c-6.692-4.245-13.24-11.708-17.581-24.596  c-8.515-3.54-17.258-3.742-22.255-3.455c-1.16,0.067-1.665-1.458-0.683-2.08c7.616-4.826,15-5.688,20.065-5.503  c-1.093-5.633-1.838-12.027-2.143-19.281l-0.011-0.003c-0.202-0.046-21.302-4.812-34.391,3.684  c-5.209,3.382-8.396,8.41-9.744,15.372c-3.619,18.697,4.318,59.373,28.631,87.115c14.504,16.551,32.014,25.327,52.079,26.179  c-7.23-25.96-11.337-52.149-11.617-76.077C81.927,396.153,81.142,395.706,80.364,395.213z M297.944,510.049  c-4.416,22.721-18.091,69.49-55.837,69.49c-37.746,0-51.42-46.769-55.837-69.49c-20.763,7.235-44.683,9.499-66.939-2.896  c26.647,64.804,73.358,117.743,122.776,117.743c49.417,0,96.129-52.939,122.775-117.743  C342.626,519.548,318.707,517.284,297.944,510.049z M218.456,494.212h47.302c-14.444-9.127-23.651-17.662-23.651-17.662  S232.9,485.086,218.456,494.212z M309.764,419.795c6.714-8.568,10.583-18.527,10.583-29.153c0-6.017-1.238-11.823-3.529-17.283  c-1.053-2.511-2.339-4.944-3.821-7.295c-2.475-3.927-5.528-7.609-9.07-10.994c-1.439-1.375-2.956-2.702-4.552-3.974  c-3.397-2.708-7.135-5.17-11.166-7.352c-3.598-1.947-7.42-3.675-11.444-5.144c-3.033-1.107-6.182-2.06-9.42-2.867  c-7.691-1.918-16.696-2.972-25.239-2.972s-17.548,1.054-25.239,2.972c-3.238,0.807-6.387,1.76-9.42,2.867  c-4.024,1.469-7.846,3.197-11.444,5.144c-4.031,2.181-7.769,4.644-11.166,7.352c-1.596,1.272-3.113,2.598-4.551,3.974  c-3.541,3.386-6.594,7.067-9.07,10.994c-1.482,2.351-2.768,4.785-3.821,7.295c-2.291,5.46-3.529,11.265-3.529,17.283  c0,10.626,3.869,20.585,10.583,29.153c13.452,17.166,39.17,28.728,67.656,28.728C270.593,448.523,296.311,436.961,309.764,419.795z   M370.844,396.031c-9.954-7.679-14.924-15.829-15.193-24.916c-0.367-12.413,8.004-25.628,26.344-41.591  c22.398-19.494,22.255-48.104,18.52-67.966c-1.983,0.191-3.864,0.288-5.64,0.288c-14.874,0-22.82-6.425-30.067-14.649  c0.696,6.285,0.909,11.512,0.969,14.663c0.013,0.69-0.933,0.889-1.203,0.253c-4.197-9.893-18.942-41.186-39.054-45.273  c-25.133-5.106-47.696,12.676-53.7,17.929c-0.47,0.411-1.186-0.033-1.018-0.635c1.456-5.188,5.977-19.248,14.962-31.015  c-11.427-1.307-27.542-4.283-43.657-4.283s-32.23,2.975-43.656,4.283c8.984,11.767,13.506,25.827,14.962,31.015  c0.169,0.601-0.548,1.046-1.018,0.635c-6.003-5.253-28.566-23.035-53.7-17.929c-20.113,4.086-34.857,35.38-39.054,45.273  c-0.27,0.636-1.216,0.437-1.203-0.253c0.059-3.151,0.273-8.378,0.969-14.663c-7.247,8.224-15.193,14.649-30.067,14.649  c-1.776,0-3.657-0.097-5.64-0.288c-3.736,19.862-3.878,48.472,18.52,67.966c18.34,15.962,26.711,29.178,26.344,41.591  c-0.269,9.087-5.239,17.237-15.193,24.916c-3.11,2.399-8.749,4.324-15.282,4.324c-0.83,0-1.679-0.042-2.535-0.107  c0.185,6.845,0.68,13.8,1.445,20.813c3.812-5.248,9.333-11.697,15.458-15.159c0,0,15.242,28.128,52.917,17.146  c-6.869-9.615-10.792-20.66-10.792-32.405c0-7.466,1.605-14.642,4.521-21.356c-15.486-10.286-26.33-33.65-26.33-60.776  c0-36.601,19.734-66.379,43.991-66.379c15.03,0,28.318,11.439,36.256,28.844c2.176,4.772,3.947,9.992,5.243,15.55  c1.607,6.885,2.49,14.281,2.49,21.985c0,5.944-0.543,11.694-1.521,17.177c7.055-1.44,15.246-2.214,22.876-2.214  c7.63,0,15.821,0.774,22.876,2.214c-0.977-5.484-1.521-11.233-1.521-17.177c0-7.704,0.884-15.099,2.49-21.985  c1.297-5.557,3.067-10.778,5.243-15.55c7.938-17.405,21.226-28.844,36.256-28.844c24.257,0,43.991,29.778,43.991,66.379  c0,27.126-10.844,50.489-26.33,60.776c2.916,6.714,4.521,13.891,4.521,21.356c0,11.745-3.923,22.79-10.792,32.405  c37.675,10.982,52.917-17.146,52.917-17.146c6.125,3.462,11.646,9.911,15.458,15.159c0.765-7.013,1.26-13.968,1.445-20.813  c-0.856,0.065-1.704,0.107-2.535,0.107C379.592,400.355,373.953,398.43,370.844,396.031z"></path>
<g id="_x3C_Group_x3E__-__x23_F2F2F3">
	<path id="_x23_F2F2F3_00000176739723556728619040000015250392603266041514_" fill="#F2F2F3" d="M206.449,501.178   c-2.549,1.348-5.197,2.66-7.926,3.914v8.432c0,0.97,0.68,1.794,1.654,2.002c5.248,1.121,19.837,3.728,41.93,3.728   c22.09,0,36.682-2.607,41.931-3.728c0.974-0.208,1.654-1.032,1.654-2.002v-8.432c-2.729-1.255-5.377-2.567-7.927-3.915H206.449z"></path>
	<path id="_x23_F2F2F3_00000016047592793254516830000010581991320632453250_" fill="#F2F2F3" d="M199.648,320.409   c-3.846,0-6.963-4.863-6.963-10.863c0-5.999,3.117-10.863,6.963-10.863s6.963,4.863,6.963,10.863   C206.611,315.545,203.494,320.409,199.648,320.409z M195.046,264.188c1.817,0,3.602,0.19,5.345,0.556   c-6.316-9.008-14.583-14.487-23.629-14.487c-19.776,0-35.864,26.132-35.864,58.253c0,24.074,9.038,44.783,21.892,53.648   c2.837-4.672,6.355-9.046,10.445-13.058c-8.026-8.74-13.181-22.175-13.181-37.232C160.053,285.577,175.751,264.188,195.046,264.188   z"></path>
	<path id="_x23_F2F2F3_00000128450646897871605630000001522355003764026537_" fill="#F2F2F3" d="M291.529,309.546   c0,5.999-3.117,10.863-6.963,10.863s-6.963-4.863-6.963-10.863c0-5.999,3.117-10.863,6.963-10.863S291.529,303.547,291.529,309.546   z M307.452,250.257c-9.045,0-17.313,5.479-23.629,14.487c1.743-0.366,3.528-0.556,5.345-0.556c19.295,0,34.994,21.389,34.994,47.68   c0,15.057-5.156,28.492-13.181,37.232c4.09,4.011,7.607,8.385,10.445,13.058c12.854-8.865,21.892-29.575,21.892-53.648   C343.316,276.389,327.228,250.257,307.452,250.257z"></path>
	<path id="_x23_F2F2F3" fill="#F2F2F3" d="M209.128,139.138V52.897l33.544,4.986l-2.168,44.067l30.331-8.953l4.139,36.343   l-32.277,7.264c21.67,0.056,40.85,3.191,57.77,8.37c10.87-24.784,10.517-48.741-1.195-68.159   c-12.522-20.758-37.153-33.654-64.284-33.654c-27.13,0-51.762,12.895-64.284,33.654c-12.382,20.529-12.07,46.129,0.779,72.418   C182.859,144.81,195.382,141.321,209.128,139.138z"></path>
</g>
<path id="_x23_1EAA4A" fill="#1EAA4A" d="M393.863,238.796c0.066,0.148,1.752,4.019,3.608,10.235  c-13.956,0.911-18.956-5.146-27.504-15.528c-2.967-3.603-6.25-7.583-10.286-11.662c-5.359-17.042-15.392-33.306-34.162-36.346  c-11.436-1.852-20.74,1.078-28.23,6.315c-14.214-2.451-34.698-5.998-55.182-5.998s-40.968,3.547-55.182,5.998  c-7.49-5.237-16.794-8.167-28.23-6.315c-18.771,3.04-28.803,19.304-34.162,36.346c-4.036,4.079-7.319,8.059-10.286,11.662  c-8.548,10.382-13.548,16.438-27.504,15.528c1.856-6.216,3.542-10.087,3.608-10.235l-0.051-0.023  c17.795-33.109,46.305-62.835,87.313-78.259c4.905-1.845,10.005-3.467,15.271-4.884c14.928-4.017,31.3-6.262,49.223-6.262  c16.153,0,31.044,1.825,44.759,5.121c4.855,1.167,9.572,2.507,14.131,4.034c44.028,14.751,74.323,45.652,92.918,80.249  L393.863,238.796z M214.932,59.628v77.997l53.561-13.36l-2.577-23.764l-31.612,9.331l2.31-46.981L214.932,59.628z M442.801,172.878  C407.035,93.315,326.093,12.77,242.107,12.77S77.18,93.315,41.413,172.878c-28.292,62.938-28.71,119.942-1.357,153.415  c4.877-0.284,9.382-0.038,12.93,0.343c1.261-31.586,10.448-64.424,25.704-93.041c0.002-0.004,0.008-0.019,0.01-0.022l0.001,0.001  c5.128-9.617,10.941-18.758,17.37-27.214c14.399-18.936,36.389-40.033,67.89-54.018c-13.885-28.691-14.006-56.86-0.215-79.724  c13.983-23.182,41.282-37.583,71.242-37.583s57.259,14.401,71.242,37.583c13.022,21.589,13.646,47.909,1.985,74.931  c38.016,13.583,63.763,37.552,79.928,58.811c6.429,8.455,12.242,17.596,17.37,27.214l0.001-0.001  c0.001,0.003,0.008,0.018,0.01,0.022c15.256,28.617,24.442,61.455,25.704,93.041c3.548-0.381,8.053-0.627,12.93-0.343  C471.511,292.82,471.094,235.816,442.801,172.878z"></path>
<g>
</g>
<g>
</g>
<g>
</g>
<g>
</g>
<g>
</g>
</svg>
