<?xml version="1.0" encoding="UTF-8"?>
<!-- Generator: Adobe Illustrator 26.1.0, SVG Export Plug-In . SVG Version: 6.00 Build 0)  -->
<svg xmlns="http://www.w3.org/2000/svg" xmlns:xlink="http://www.w3.org/1999/xlink" version="1.1" id="Layer_1" x="0px" y="0px" width="620.815px" height="602.286px" viewBox="0 0 620.815 602.286" xml:space="preserve">
<path id="_x23_191919" fill="#191919" d="M477.931,423.027c-1.099-1.471-3.244-1.543-4.469-0.175  c-37.483,41.86-87.596,71.012-163.055,71.012c-75.458,0-125.571-29.153-163.054-71.012c-1.225-1.368-3.37-1.295-4.469,0.175  c-10.726,14.354-55.634,81.663-4.093,141.167c51.39,59.329,134.667,38.258,169.851,11.131c1.055-0.813,2.476-0.813,3.531,0  c35.184,27.127,118.461,48.198,169.851-11.131C533.566,504.69,488.657,437.382,477.931,423.027z"></path>
<path id="_x23_30AA51" fill="#30AA51" d="M522.323,338.28c0.893,1.023,0.621,2.614-0.553,3.295  c-24.734,14.345-43.287,14.08-71.449,4.947c-29.002-9.406-94.844-36.056-139.914-36.056c-45.07,0-110.912,26.65-139.914,36.056  c-28.161,9.133-46.715,9.398-71.449-4.947c-1.174-0.681-1.445-2.273-0.553-3.295c12.251-14.044,90.84-98.359,211.916-98.359  C431.484,239.921,510.073,324.236,522.323,338.28z M355.785,186.503l-55.215,4.601l-0.92-89.264h-29.448v115.951h85.583V186.503z   M559.274,144.294C437.879,4.11,328.806-0.18,312.504,0.005c-1.398,0.016-2.796,0.016-4.193,0  C292.009-0.18,182.937,4.11,61.541,144.294c-123.664,142.803-24.714,212.746-12.88,220.344c0.62,0.398,1.437,0.24,1.865-0.36  c8.078-11.347,81.707-110.759,199.966-137.903c-15.206-15.283-24.607-36.348-24.607-59.61c0-46.681,37.842-84.523,84.523-84.523  c46.681,0,84.524,37.842,84.524,84.523c0,23.263-9.401,44.327-24.607,59.61C488.583,253.518,562.212,352.93,570.29,364.277  c0.427,0.601,1.244,0.758,1.865,0.36C583.989,357.039,682.939,287.097,559.274,144.294z"></path>
<g>
</g>
<g>
</g>
<g>
</g>
<g>
</g>
<g>
</g>
</svg>
