<?xml version="1.0" encoding="UTF-8"?>
<!-- Generator: Adobe Illustrator 26.1.0, SVG Export Plug-In . SVG Version: 6.00 Build 0)  -->
<svg xmlns="http://www.w3.org/2000/svg" xmlns:xlink="http://www.w3.org/1999/xlink" version="1.1" id="Layer_1" x="0px" y="0px" width="636px" height="636px" viewBox="0 0 636 636" xml:space="preserve">
<path id="_x23_191919" fill="#191919" d="M318,0C142.373,0,0,142.373,0,318s142.373,318,318,318s318-142.373,318-318  S493.627,0,318,0z M318,614.973C153.987,614.973,21.027,482.013,21.027,318S153.987,21.027,318,21.027S614.973,153.987,614.973,318  S482.013,614.973,318,614.973z"></path>
<path id="_x23_F2F2F3" fill="#F2F2F3" d="M318,21.027C153.987,21.027,21.027,153.987,21.027,318S153.987,614.973,318,614.973  S614.973,482.013,614.973,318S482.013,21.027,318,21.027z M482.205,469.52l-76.908-218.216L318,356.128l-87.296-104.824  L153.795,469.52l-90.667-75.775L203.014,98.077L318,227.358L432.986,98.077l139.886,295.668L482.205,469.52z"></path>
<polygon id="_x23_EC2227" fill="#EC2227" points="432.986,98.077 318,227.358 203.014,98.077 63.128,393.745 153.795,469.52   230.704,251.304 318,356.128 405.296,251.304 482.205,469.52 572.872,393.745 "></polygon>
<g>
</g>
<g>
</g>
<g>
</g>
<g>
</g>
<g>
</g>
</svg>
