<?xml version="1.0" encoding="UTF-8"?>
<!-- Generator: Adobe Illustrator 26.1.0, SVG Export Plug-In . SVG Version: 6.00 Build 0)  -->
<svg xmlns="http://www.w3.org/2000/svg" xmlns:xlink="http://www.w3.org/1999/xlink" version="1.1" id="Layer_1" x="0px" y="0px" width="518.841px" height="641.536px" viewBox="0 0 518.841 641.536" xml:space="preserve">
<path id="_x23_191919_00000018926352386663285190000008345186906263421628_" fill="#191919" d="M511.635,301.474l0.05-0.056  c7.894-8.904,9.33-21.317,3.943-34.056c-7.12-16.838-27.133-34.339-51.61-35.211c-14.691-0.528-28.353,2.196-40.583,8.098  l-0.054,0.025l-0.056-0.02c-3.998-1.457-18.08-5.687-31.424,1.106c-2.286,1.164-4.49,2.648-6.55,4.412l-0.053,0.046l-0.069-0.015  c-1.363-0.289-13.884-2.757-33.421-0.542l-0.248,0.028l0.104-0.227c1.505-3.315,2.482-6.736,2.899-10.169  c0.072-0.597,0.126-1.178,0.175-1.723l0.008-0.093l0.09-0.029c7.276-2.361,31.456-11.814,37.086-34.331  c7.585-30.336-24.06-45.706-30.482-48.478l-0.092-0.04l0.007-0.1c2.352-33.279-3.948-64.764-18.221-91.05  c-15.991-29.451-41.278-50.133-69.376-56.745c-29.616-6.965-50.775,3.19-63.311,12.938c-10.777,8.38-17.096,17.746-19.313,21.385  l-0.058,0.095l-0.105-0.033c-18.915-5.943-36.708-6.344-48.814-1.098c-5.166,2.24-9.271,5.496-12.198,9.679l-0.101,0.144l-0.12-0.13  c-11.237-12.211-25.529-19.57-41.334-21.284c-14.991-1.625-31.346,1.886-46.043,9.891C15.749,48.387-8.045,79.659,2.598,114.059  c8.075,26.101,23.862,37.696,35.684,42.826l0.075,0.033L38.367,157c1.436,13.04,6.498,21.961,15.044,26.515  c3.582,1.908,7.811,3.036,12.569,3.354l0.082,0.006l0.036,0.075c17.261,36.259,36.03,66.661,64.786,104.936l0.071,0.094  l-0.079,0.087c-4.655,5.131-8.713,10.461-12.061,15.842l-0.039,0.041c-4.73,3.362-8.565,8.93-10.799,15.679  c-2.46,7.429-2.481,14.962-0.058,20.668l0.011,0.044c0.107,1.317,0.28,2.577,0.511,3.745c0.729,3.678,2.036,6.731,3.881,9.072  l0.031,0.039l-0.001,0.051c-0.206,10.775,2.195,25.283,6.59,39.804l0.093,0.309l-0.291-0.141c-4.675-2.259-9.635-4.05-14.743-5.326  c-22.758-5.678-47.589,0.697-64.808,16.638c-13.339,12.346-19.992,28.806-17.801,44.03c0.049,0.344-0.128,1.893-0.29,2.3  c-3.103,7.84-1.397,18.113-0.104,23.539c2.041,10.714,9.11,20.479,21.011,29.032l2.32,1.668  c29.072,20.893,36.885,26.508,42.362,34.266c3.771,5.341,21.889,21.252,43.859,22.513c0.931,0.054,1.874,0.081,2.804,0.081  c13.949,0,26.551-6.108,37.459-18.155l0.047-0.034c3.523-1.62,21.29-10.56,25.058-27.516c0.225-1.012,0.383-2.071,0.48-3.237  l0.007-0.074l0.064-0.037c15.615-8.962,15.999-26.581,15.438-33.74c-0.186-2.394,0.573-4.721,2.141-6.552  c0.199-0.234,0.395-0.477,0.59-0.719l0.158-0.196l0.109,0.148c6.321,8.605,29.124,38.454,57.175,61.295  c0.924,0.753,1.495,1.792,1.607,2.926c0.522,5.263,2.454,15.036,9.526,21.341l0.06,0.053l-0.014,0.079  c-7.566,39.817,9.893,64.499,28.755,74.321c7.126,3.712,14.948,5.673,22.619,5.672c5.964-0.001,11.698-1.151,17.045-3.421  l0.037-0.01c21.623-2.942,45.085-18.349,48.753-46.137c2.521-19.073-2.177-33.208-5.203-39.936  c-0.395-0.877-0.165-1.906,0.549-2.446c3.67-2.778,7.966-8.874,7.586-22.13c-0.322-11.305-3.546-19.884-9.579-25.499  c-6.037-5.616-13.065-6.51-15.806-6.634l-0.056-0.003l-0.04-0.042c-7.682-8.094-20.213-11.444-23.87-12.278l-0.059-0.013  l-0.031-0.051c-3.212-5.247-8.735-7.781-11.74-8.825c-2.37-0.824-4.387-2.263-5.832-4.162l-20.861-27.395l0.065-0.086  c20.4-27.051,14.112-64.046,9.968-76.017c-2.795-8.076-4.84-17.562-6.076-28.192l-0.01-0.081l0.149-0.112l-0.19-0.251l-0.004-0.039  c-0.901-7.936-1.1-14.297-1.138-17.383l-0.001-0.103l0.099-0.033c25.558-8.466,47.442-4.786,53.539-3.456l0.058,0.012l0.032,0.05  c0.572,0.896,1.081,1.61,1.601,2.246c4.688,5.742,10.581,7.274,13.677,7.676l0.099,0.013l0.021,0.098  c1.426,6.615,3.756,12.484,6.925,17.443c5.972,9.343,14.861,14.765,25.706,15.682c1.764,0.149,3.48,0.225,5.101,0.225  c8.178-0.001,14.622-1.896,19.151-5.633l0.085-0.071l0.09,0.066c2.715,2.027,8.749,5.428,18.64,5.428  c4.247,0,8.798-0.639,13.525-1.899c9.722-2.593,16.183-7.535,19.205-14.69c1.013-2.396,1.631-5.048,1.836-7.882l0.006-0.072  l0.062-0.038c8.279-5.124,13.209-11.803,14.651-19.851c0.779-4.351,0.53-9.081-0.742-14.056L511.635,301.474z M155.171,122.182  l-0.042,0.095c-1.67,3.741-2.882,6.918-3.605,8.925l-0.045,0.128l-0.131-0.042c-1.814-0.577-3.607-1.042-5.33-1.381  c-2.217-0.436-4.437-0.698-6.596-0.781l-0.266-0.01l0.157-0.215c2.15-2.942,5.135-7.954,7.144-15.131l0.07-0.249l0.172,0.192  c3.695,4.112,6.845,7.027,8.395,8.399L155.171,122.182z"></path>
<path id="_x23_191919" fill="#191919" d="M237.592,345.317c-0.002-0.011,0-0.027,0.021-0.038  c10.669-5.707,9.441-18.193,8.811-21.884c-0.017-0.097,0.056-0.136,0.079-0.146c0.01-0.004,0.031-0.012,0.056-0.012  c0.032,0,0.071,0.012,0.104,0.055c1.677,2.242,5.335,8.087,3.066,13.946C246.434,345.742,239.626,345.587,237.592,345.317z   M217.222,332.562c0-11.819,9.616-21.435,21.436-21.435c11.819,0,21.435,9.616,21.435,21.435c0,11.82-9.616,21.436-21.435,21.436  C226.838,353.998,217.222,344.382,217.222,332.562z M221.473,332.562c0,9.476,7.709,17.185,17.185,17.185  c9.475,0,17.184-7.709,17.184-17.185c0-9.475-7.709-17.185-17.184-17.185C229.181,315.377,221.473,323.087,221.473,332.562z   M120.629,343.668c1.99-0.435,6.917-2.304,9.686-10.251c2.795-8.028,0.385-14.335-0.781-16.674c-0.022-0.046-0.06-0.055-0.085-0.055  c-0.012,0-0.021,0.002-0.027,0.003c-0.018,0.004-0.078,0.024-0.076,0.099c0.043,3.828-0.468,17.062-8.871,26.606  c-0.062,0.07-0.052,0.149-0.023,0.199C120.465,343.618,120.507,343.696,120.629,343.668z M462.5,247.665l-0.042-0.131  c-0.466-1.411-1.541-2.496-2.957-2.994c-0.544-0.192-1.114-0.286-1.683-0.286c-0.974,0-1.944,0.277-2.773,0.815  c-3.38,2.193-7.871,5.465-10.074,8.596c-0.157,0.224-0.173,0.5-0.039,0.739c0.125,0.226,0.349,0.358,0.603,0.358  c0.014,0,0.029-0.001,0.044-0.002l12.404-0.709c1.563-0.089,2.972-0.881,3.864-2.173c0.863-1.249,1.1-2.784,0.651-4.212V247.665z   M446.909,291.905c-2.111-1.877-4.898-3.651-7.358-5.215c-2.066-1.315-4.017-2.557-5.241-3.652  c-0.036-0.033-0.076-0.045-0.112-0.045c-0.036,0-0.07,0.012-0.095,0.029c-0.025,0.017-0.103,0.08-0.063,0.193  c0.433,1.224,0.8,2.467,1.189,3.784c1.043,3.535,2.225,7.542,5.096,12.159c0.638,1.025,1.684,1.722,2.946,1.962  c1.402,0.267,2.864-0.061,3.999-0.904l0.071-0.054c1.137-0.858,1.767-2.041,1.822-3.422  C449.23,295.028,448.389,293.221,446.909,291.905z M458.999,267.945c-1.022-0.893-2.343-1.387-3.682-1.387  c-0.144,0-0.289,0.006-0.434,0.017l-13.891,1.12c-0.153,0.013-0.28,0.104-0.34,0.245c-0.06,0.141-0.038,0.295,0.06,0.413  c2.898,3.522,8.901,6.771,12.221,8.394c1.442,0.706,3.123,0.761,4.607,0.153c1.396-0.574,2.433-1.654,2.918-3.042  c0.258-0.739,0.366-1.525,0.322-2.336C460.706,270.154,460.074,268.884,458.999,267.945z M297.438,245.604  c0.006,0.027,0.039,0.035,0.051,0.039c0.018-0.001,0.046-0.008,0.052-0.048c0.319-2.488,1.711-8.613,7.741-11.723  c7.434-3.833,13.639,4.797,14.806,6.567c0.014,0.023,0.042,0.022,0.054,0.02c0.012-0.003,0.04-0.012,0.045-0.044  c1.415-7.41-7.635-11.989-7.726-12.035l-0.262-0.13l0.266-0.125c8.28-3.891,18.115,1.766,20.931,3.593  c0.029,0.02,0.052,0.008,0.066-0.006c0.013-0.014,0.025-0.037,0.006-0.068c-2.025-3.049-8.279-11.167-17.376-11.167  c-2.516,0-5.248,0.62-8.169,2.14C294.885,229.403,296.601,241.927,297.438,245.604L297.438,245.604z M261.412,140.839  c1.165,5.423,0.699,11.981-1.314,18.467c-0.94,3.09-2.222,6.143-3.81,9.073c-0.563,1.042-1.209,2.119-2.032,3.39  c-1.453,2.239-3.012,4.282-4.636,6.072c-4.641,5.183-10.126,8.898-15.444,10.461c-1.915,0.563-3.771,0.845-5.55,0.845  c-1.259,0-2.48-0.141-3.657-0.424c-1.208-0.291-2.367-0.734-3.442-1.317c-5.137-2.784-8.243-8.494-8.746-16.079  c-0.49-7.376,1.549-15.7,5.743-23.436c4.19-7.734,10.048-13.988,16.497-17.607c3.808-2.137,7.532-3.221,11.07-3.221  c2.596,0,5.01,0.595,7.176,1.768C257.388,131.064,260.204,135.218,261.412,140.839z M250.756,162.182  c-0.031-1.281-0.471-2.215-1.237-2.631c-0.293-0.159-0.622-0.237-0.976-0.237c-0.59,0-1.251,0.219-1.937,0.65  c-1.117,0.701-2.16,1.875-2.937,3.309c-1.59,2.937-1.555,6.046,0.078,6.931c0.771,0.42,1.828,0.269,2.913-0.413  c1.117-0.701,2.159-1.876,2.935-3.308C250.376,165.041,250.788,163.514,250.756,162.182z M251.481,145.159  c-0.546-0.296-1.135-0.521-1.751-0.669c-0.614-0.147-1.255-0.221-1.919-0.221c-2.156,0-4.557,0.771-7.052,2.278  c-4.254,2.571-8.201,6.945-11.112,12.316c-2.91,5.373-4.419,11.068-4.25,16.034c0.162,4.729,1.829,8.188,4.693,9.741  c1.169,0.634,2.507,0.937,4.005,0.886c1.858-0.546,3.8-1.43,5.76-2.628c-1.775,0.428-3.399,0.276-4.733-0.447  c-2.275-1.232-3.564-3.954-3.627-7.663c-0.062-3.686,1.094-7.913,3.256-11.901c2.159-3.988,5.069-7.264,8.192-9.226  c3.138-1.972,6.121-2.381,8.4-1.146c3.43,1.859,4.504,7.125,2.883,13.264c0.393-1.049,0.73-2.088,1.009-3.109v0  C257.402,154.443,255.929,147.57,251.481,145.159z M252.175,131.984c-0.883-0.479-1.836-0.844-2.831-1.083  c-1.004-0.242-2.043-0.359-3.103-0.359c-8.469,0-18.381,7.491-24.641,19.042c-7.89,14.563-7.014,30.364,1.954,35.223  c0.89,0.482,1.884,0.849,2.962,1.092c-2.678-2.326-4.176-6.067-4.34-10.854c-0.188-5.534,1.469-11.827,4.663-17.72  c3.193-5.896,7.562-10.72,12.299-13.583c4.94-2.987,9.726-3.514,13.474-1.483c3.698,2.004,5.85,6.298,6.06,12.091  c0.001,0.042,0.028,0.07,0.067,0.074c0.036-0.003,0.062-0.006,0.073-0.056C260.87,143.893,258.328,135.316,252.175,131.984z   M511.654,301.547c1.272,4.975,1.521,9.705,0.742,14.056c-1.442,8.049-6.373,14.727-14.651,19.851l-0.062,0.038l-0.006,0.072  c-0.206,2.834-0.824,5.486-1.836,7.882c-3.022,7.155-9.483,12.097-19.205,14.69c-4.727,1.26-9.277,1.899-13.525,1.899  c-9.891,0.001-15.924-3.401-18.64-5.428l-0.09-0.066l-0.085,0.071c-4.53,3.738-10.973,5.633-19.151,5.633  c-1.621,0-3.336-0.076-5.101-0.225c-10.846-0.917-19.735-6.339-25.706-15.682c-3.169-4.959-5.499-10.828-6.925-17.443l-0.021-0.098  l-0.099-0.013c-3.096-0.402-8.99-1.934-13.677-7.676c-0.519-0.636-1.028-1.35-1.601-2.246l-0.032-0.05l-0.058-0.012  c-6.097-1.33-27.981-5.01-53.539,3.456l-0.099,0.033l0.001,0.103c0.038,3.086,0.237,9.447,1.138,17.383l0.004,0.039l0.19,0.251  l-0.149,0.112l0.01,0.081c1.236,10.63,3.281,20.115,6.076,28.192c4.144,11.972,10.432,48.966-9.968,76.017l-0.065,0.086  l20.861,27.395c1.446,1.899,3.462,3.339,5.832,4.162c3.005,1.044,8.528,3.578,11.74,8.825l0.031,0.051l0.059,0.013  c3.657,0.833,16.188,4.183,23.87,12.278l0.04,0.042l0.056,0.003c2.741,0.124,9.769,1.018,15.806,6.634  c6.034,5.614,9.257,14.194,9.579,25.499c0.38,13.257-3.916,19.352-7.586,22.13c-0.714,0.54-0.944,1.569-0.549,2.446  c3.025,6.728,7.723,20.864,5.203,39.936c-3.668,27.788-27.13,43.195-48.753,46.137l-0.037,0.01c-5.346,2.27-11.08,3.42-17.045,3.421  c-7.671,0.001-15.493-1.961-22.619-5.672c-18.862-9.822-36.321-34.504-28.755-74.321l0.014-0.079l-0.06-0.053  c-7.072-6.305-9.004-16.077-9.526-21.341c-0.112-1.134-0.683-2.173-1.607-2.926c-28.051-22.841-50.854-52.69-57.175-61.295  l-0.109-0.148l-0.158,0.196c-0.195,0.242-0.391,0.485-0.59,0.719c-1.567,1.831-2.327,4.158-2.141,6.552  c0.56,7.159,0.176,24.777-15.438,33.74l-0.064,0.037l-0.007,0.074c-0.097,1.167-0.256,2.225-0.48,3.237  c-3.768,16.956-21.534,25.896-25.058,27.516l-0.047,0.034c-10.908,12.047-23.51,18.155-37.459,18.155  c-0.93,0-1.873-0.027-2.804-0.081c-21.971-1.261-40.088-17.171-43.859-22.513c-5.476-7.757-13.29-13.373-42.362-34.266l-2.32-1.668  c-11.901-8.553-18.97-18.319-21.011-29.032C19.706,472.973,18,462.7,21.103,454.86c0.162-0.407,0.339-1.955,0.29-2.3  c-2.192-15.224,4.462-31.684,17.801-44.03c17.22-15.94,42.05-22.316,64.808-16.638c5.109,1.275,10.069,3.067,14.743,5.326  l0.291,0.141l-0.093-0.309c-4.395-14.521-6.796-29.029-6.59-39.804l0.001-0.051l-0.031-0.039c-1.845-2.341-3.151-5.394-3.881-9.072  c-0.231-1.168-0.404-2.428-0.511-3.745l-0.011-0.044c-2.423-5.706-2.402-13.238,0.058-20.668  c2.234-6.749,6.069-12.317,10.799-15.679l0.039-0.041c3.349-5.381,7.407-10.711,12.061-15.842l0.079-0.087l-0.071-0.094  c-28.756-38.275-47.525-68.677-64.786-104.936l-0.036-0.075l-0.082-0.006c-4.759-0.318-8.987-1.446-12.569-3.354  C44.865,178.961,39.803,170.04,38.367,157l-0.009-0.082l-0.075-0.033c-11.822-5.131-27.609-16.725-35.684-42.826  c-10.643-34.4,13.15-65.672,39.761-80.169c14.697-8.005,31.052-11.516,46.043-9.891c15.805,1.714,30.098,9.073,41.334,21.284  l0.12,0.13l0.101-0.144c2.928-4.183,7.032-7.439,12.198-9.679c12.106-5.246,29.898-4.846,48.814,1.098l0.105,0.033l0.058-0.095  c2.217-3.638,8.536-13.005,19.313-21.385c12.536-9.748,33.695-19.904,63.311-12.938c28.099,6.612,53.386,27.294,69.376,56.745  c14.273,26.287,20.574,57.771,18.221,91.05l-0.007,0.1l0.092,0.04c6.421,2.773,38.067,18.142,30.482,48.478  c-5.63,22.517-29.81,31.97-37.086,34.331l-0.09,0.029l-0.008,0.093c-0.049,0.545-0.103,1.126-0.175,1.723  c-0.417,3.433-1.394,6.854-2.899,10.169l-0.104,0.227l0.248-0.028c19.536-2.214,32.058,0.253,33.421,0.542l0.069,0.015l0.053-0.046  c2.06-1.763,4.264-3.248,6.55-4.412c13.344-6.793,27.426-2.563,31.424-1.106l0.056,0.02l0.054-0.025  c12.229-5.902,25.891-8.626,40.583-8.098c24.477,0.871,44.49,18.372,51.61,35.211c5.387,12.739,3.951,25.151-3.943,34.056  l-0.05,0.056L511.654,301.547z M195.223,38.117l0.167,0.06c3.786,1.357,7.554,2.926,11.201,4.665l0.116,0.055l0.066-0.111  c4.894-8.196,23.23-33.79,53.764-18.971c20.659,10.028,25.954,28.146,24.022,41.758c-1.554,10.949-7.833,19.805-16.383,23.113  l-0.199,0.078l0.148,0.153c28.121,29.097,43.103,65.077,45.802,109.993l0.01,0.17l0.166-0.04c0.483-0.118,0.93-0.207,1.367-0.271  c9.467-1.369,22.647,0.159,31.249,8.565c5.333,5.213,8.097,12.267,8.216,20.965l0.002,0.2l0.188-0.069  c8.269-3.027,28.006-12.082,32.671-30.746c2.754-11.015,0.151-21.004-7.738-29.69c-6.374-7.019-14.581-11.326-18.907-13.269  l-0.176-0.08l-0.022,0.193c-0.943,8.202-4.251,11.475-5.63,12.501c-0.069,0.054-0.14,0.023-0.166,0.007  c-0.045-0.028-0.089-0.085-0.076-0.165c13.919-85.219-30.915-148.651-82.3-160.742c-22.396-5.27-42.446-1.215-59.589,12.049  c-9.326,7.216-15.203,15.301-17.876,19.478L195.223,38.117z M212.173,344.615c3.917,14.979,15.675,20.362,25.374,20.405l0.114,0.001  c9.77,0,21.156-5.639,24.571-18.239c3.874-14.3,2.92-23.758,1.815-34.71c-0.954-9.457-2.035-20.177,0.382-35.408l0.038-0.236  l-0.225,0.081c-7.333,2.623-15.471,4.501-24.184,5.582c-2.349,0.291-4.627,0.892-6.772,1.788l-0.038,0.016l-0.023,0.032  C230.452,287.775,206.304,322.166,212.173,344.615z M214.843,306.983l0.041-0.089c3.568-7.763,7.66-14.591,10.465-18.95l0.25-0.389  l-0.425,0.182c-6.262,2.678-15.982,5.87-26.728,5.87c-1.784,0-3.568-0.088-5.3-0.261c-9.597-0.96-16.816-3.119-22.717-6.795  l-0.116-0.073l-0.076,0.113c-2.332,3.455-6.873,10.661-11.081,20.102l-0.093,0.209l0.229-0.009  c10.05-0.432,35.573-1.286,55.453,0.084L214.843,306.983z M276.703,265.847c1.833-1.214,4.129-1.463,6.14-0.665  c15.31,6.067,33.833,4.481,48.338-4.138c11.064-6.574,17.869-16.044,19.162-26.665c1.267-10.412-0.951-18.488-6.595-24.003  c-7.512-7.34-19.601-8.573-27.667-7.398c-5.794,0.841-12.931,7.288-19.837,13.527c-9.987,9.023-20.316,18.355-27.823,10.624  c-9.272-9.552-3.82-19.006-1.045-22.626c0.551-0.719,0.799-1.586,0.681-2.38c-1.973-13.099,8.487-14.728,18.603-16.304  c0.836-0.13,1.685-0.262,2.542-0.402c8.973-1.465,15.254-11.019,16.965-13.913l0.028-0.047l-0.01-0.053  c-0.459-2.311-0.966-4.629-1.507-6.891l-0.021-0.087l-0.087-0.019c-25.684-5.526-29.605-14.591-35.034-27.137  c-2.143-4.955-4.572-10.571-8.758-16.787l-0.032-0.048l-0.056-0.012c-0.816-0.168-1.727-0.42-2.736-0.753  c-14.694-1.656-31.129,4.946-34.273,6.286c-0.02,0.006-0.034,0.001-0.042-0.009c-0.014-0.016-0.006-0.03-0.002-0.035  c1.431-2.322,6.736-10.393,14.885-16.728l0.182-0.142l-0.209-0.099c-9.323-4.377-24.45-8.736-37.644-10.846l-0.18-0.029l0.018,0.182  c0.853,9.062-1.27,18.379-1.968,21.04c-0.012,0-0.029-0.005-0.034-0.03c-2.615-11.291-8.411-18.758-17.227-22.194l-0.039-0.015  l-0.041,0.008c-13.867,2.919-24.679,32.259-25.867,35.595l-0.045,0.127l0.125,0.052c0.374,0.153,2.686,1.15,3.268,1.43  c0.777-2.388,1.938-4.925,3.162-7.181c3.444-6.36,8.263-11.503,13.568-14.483c5.456-3.063,10.789-3.488,15.02-1.195  c6.759,3.664,9.072,13.975,5.625,25.076c-0.773,2.54-1.827,5.051-3.133,7.462c-0.465,0.857-0.996,1.743-1.671,2.788  c-1.193,1.839-2.478,3.516-3.811,4.995c-1.047,1.161-3.58,3.518-3.58,3.518c2.175,2.961,1.075,6.652,0.212,8.606  c-0.062,0.139-0.174,0.182-0.288,0.179c-0.123-0.007-0.219-0.082-0.257-0.201c-0.601-1.887-1.675-3.976-3.191-6.208  c-0.31-0.457-0.668-0.955-1.126-1.565l-0.203-0.266c-1.77-2.32-3.888-4.629-6.296-6.864c-1.542-1.431-3.179-2.808-4.865-4.092  c-0.685-0.521-1.422-1.058-2.193-1.596c-1.742-1.218-3.531-2.342-5.314-3.343c-0.789-0.443-1.635-0.891-2.516-1.332  c-4.292-2.149-8.599-3.658-12.801-4.483c-9.509-1.87-23.027-0.986-33.413,13.848c-6.44,9.196-8.001,18.943-4.514,28.188  c0.308,0.816,0.684,1.669,1.186,2.682c5.047,10.208,15.997,18.234,29.294,21.469c16.23,3.948,28.44,2.849,40.823-3.676  c3.128-1.648,6.405-3.698,10.018-6.265c0.107-0.076,0.224-0.055,0.293-0.011c0.089,0.054,0.132,0.147,0.115,0.249  c-0.268,1.759-1.328,6.066-5.376,8.069l-0.496,0.245l0.553,0.023c32.299,1.355,53.192-6.527,60.677-9.98  c0.582-0.269,1.253-0.277,1.841-0.022c0.58,0.251,1.026,0.738,1.224,1.334c2.722,8.194,2.36,14.648-1.075,19.182  c-5.865,7.743-18.856,7.235-18.978,7.226l-0.09-0.004l-0.042,0.079c-2.985,5.597-6.969,9.154-11.842,10.575l-0.116,0.034l0.016,0.12  c1.162,9.024,2.085,25.665-4.802,35.733c-3.023,4.418-7.233,7.1-12.514,7.971c-1.228,0.203-2.462,0.306-3.671,0.306  c-20.934,0.002-32.573-30.549-34.693-36.674l-0.029-0.084l-0.089-0.01c-1.211-0.142-2.42-0.308-3.593-0.493  c-0.866-0.137-1.619-0.609-2.122-1.329c-0.475-0.68-0.664-1.494-0.539-2.306c6.605,1.297,13.422,1.798,20.261,1.49l0.011-0.282  c-9.209-1.151-15.996-9.165-16.064-9.246l-0.093-0.112l-0.11,0.097c-4.853,4.309-9.605,6.034-14.125,5.137  c-7.933-1.579-12.505-10.829-12.55-10.923l-0.047-0.095l-0.104,0.017c-4.71,0.787-8.434,0.056-11.061-2.169  c-4.027-3.41-4.077-9.235-4.077-9.293v-0.133l-0.133-0.008c-1.09-0.07-2.14-0.206-3.118-0.404l-0.19-0.038l0.022,0.193  c1.525,13.6,6.138,25.12,14.101,35.22c6.805,8.63,14.903,14.702,21.412,19.582c4.005,3.004,7.465,5.597,9.685,8.135  c0.641,0.732,1.264,1.451,1.876,2.156c9.018,10.398,14.976,17.267,34.626,19.231c1.648,0.164,3.28,0.24,4.889,0.24  c13.064,0,24.628-5.006,30.732-8.239c3.211-1.7,6.691-2.791,10.345-3.244C260.644,275.255,272.559,268.591,276.703,265.847z   M169.83,235.29c-2.157,0-4.369-0.083-6.576-0.246l-0.22-0.017l0.078,0.208c0.266,0.703,0.558,1.448,0.869,2.217  c0.787,1.929,2.628,3.248,4.69,3.359c1.543,0.083,3.06,0.122,4.552,0.122c18.488-0.001,32.96-6.016,38.601-8.764  c0.468-0.228,0.749-0.734,0.698-1.261c-0.089-0.927-0.193-1.865-0.315-2.869l-0.017-0.136l-0.137,0.012  c-1.871,0.17-3.851,0.071-5.87-0.294l-0.044-0.008l-0.041,0.019C201.135,229.935,187.668,235.29,169.83,235.29z M180.843,231.415  c8.712-1.125,15.716-3.345,20.059-5.009l0.348-0.133l-0.349-0.131c-4.502-1.701-7.676-3.986-7.708-4.008l-0.108-0.079l-0.084,0.104  c-3.796,4.645-7.906,7.667-12.216,8.981L180.843,231.415z M181.269,263.205l-0.006,0.076l0.06,0.047  c4.211,3.317,8.614,4.999,13.09,5c0.003,0,0.007,0,0.01,0c1.005,0,2.031-0.085,3.051-0.253c4.47-0.738,7.887-2.914,10.446-6.652  c3.303-4.827,4.998-12.053,5.037-21.476l0.001-0.16l-0.159,0.019C205.791,240.618,182.807,244.711,181.269,263.205z   M139.422,129.126c2.16,0.083,4.379,0.346,6.596,0.781c1.722,0.339,3.516,0.804,5.33,1.381l0.131,0.042l0.045-0.128  c0.723-2.007,1.935-5.184,3.605-8.925l0.042-0.095l-0.077-0.069c-1.55-1.371-4.7-4.287-8.395-8.399l-0.172-0.192l-0.07,0.249  c-2.009,7.176-4.995,12.189-7.144,15.131l-0.157,0.215L139.422,129.126z M195.138,132.413c1.69-8.602-0.396-15.645-5.446-18.381  c-0.726-0.394-1.507-0.693-2.323-0.889c-7.416-1.78-17.002,4.674-22.787,15.349c-1.21,2.235-2.197,4.57-2.935,6.941  c1.844,0.994,3.667,2.087,5.421,3.25c0.53-1.344,1.131-2.637,1.787-3.845c2.626-4.85,6.22-8.817,10.117-11.173  c4.067-2.46,8.007-2.894,11.096-1.22c3.047,1.651,4.82,5.188,4.992,9.958l0.322,0.059L195.138,132.413z M191.494,141.445  c0.271-0.749,0.505-1.488,0.702-2.212c1.781-6.752,0.574-12.393-3.076-14.37c-0.449-0.244-0.931-0.428-1.435-0.548  c-2.138-0.516-4.682,0.068-7.362,1.688c-3.496,2.113-6.737,5.706-9.128,10.118c-0.704,1.303-1.33,2.691-1.859,4.128  c1.465,1.056,2.896,2.169,4.254,3.313c0.451-1.425,1.045-2.821,1.767-4.153c1.778-3.282,4.172-5.978,6.741-7.592  c2.589-1.625,5.048-1.96,6.925-0.942C191.785,132.37,192.696,136.543,191.494,141.445z M187.507,136.694  c-1.333-0.719-3.48,0.648-4.782,3.052c-1.28,2.365-1.254,4.962,0.055,5.672c0.231,0.125,0.493,0.188,0.777,0.188  c1.324,0,2.972-1.332,4.006-3.24C188.842,140.002,188.816,137.404,187.507,136.694z M270.75,207.087  c-3.191,4.165-5.658,10.509,0.722,17.081c1.013,1.045,2.181,1.524,3.51,1.524c4.348-0.001,10.423-5.122,18.415-12.344  c5.363-4.846,10.91-9.857,16.291-12.601l0.082-0.042l-0.004-0.092c-0.423-7.831-1.238-15.495-2.424-22.778l-0.053-0.328  l-0.199,0.266c-3.532,4.696-9.384,10.562-17.203,11.838c-0.866,0.142-1.726,0.276-2.573,0.407  c-11.074,1.725-16.34,2.933-15.054,11.471C272.549,203.416,271.999,205.456,270.75,207.087z M254.81,45.704l-1.466,29.434  c1.435,1.216,2.846,2.437,4.205,3.646l10.362-3.238l-5.348-39.136l-18.259,7.745l-2.798-13.677L217.572,48.8  c2.094,1.284,4.084,2.583,5.912,3.869c0.516,0.362,1.039,0.731,1.562,1.098l11.062-11.586l5.222,9.776L254.81,45.704z   M240.412,55.851l-4.813-8.168l-0.093-0.159l-7.784,7.93l-0.117,0.118l0.136,0.096c7.218,5.1,14.96,10.692,22.675,17.021  l0.217,0.178l1.157-22.65L240.412,55.851z M259.796,80.81c1.559,1.429,3.151,2.938,4.735,4.489l0.056,0.055l0.077-0.019  c8.053-1.976,14.21-9.968,15.686-20.36c1.721-12.128-3.067-28.306-21.669-37.336c-27.499-13.35-43.778,9.646-48.111,17.011  l-0.076,0.128l0.133,0.069c1.347,0.705,2.748,1.48,4.263,2.354l28.367-21.902l2.869,14.71l18.627-7.924l6.33,45.269L259.796,80.81z   M156.927,118.012l0.139,0.13l0.084-0.171c3.719-7.536,9.717-17.539,17.162-22.402l0.33-0.215l-0.392-0.044  c-2.904-0.329-5.251-0.179-6.393-0.061c-0.176,0.017-0.317-0.052-0.411-0.184c-0.095-0.133-0.11-0.301-0.04-0.451  c1.282-2.747,6.032-11.913,13.357-14.545c3.197-1.149,6.52-0.92,9.872,0.677c4.713,2.245,7.844,6.557,9.304,12.817l0.022,0.094  l0.095,0.014c15.172,2.261,32.67,7.438,42.552,12.587l0.071,0.037l0.069-0.042c1.275-0.779,2.613-1.494,3.978-2.124l0.178-0.082  l-0.135-0.143c-42.606-45.051-71.621-51.961-79.498-53.006c-0.159-0.021-0.219-0.14-0.222-0.244  c-0.002-0.102,0.051-0.232,0.213-0.263c3.746-0.717,16.017-0.143,28.111,6.252c17.11,9.048,35.879,24.431,55.788,45.722l0.059,0.064  l0.084-0.024c3.669-1.07,7.377-1.396,11.02-0.976c6.719,0.778,11.512,3.365,14.249,7.688c5.072,8.018,1.566,19.505,0.792,21.745  c-0.006,0.001-0.023,0.002-0.037-0.019c-2.48-3.92-5.928-6.878-10.25-8.791l-0.403-0.178l0.224,0.38  c2.926,4.975,4.846,9.415,6.541,13.333c5.163,11.934,8.279,19.137,29.814,24.174l0.231,0.054l-0.062-0.229  c-6.746-24.939-18.505-46.232-35.95-65.094c-15.053-16.276-31.724-28-46.432-38.342c-24.724-17.387-58.631-24.702-77.194-16.657  c-8.335,3.613-13.197,9.957-14.451,18.857C125.459,86.293,149.473,111.08,156.927,118.012z M68.817,182.734  c13.405-0.001,27.939-6.574,33.142-9.165l0.1-0.05l-0.024-0.109c-2.135-9.361,0.033-19.016,6.27-27.921  c6.597-9.422,15.021-14.84,25.036-16.105l0.05-0.006l0.034-0.036c1.636-1.687,7.169-8.096,9.686-19.733l0.014-0.066l-0.043-0.053  c-6.078-7.474-10.737-15.166-13.849-22.861c-1.948-4.817-3.518-10.887-4.199-16.237l-0.016-0.122l-0.123-0.002  c-8.313-0.135-23.981,4.16-31.713,12.585c-4.803,5.231-7.324,13.329-5.863,18.835c1.044,3.933,3.362,6.764,7.087,8.651  c5.775,2.928,14.202-0.228,19.78-2.315c0.187-0.07,0.337,0.032,0.403,0.144c0.064,0.11,0.084,0.284-0.072,0.415  c-4.464,3.772-11.842,7.87-21.616,5.982c-1.619-0.313-5.695-1.88-5.736-1.896l-0.068-0.026l-0.06,0.039  c-9.705,6.238-22.199,5.446-22.323,5.438l-0.095-0.007l-0.042,0.085c-2.466,5.006-6.808,8.129-12.557,9.031  c-6.974,1.099-12.612-0.017-16.752-3.316c-4.712-3.754-6.66-9.586-7.46-14.039c6.468,9.157,15.821,13.966,23.434,11.992  c6.592-1.716,10.43-8.061,10.529-17.41c0.081-7.732-3.057-14.84-9.329-21.125c-4.911-4.921-10.743-8.326-14.999-10.396  c7.972,0.806,15.281,4.747,20.652,11.155c6.974,8.32,10.176,19.778,8.159,29.188l-0.033,0.152l0.155,0.018  c0.041,0.004,4.151,0.472,9.431-1.098c6.035-1.794,8.146-4.074,8.233-4.17l0.063-0.07l-0.04-0.085  c-5.728-12.41,0.153-22.003,0.213-22.098l0.029-0.044l-0.008-0.053C81.884,69.992,66.081,60.556,56.377,56.19  c8.335,0.485,22.811,4.193,31.66,22.628l0.777,1.617l1.272-1.265c3.831-3.807,8.443-6.867,13.708-9.096l1.026-0.435l-0.293-1.075  c-3.73-13.659-15.612-20.984-22.873-24.283c7.072,0.64,19.424,4.554,28.414,22.558l0.456,0.916l0.994-0.247  c4.728-1.176,10.092-1.862,13.074-2.001l0.137-0.007l-0.002-0.137c-0.034-2.686,0.116-5.174,0.459-7.607  c0.418-2.97,1.228-5.779,2.404-8.35l0.039-0.084l-0.061-0.069c-25.053-28.381-60.464-24.003-83.174-11.63  c-25.14,13.696-47.673,43.064-37.736,75.18c6.003,19.399,17.033,32.801,32.783,39.833c12.578,5.617,24.56,5.411,29.131,5.06  c0.009-0.001,0.018-0.001,0.028-0.001c0.154,0,0.238,0.105,0.266,0.206c0.028,0.106,0.004,0.258-0.156,0.335  c-3.868,1.859-12.296,4.407-25.31,0.599c-0.064-0.019-0.128-0.042-0.194-0.065l-0.343-0.117l0.035,0.23  c1.577,10.27,5.785,17.293,12.505,20.877C59.418,181.901,64.046,182.734,68.817,182.734z M133.81,288.699l0.099,0.132l0.116-0.118  c5.922-6.083,12.762-11.935,20.329-17.393l0.126-0.091l-0.612-0.703c-1.925-2.199-5.215-4.667-9.037-7.534  c-13.68-10.257-34.353-25.758-37.381-59.991l-0.007-0.071l-0.061-0.037c-7.842-4.809-4.185-16.406-2.249-21.169l0.024-0.061  l-0.031-0.059c-0.687-1.288-1.277-2.568-1.754-3.806l-0.055-0.145l-0.139,0.069c-5.197,2.562-18.734,8.585-32.158,9.195l-0.214,0.01  l0.093,0.193C87.717,222.118,105.943,251.547,133.81,288.699z M117.265,348.222c0.747,0.247,1.522,0.366,2.314,0.366  c5.904,0,12.712-6.626,15.783-15.895c3.479-10.512,1.074-21.163-5.254-23.258c-0.737-0.244-1.519-0.368-2.322-0.368  c-1.909,0-4.004,0.723-6.056,2.09c-4.135,2.757-7.767,7.917-9.717,13.805c-2.163,6.534-2.111,13.532,0.136,18.262  C113.367,345.789,115.135,347.517,117.265,348.222z M114.005,351.699c1.424,3.141,3.544,5.169,5.973,5.709  c1.329,0.295,2.641,0.442,3.934,0.442c3.513,0,6.885-1.088,10.063-3.253c6.545-4.459,11.555-13.231,13.075-22.892  c3.552-22.559,15.984-42.123,19.71-47.582l0.074-0.109l-0.103-0.082c-3.541-2.823-6.571-6.186-9.37-9.388l-0.084-0.097l-0.105,0.075  c-13.045,9.348-23.54,19.498-31.192,30.166l-0.189,0.265l0.322-0.042c1.843-0.236,3.639-0.071,5.332,0.489  c4.251,1.407,7.411,5.121,8.901,10.457c1.494,5.355,1.157,11.809-0.951,18.173c-3.669,11.084-11.788,18.825-19.74,18.825  c-1.274,0-2.528-0.201-3.727-0.598c-0.558-0.184-1.124-0.427-1.728-0.742l-0.363-0.189L114.005,351.699z M133.829,513.685  c-2.732-3.107-5.091-5.791-6.812-8.204c-1.671-2.343-3.255-4.724-4.789-7.028c-9.283-13.95-18.882-28.376-49.458-37.345  c-31.502-9.236-45.029,12.531-47.421,16.989l-0.025,0.048l0.013,0.053c0.482,1.919,0.911,3.272,1.053,3.704l-0.021,0.007  l0.048,0.134c2.801,7.947,8.881,15.327,18.073,21.935l2.321,1.668c14.614,10.503,24.267,17.441,30.692,22.585l0.068,0.054  l0.079-0.035c25.733-11.422,53.797-6.427,54.084-6.375l0.091,0.014c0.679,0.106,0.961,0.658,0.94,1.158  c-0.022,0.523-0.364,1.074-1.078,1.126c-31.334,2.265-43.66,6.548-48.218,8.899l-0.178,0.092l0.147,0.137  c2.74,2.554,4.814,4.902,6.727,7.611c2.984,4.226,20.023,19.536,40.633,20.72c0.833,0.048,1.664,0.072,2.491,0.072  c6.141,0,12.065-1.324,17.641-3.948l0.049-0.023l0.021-0.051C157.912,541.074,143.992,525.244,133.829,513.685z M167.332,545.29  l-0.008-0.065c-0.665-5.257-3.76-23.213-15.679-33.541c-5.87-5.088-9.811-12.004-14.375-20.012  c-7.188-12.618-15.337-26.92-34.005-39.588c-12.96-8.794-26.922-13.459-40.378-13.49c-0.047,0-0.093-0.001-0.14-0.001  c-13.354,0-25.348,4.562-34.69,13.198l-0.103,0.096l0.034,0.038c-4.877,4.623-4.849,13.199-3.96,19.602l0.021,0.147l0.145-0.027  c0.255-0.048,0.501-0.216,0.736-0.505c6.726-8.67,22.039-22.033,49.034-14.111c32.062,9.405,42.097,24.484,51.802,39.068  c1.514,2.275,3.078,4.627,4.71,6.915c1.591,2.23,3.88,4.834,6.544,7.865c9.223,10.489,23.162,26.341,19.47,43.463l-0.073,0.34  l0.29-0.191c3.668-2.428,7.227-5.507,10.579-9.152L167.332,545.29z M182.934,497.239c-4.643-5.537-9.906-11.814-13.33-20.903  c-0.671-1.782-1.391-3.791-2.154-5.918l-0.039-0.107c-8.013-22.344-22.929-63.935-64.439-74.294  c-5.097-1.272-10.382-1.917-15.708-1.917c-16.666,0-33.135,6.396-45.183,17.549c-11.202,10.37-17.327,23.707-16.803,36.592  l0.012,0.304l0.225-0.205c20.713-18.84,52.168-18.75,80.137,0.228c19.484,13.221,28.261,28.624,35.316,41.007  c4.369,7.667,8.142,14.288,13.46,18.898c11.961,10.365,15.75,27.31,16.823,34.114l0.031,0.199l0.176-0.097  c5.176-2.835,17.516-10.786,20.31-23.356C193.8,510.194,189.244,504.762,182.934,497.239z M380.882,543.363  c-0.451,1.765-0.476,3.559-0.076,5.332c2.722,12.093,9.658,53.596-15.396,79.923c-0.557,0.586-1.181,1.195-1.906,1.864l-0.534,0.492  l0.68-0.255c8.339-3.134,15.67-8.067,21.202-14.264c6.304-7.062,10.14-15.487,11.403-25.043c2.382-18.032-2.027-31.32-4.866-37.636  c-1.22-2.71-0.455-5.826,1.859-7.579c2.353-1.781,6.249-6.568,5.904-18.62c-0.288-10.089-3.037-17.645-8.17-22.457  c-2.54-2.38-5.621-4.04-9.158-4.931l-0.311-0.079l0.152,0.283c0.476,0.886,0.88,1.781,1.203,2.661  C387.296,515.11,382.954,535.259,380.882,543.363z M356.019,487.922l0.071,0.248c4.543,16.01,2.54,32.738-5.64,47.103  c-8.773,15.406-23.496,26.283-41.46,30.626c-3.423,0.827-6.675,1.247-9.666,1.247c-4.513,0-8.57-0.967-12.06-2.876l-0.174-0.095  l-0.033,0.196c-6.186,36.376,9.851,58.835,26.921,67.724c6.691,3.485,13.779,5.186,20.647,5.186  c10.478,0,20.444-3.961,27.706-11.592c23.6-24.799,16.934-64.485,14.329-76.058c-0.541-2.4-0.505-4.931,0.105-7.319  c1.54-6.022,6.243-26.547,2.113-37.791c-3.518-9.578-15.677-14.464-22.612-16.524L356.019,487.922z M312.858,446.069l-0.105-0.138  l-0.114,0.13c-14.69,16.745-38.034,25.235-69.384,25.235c-7.461,0-15.655-0.513-24.355-1.523l-0.092-0.011l-0.048,0.08  c-0.465,0.801-0.891,1.5-1.303,2.139l-0.052,0.081l0.056,0.079c4.429,6.119,28.003,37.85,57.301,61.706  c1.811,1.474,2.931,3.536,3.155,5.804c0.415,4.195,2.19,14.526,9.66,19.831c3.199,2.271,7.139,3.41,11.771,3.409  c2.656,0,5.54-0.374,8.642-1.124c16.812-4.065,30.579-14.221,38.765-28.597c7.856-13.799,9.593-29.817,4.89-45.103  c-1.758-5.72-6.856-8.563-10.824-9.941c-3.16-1.098-5.865-3.035-7.819-5.602L312.858,446.069z M315.563,341.41l-0.032-0.241  l-13.315,10.101l-1.311-1.329c-11.389-11.549-24.595-21.032-31.453-25.656l-0.228-0.154l0.007,0.275  c0.207,8.089-0.686,15.334-2.896,23.489c-3.465,12.786-14.982,21.377-28.66,21.377l-0.146-0.001  c-14.172-0.064-25.739-9.319-29.467-23.581c-2.387-9.122-0.737-20.691,4.9-34.384l0.075-0.183l-0.197-0.012  c-21.084-1.307-47.822-0.236-55.513,0.123l-0.091,0.004l-0.034,0.085c-2.896,7.27-4.898,14.35-5.952,21.044  c-1.697,10.782-7.399,20.646-14.882,25.744c-3.88,2.643-8.085,3.983-12.5,3.983c-1.593,0-3.212-0.18-4.812-0.536  c-0.755-0.168-1.52-0.433-2.277-0.788l-0.205-0.096l0.003,0.227c0.145,9.697,2.797,23.553,7.094,37.064l0.09,0.281l0.163-0.245  c14.52-21.733,31.896-34.165,51.651-36.951c15.507-2.187,28.499,1.584,36.667,5.132c13.341,5.796,19.658,13.165,22.236,17.042  c0.121,0.18,0.047,0.351-0.052,0.443c-0.097,0.09-0.271,0.153-0.442,0.019c-6.768-5.287-30.947-22.245-57.848-18.423  c-18.836,2.668-35.471,14.868-49.443,36.262l-0.079,0.119l0.121,0.078c26.798,17.309,37.988,48.513,44.675,67.157l0.014,0.042  c0.764,2.128,1.484,4.137,2.155,5.918c3.169,8.413,8.186,14.396,12.612,19.675c4.564,5.442,8.874,10.583,10.006,17.301l0.036,0.221  l0.184-0.128c11.11-7.782,11.817-21.139,11.249-28.409c-0.275-3.527,0.845-6.952,3.148-9.645c7.324-8.562,11.803-23.4,13.39-29.383  c0.065-0.251,0.272-0.336,0.441-0.323c0.163,0.009,0.367,0.111,0.408,0.371c0.592,3.843,0.859,11.689-4.014,21.049l-0.095,0.184  l0.206,0.022c42.736,4.659,72.924-3.477,89.743-24.176c20.706-25.48,14.463-62.718,10.644-73.754  C318.868,360.119,316.857,351.227,315.563,341.41z M369.786,274.968c2.426-10.608,6.338-19.109,11.63-25.268l0.169-0.198  l-0.258-0.035c-5.412-0.739-16.799-1.668-32.23,0.416l-0.065,0.009l-0.035,0.055c-3.715,5.777-9.125,10.877-15.642,14.751  c-15.613,9.277-35.568,10.979-52.078,4.435c-0.715-0.284-1.549-0.19-2.226,0.257c-1.875,1.241-5.113,3.151-9.888,5.194l-0.071,0.03  l-0.013,0.075c-2.904,16.104-1.834,26.705-0.8,36.956c0.253,2.513,0.478,4.785,0.656,7.133l0.006,0.07l0.059,0.038  c4.437,2.869,19.967,13.271,33.526,26.659l0.087,0.086l12.284-9.319l0.064-0.048l-0.009-0.079  c-0.618-6.047-0.828-11.053-0.896-14.189l-0.004-0.201l-0.188,0.072c-3.236,1.241-6.404,2.639-9.415,4.154  c-0.127,0.064-0.239,0.009-0.296-0.059c-0.025-0.032-0.104-0.146-0.003-0.278c2.371-3.116,9.858-10.661,28.138-13.408  c19.36-2.911,33.236-0.994,37.027-0.338l0.244,0.042l-0.086-0.231C366.132,302.853,366.238,290.478,369.786,274.968z   M510.241,296.398c5.262-7.455,5.786-17.179,1.471-27.381c-6.595-15.597-25.147-31.81-47.846-32.618  c-1.073-0.038-2.129-0.056-3.173-0.056c-28.185,0-45.517,13.309-50.282,17.515c-0.232,0.207-0.501,0.152-0.659,0.045  c-0.159-0.107-0.309-0.336-0.206-0.629c0.856-2.419,3.057-6.931,8.187-9.973l0.302-0.179l-0.342-0.08  c-6.168-1.451-15.323-2.258-23.902,2.126c-9.639,4.925-16.323,15.27-19.864,30.748c-4.294,18.773-3.284,32.753,2.918,40.431  c3.133,3.876,6.925,5.39,9.555,5.977l0.188,0.042l-0.016-0.192c-1.48-18.087,3.357-26.07,5.505-28.661  c0.087-0.104,0.203-0.096,0.279-0.053c0.078,0.042,0.145,0.132,0.105,0.259c-4.129,13.102-3.217,34.762,5.455,48.331  c5.306,8.302,12.87,12.924,22.482,13.736c1.663,0.14,3.252,0.21,4.768,0.21c8.112,0,14.1-2.007,17.838-5.988  c4.568-4.866,4.465-11.527,4.325-13.453l-0.008-0.095l-0.091-0.029c-3.815-1.218-9.437-1.594-11.677-1.699  c-0.135-0.006-0.206-0.1-0.227-0.185c-0.021-0.086-0.001-0.203,0.117-0.272c2.214-1.298,8.129-4.004,15.206-1.142  c7.786,3.15,8.672,8.533,8.691,10.701c0.001,0.137-0.09,0.216-0.175,0.245c-0.086,0.031-0.207,0.02-0.29-0.089  c-0.943-1.248-3.112-3.644-7.042-5.678l-0.203-0.105l-0.004,0.228c-0.063,3.428-0.844,8.45-4.201,12.904l-0.089,0.117l0.121,0.084  c3.107,2.173,12.062,6.767,28.08,2.49c8.381-2.234,13.892-6.346,16.379-12.221c4.192-9.902-1.167-22.524-2.909-26.157  c-0.046-0.097-0.003-0.178,0.053-0.22c0.054-0.043,0.145-0.063,0.225,0.008c2.276,2.005,7.643,7.456,8.32,14.744l0.022,0.247  l0.201-0.146c5.808-4.21,9.301-9.402,10.381-15.431c2.316-12.922-6.75-26.5-9.584-30.353c-0.064-0.086-0.036-0.174,0.01-0.227  c0.047-0.052,0.124-0.092,0.221-0.038c2.481,1.381,8.532,5.329,11.134,12.131l0.095,0.248L510.241,296.398z"></path>
<g id="_x3C_Group_x3E__-__x23_1769B2">
	<path id="_x23_1769B2_00000096765507707853710160000008704137803283611060_" fill="#1769B2" d="M173.591,143.562   c-1.359-1.144-2.789-2.257-4.254-3.313c0.529-1.437,1.155-2.825,1.859-4.128c2.391-4.412,5.633-8.004,9.128-10.118   c2.68-1.62,5.224-2.204,7.362-1.688c0.503,0.12,0.986,0.305,1.435,0.548c3.65,1.977,4.857,7.618,3.076,14.37   c-0.196,0.724-0.431,1.463-0.702,2.212c1.201-4.902,0.291-9.075-2.47-10.57c-1.877-1.018-4.336-0.682-6.925,0.942   c-2.569,1.614-4.963,4.31-6.741,7.592C174.636,140.741,174.042,142.137,173.591,143.562z M230.09,184.638   c1.169,0.634,2.507,0.937,4.005,0.886c1.858-0.546,3.8-1.43,5.76-2.628c-1.775,0.428-3.399,0.276-4.733-0.447   c-2.275-1.232-3.564-3.954-3.627-7.663c-0.062-3.686,1.094-7.913,3.256-11.901c2.159-3.988,5.069-7.264,8.192-9.226   c3.138-1.972,6.121-2.381,8.4-1.146c3.43,1.859,4.504,7.125,2.883,13.264c0.393-1.049,0.73-2.088,1.009-3.109v0   c2.168-8.225,0.695-15.098-3.753-17.508c-0.546-0.296-1.135-0.521-1.751-0.669c-0.614-0.147-1.255-0.221-1.919-0.221   c-2.156,0-4.557,0.771-7.052,2.278c-4.254,2.571-8.201,6.945-11.112,12.316c-2.91,5.373-4.419,11.068-4.25,16.034   C225.558,179.626,227.225,183.086,230.09,184.638z"></path>
	<path id="_x23_1769B2" fill="#1769B2" d="M346.756,533.169c-8.186,14.376-21.953,24.533-38.765,28.597   c-3.102,0.75-5.986,1.124-8.642,1.124c-4.633,0.001-8.572-1.138-11.771-3.409c-7.471-5.304-9.245-15.635-9.66-19.831   c-0.224-2.268-1.344-4.329-3.155-5.804c-29.297-23.856-52.872-55.587-57.301-61.706l-0.056-0.079l0.052-0.081   c0.412-0.638,0.838-1.338,1.303-2.139l0.048-0.08l0.092,0.011c8.699,1.01,16.894,1.523,24.355,1.523   c31.35,0,54.694-8.49,69.384-25.235l0.114-0.13l0.105,0.138l20.145,26.455c1.955,2.566,4.659,4.504,7.819,5.602   c3.967,1.378,9.066,4.221,10.824,9.941C356.349,503.353,354.612,519.371,346.756,533.169z M224.208,444.468   c0.065-0.251,0.272-0.336,0.441-0.323c0.163,0.009,0.367,0.111,0.408,0.371c0.592,3.843,0.859,11.689-4.014,21.049l-0.095,0.184   l0.206,0.022c42.736,4.659,72.924-3.477,89.743-24.176c20.706-25.48,14.463-62.718,10.644-73.754   c-2.673-7.721-4.685-16.614-5.979-26.431l-0.032-0.241l-13.315,10.101l-1.311-1.329c-11.389-11.549-24.595-21.032-31.453-25.656   l-0.228-0.154l0.007,0.275c0.207,8.089-0.686,15.334-2.896,23.489c-3.465,12.786-14.982,21.377-28.66,21.377l-0.146-0.001   c-14.172-0.064-25.739-9.319-29.467-23.581c-2.387-9.122-0.737-20.691,4.9-34.384l0.075-0.183l-0.197-0.012   c-21.084-1.307-47.822-0.236-55.513,0.123l-0.091,0.004l-0.034,0.085c-2.896,7.27-4.898,14.35-5.952,21.044   c-1.697,10.782-7.399,20.646-14.882,25.744c-3.88,2.643-8.085,3.983-12.5,3.983c-1.593,0-3.212-0.18-4.812-0.536   c-0.755-0.168-1.52-0.433-2.277-0.788l-0.205-0.096l0.003,0.227c0.145,9.697,2.797,23.553,7.094,37.064l0.09,0.281l0.163-0.245   c14.52-21.733,31.896-34.165,51.651-36.951c15.507-2.187,28.499,1.584,36.667,5.132c13.341,5.796,19.658,13.165,22.236,17.042   c0.121,0.18,0.047,0.351-0.052,0.443c-0.097,0.09-0.271,0.153-0.442,0.019c-6.768-5.287-30.947-22.245-57.848-18.423   c-18.836,2.668-35.471,14.868-49.443,36.262l-0.079,0.119l0.121,0.078c26.798,17.309,37.988,48.513,44.675,67.157l0.014,0.042   c0.764,2.128,1.484,4.137,2.155,5.918c3.169,8.413,8.186,14.396,12.612,19.675c4.564,5.442,8.874,10.583,10.006,17.301l0.036,0.221   l0.184-0.128c11.11-7.782,11.817-21.139,11.249-28.409c-0.275-3.527,0.845-6.952,3.148-9.645   C218.142,465.289,222.622,450.451,224.208,444.468z M240.058,282.091c8.714-1.08,16.851-2.958,24.184-5.582l0.225-0.081   l-0.038,0.236c-2.416,15.231-1.336,25.951-0.382,35.408c1.105,10.952,2.059,20.41-1.815,34.71   c-3.415,12.599-14.801,18.239-24.571,18.239l-0.114-0.001c-9.699-0.043-21.457-5.427-25.374-20.405   c-5.869-22.449,18.279-56.84,21.052-60.688l0.023-0.032l0.038-0.016C235.431,282.983,237.709,282.382,240.058,282.091z    M238.658,311.127c-11.82,0-21.436,9.616-21.436,21.435c0,11.82,9.616,21.436,21.436,21.436c11.819,0,21.435-9.616,21.435-21.436   C260.093,320.743,250.477,311.127,238.658,311.127z M119.978,357.408c1.329,0.295,2.641,0.442,3.934,0.442   c3.513,0,6.885-1.088,10.063-3.253c6.545-4.459,11.555-13.231,13.075-22.892c3.552-22.559,15.984-42.123,19.71-47.582l0.074-0.109   l-0.103-0.082c-3.541-2.823-6.571-6.186-9.37-9.388l-0.084-0.097l-0.105,0.075c-13.045,9.348-23.54,19.498-31.192,30.166   l-0.189,0.265l0.322-0.042c1.843-0.236,3.639-0.071,5.332,0.489c4.251,1.407,7.411,5.121,8.901,10.457   c1.494,5.355,1.157,11.809-0.951,18.173c-3.669,11.084-11.788,18.825-19.74,18.825c-1.274,0-2.528-0.201-3.727-0.598   c-0.558-0.184-1.124-0.427-1.728-0.742l-0.363-0.189l0.168,0.374C115.429,354.841,117.55,356.869,119.978,357.408z"></path>
</g>
<g id="_x3C_Group_x3E__-__x23_F7EC13">
	<path id="_x23_F7EC13_00000096058313305194496490000004204916508829128840_" fill="#F7EC13" d="M238.658,315.377   c-9.477,0-17.185,7.709-17.185,17.185c0,9.476,7.709,17.185,17.185,17.185c9.475,0,17.184-7.709,17.184-17.185   C255.842,323.087,248.133,315.377,238.658,315.377z M249.729,337.238c-3.295,8.504-10.103,8.35-12.138,8.079   c-0.002-0.011,0-0.027,0.021-0.038c10.669-5.707,9.441-18.193,8.811-21.884c-0.017-0.097,0.056-0.136,0.079-0.146   c0.01-0.004,0.031-0.012,0.056-0.012c0.032,0,0.071,0.012,0.104,0.055C248.34,325.533,251.999,331.379,249.729,337.238z"></path>
	<path id="_x23_F7EC13" fill="#F7EC13" d="M130.108,309.436c-0.737-0.244-1.519-0.368-2.322-0.368c-1.909,0-4.004,0.723-6.056,2.09   c-4.135,2.757-7.767,7.917-9.717,13.805c-2.163,6.534-2.111,13.532,0.136,18.262c1.218,2.564,2.987,4.292,5.116,4.997   c0.747,0.247,1.522,0.366,2.314,0.366c5.904,0,12.712-6.626,15.783-15.895C138.841,322.182,136.435,311.531,130.108,309.436z    M130.315,333.417c-2.768,7.947-7.695,9.816-9.686,10.251c-0.122,0.028-0.164-0.05-0.178-0.074   c-0.029-0.05-0.039-0.128,0.023-0.199c8.403-9.545,8.914-22.778,8.871-26.606c-0.001-0.074,0.059-0.095,0.076-0.099   c0.006-0.002,0.014-0.003,0.027-0.003c0.025,0,0.063,0.009,0.085,0.055C130.7,319.082,133.11,325.388,130.315,333.417z"></path>
</g>
<g id="_x3C_Group_x3E__-__x23_8C5132">
	<path id="_x23_8C5132_00000059287265102646939060000002473234684932157620_" fill="#8C5132" d="M309.688,200.747l0.082-0.042   l-0.004-0.092c-0.423-7.831-1.238-15.495-2.424-22.778l-0.053-0.328l-0.199,0.266c-3.532,4.696-9.384,10.562-17.203,11.838   c-0.866,0.142-1.726,0.276-2.573,0.407c-11.074,1.725-16.34,2.933-15.054,11.471c0.29,1.927-0.26,3.967-1.509,5.598   c-3.191,4.165-5.658,10.509,0.722,17.081c1.013,1.045,2.181,1.524,3.51,1.524c4.348-0.001,10.423-5.122,18.415-12.344   C298.76,208.502,304.307,203.491,309.688,200.747z"></path>
	<path id="_x23_8C5132_00000057116476537310331690000015446388048990947488_" fill="#8C5132" d="M376.764,542.31   c1.54-6.022,6.243-26.547,2.113-37.791c-3.518-9.578-15.677-14.464-22.612-16.524l-0.247-0.074l0.071,0.248   c4.543,16.01,2.54,32.738-5.64,47.103c-8.773,15.406-23.496,26.283-41.46,30.626c-3.423,0.827-6.675,1.247-9.666,1.247   c-4.513,0-8.57-0.967-12.06-2.876l-0.174-0.095l-0.033,0.196c-6.186,36.376,9.851,58.835,26.921,67.724   c6.691,3.485,13.779,5.186,20.647,5.186c10.478,0,20.444-3.961,27.706-11.592c23.6-24.799,16.934-64.485,14.329-76.058   C376.118,547.229,376.154,544.698,376.764,542.31z"></path>
	<path id="_x23_8C5132" fill="#8C5132" d="M169.605,476.336c-0.671-1.782-1.391-3.791-2.154-5.918l-0.039-0.107   c-8.013-22.344-22.929-63.935-64.439-74.294c-5.097-1.272-10.382-1.917-15.708-1.917c-16.666,0-33.135,6.396-45.183,17.549   c-11.202,10.37-17.327,23.707-16.803,36.592l0.012,0.304l0.225-0.205c20.713-18.84,52.168-18.75,80.137,0.228   c19.484,13.221,28.261,28.624,35.316,41.007c4.369,7.667,8.142,14.288,13.46,18.898c11.961,10.365,15.75,27.31,16.823,34.114   l0.031,0.199l0.176-0.097c5.176-2.835,17.516-10.786,20.31-23.356c2.031-9.138-2.525-14.57-8.835-22.093   C178.292,491.701,173.028,485.425,169.605,476.336z"></path>
</g>
<g id="_x3C_Group_x3E__-__x23_F2F2F3">
	<path id="_x23_F2F2F3_00000084517441278679345800000006332194799559282824_" fill="#F2F2F3" d="M212.19,227.903l-0.137,0.012   c-1.871,0.17-3.851,0.071-5.87-0.294l-0.044-0.008l-0.041,0.019c-4.962,2.302-18.43,7.657-36.267,7.657   c-2.157,0-4.369-0.083-6.576-0.246l-0.22-0.017l0.078,0.208c0.266,0.703,0.558,1.448,0.869,2.217   c0.787,1.929,2.628,3.248,4.69,3.359c1.543,0.083,3.06,0.122,4.552,0.122c18.488-0.001,32.96-6.016,38.601-8.764   c0.468-0.228,0.749-0.734,0.698-1.261c-0.089-0.927-0.193-1.865-0.315-2.869L212.19,227.903z"></path>
	<path id="_x23_F2F2F3_00000160900686970243576070000001429424401533407932_" fill="#F2F2F3" d="M187.507,136.694   c1.31,0.71,1.335,3.308,0.057,5.672c-1.034,1.908-2.682,3.24-4.006,3.24c-0.284,0-0.546-0.063-0.777-0.188   c-1.31-0.709-1.335-3.307-0.055-5.672C184.027,137.342,186.174,135.975,187.507,136.694z M168.856,134.838   c2.626-4.85,6.22-8.817,10.117-11.173c4.067-2.46,8.007-2.894,11.096-1.22c3.047,1.651,4.82,5.188,4.992,9.958l0.322,0.059   l-0.245-0.048c1.69-8.602-0.396-15.645-5.446-18.381c-0.726-0.394-1.507-0.693-2.323-0.889c-7.416-1.78-17.002,4.674-22.787,15.349   c-1.21,2.235-2.197,4.57-2.935,6.941c1.844,0.994,3.667,2.087,5.421,3.25C167.598,137.339,168.2,136.046,168.856,134.838z    M252.175,131.984c-0.883-0.479-1.836-0.844-2.831-1.083c-1.004-0.242-2.043-0.359-3.103-0.359   c-8.469,0-18.381,7.491-24.641,19.042c-7.89,14.563-7.014,30.364,1.954,35.223c0.89,0.482,1.884,0.849,2.962,1.092   c-2.678-2.326-4.176-6.067-4.34-10.854c-0.188-5.534,1.469-11.827,4.663-17.72c3.193-5.896,7.562-10.72,12.299-13.583   c4.94-2.987,9.726-3.514,13.474-1.483c3.698,2.004,5.85,6.298,6.06,12.091c0.001,0.042,0.028,0.07,0.067,0.074   c0.036-0.003,0.062-0.006,0.073-0.056C260.87,143.893,258.328,135.316,252.175,131.984z M249.518,159.551   c-0.293-0.159-0.622-0.237-0.976-0.237c-0.59,0-1.251,0.219-1.937,0.65c-1.117,0.701-2.16,1.875-2.937,3.309   c-1.59,2.937-1.555,6.046,0.078,6.931c0.771,0.42,1.828,0.269,2.913-0.413c1.117-0.701,2.159-1.876,2.935-3.308   c0.781-1.441,1.193-2.968,1.161-4.3C250.724,160.901,250.285,159.967,249.518,159.551z"></path>
	<path id="_x23_F2F2F3_00000141457290548005554270000003317875939803790486_" fill="#F2F2F3" d="M511.712,269.017   c-6.595-15.597-25.147-31.81-47.846-32.618c-1.073-0.038-2.129-0.056-3.173-0.056c-28.185,0-45.517,13.309-50.282,17.515   c-0.232,0.207-0.501,0.152-0.659,0.045c-0.159-0.107-0.309-0.336-0.206-0.629c0.856-2.419,3.057-6.931,8.187-9.973l0.302-0.179   l-0.342-0.08c-6.168-1.451-15.323-2.258-23.902,2.126c-9.639,4.925-16.323,15.27-19.864,30.748   c-4.294,18.773-3.284,32.753,2.918,40.431c3.133,3.876,6.925,5.39,9.555,5.977l0.188,0.042l-0.016-0.192   c-1.48-18.087,3.357-26.07,5.505-28.661c0.087-0.104,0.203-0.096,0.279-0.053c0.078,0.042,0.145,0.132,0.105,0.259   c-4.129,13.102-3.217,34.762,5.455,48.331c5.306,8.302,12.87,12.924,22.482,13.736c1.663,0.14,3.252,0.21,4.768,0.21   c8.112,0,14.1-2.007,17.838-5.988c4.568-4.866,4.465-11.527,4.325-13.453l-0.008-0.095l-0.091-0.029   c-3.815-1.218-9.437-1.594-11.677-1.699c-0.135-0.006-0.206-0.1-0.227-0.185c-0.021-0.086-0.001-0.203,0.117-0.272   c2.214-1.298,8.129-4.004,15.206-1.142c7.786,3.15,8.672,8.533,8.691,10.701c0.001,0.137-0.09,0.216-0.175,0.245   c-0.086,0.031-0.207,0.02-0.29-0.089c-0.943-1.248-3.112-3.644-7.042-5.678l-0.203-0.105l-0.004,0.228   c-0.063,3.428-0.844,8.45-4.201,12.904l-0.089,0.117l0.121,0.084c3.107,2.173,12.062,6.767,28.08,2.49   c8.381-2.234,13.892-6.346,16.379-12.221c4.192-9.902-1.167-22.524-2.909-26.157c-0.046-0.097-0.003-0.178,0.053-0.22   c0.054-0.043,0.145-0.063,0.225,0.008c2.276,2.005,7.643,7.456,8.32,14.744l0.022,0.247l0.201-0.146   c5.808-4.21,9.301-9.402,10.381-15.431c2.316-12.922-6.75-26.5-9.584-30.353c-0.064-0.086-0.036-0.174,0.01-0.227   c0.047-0.052,0.124-0.092,0.221-0.038c2.481,1.381,8.532,5.329,11.134,12.131l0.095,0.248l0.154-0.217   C515.504,288.943,516.027,279.219,511.712,269.017z M447.341,300.162l-0.071,0.054c-1.136,0.843-2.597,1.171-3.999,0.904   c-1.262-0.24-2.308-0.937-2.946-1.962c-2.871-4.618-4.054-8.624-5.096-12.159c-0.389-1.317-0.756-2.56-1.189-3.784   c-0.04-0.113,0.038-0.177,0.063-0.193c0.025-0.017,0.059-0.029,0.095-0.029c0.035,0,0.075,0.013,0.112,0.045   c1.224,1.095,3.176,2.337,5.241,3.652c2.46,1.565,5.247,3.338,7.358,5.215c1.48,1.316,2.321,3.123,2.254,4.835   C449.107,298.121,448.477,299.303,447.341,300.162z M460.458,273.859c-0.485,1.388-1.522,2.468-2.918,3.042   c-1.484,0.608-3.165,0.553-4.607-0.153c-3.32-1.623-9.323-4.872-12.221-8.394c-0.097-0.118-0.12-0.272-0.06-0.413   c0.06-0.141,0.187-0.232,0.34-0.245l13.891-1.12c0.145-0.012,0.29-0.017,0.434-0.017c1.338,0,2.66,0.494,3.682,1.387   c1.075,0.939,1.707,2.209,1.781,3.578C460.824,272.334,460.716,273.12,460.458,273.859z M461.849,251.879   c-0.892,1.292-2.301,2.084-3.864,2.173l-12.404,0.709c-0.016,0.001-0.03,0.002-0.044,0.002c-0.255,0-0.478-0.131-0.603-0.358   c-0.134-0.239-0.118-0.515,0.039-0.739c2.203-3.131,6.695-6.403,10.074-8.596c0.829-0.538,1.799-0.815,2.773-0.815   c0.569,0,1.139,0.094,1.683,0.286c1.416,0.498,2.491,1.582,2.957,2.994l0.042,0.131v0.001   C462.95,249.094,462.713,250.63,461.849,251.879z"></path>
	<path id="_x23_F2F2F3" fill="#F2F2F3" d="M129.231,86.627c-1.948-4.817-3.518-10.887-4.199-16.237l-0.016-0.122l-0.123-0.002   c-8.313-0.135-23.981,4.16-31.713,12.585c-4.803,5.231-7.324,13.329-5.863,18.835c1.044,3.933,3.362,6.764,7.087,8.651   c5.775,2.928,14.202-0.228,19.78-2.315c0.187-0.07,0.337,0.032,0.403,0.144c0.064,0.11,0.084,0.284-0.072,0.415   c-4.464,3.772-11.842,7.87-21.616,5.982c-1.619-0.313-5.695-1.88-5.736-1.896l-0.068-0.026l-0.06,0.039   c-9.705,6.238-22.199,5.446-22.323,5.438l-0.095-0.007l-0.042,0.085c-2.466,5.006-6.808,8.129-12.557,9.031   c-6.974,1.099-12.612-0.017-16.752-3.316c-4.712-3.754-6.66-9.586-7.46-14.039c6.468,9.157,15.821,13.966,23.434,11.992   c6.592-1.716,10.43-8.061,10.529-17.41c0.081-7.732-3.057-14.84-9.329-21.125c-4.911-4.921-10.743-8.326-14.999-10.396   c7.972,0.806,15.281,4.747,20.652,11.155c6.974,8.32,10.176,19.778,8.159,29.188l-0.033,0.152l0.155,0.018   c0.041,0.004,4.151,0.472,9.431-1.098c6.035-1.794,8.146-4.074,8.233-4.17l0.063-0.07l-0.04-0.085   c-5.728-12.41,0.153-22.003,0.213-22.098l0.029-0.044l-0.008-0.053C81.884,69.992,66.081,60.556,56.377,56.19   c8.335,0.485,22.811,4.193,31.66,22.628l0.777,1.617l1.272-1.265c3.831-3.807,8.443-6.867,13.708-9.096l1.026-0.435l-0.293-1.075   c-3.73-13.659-15.612-20.984-22.873-24.283c7.072,0.64,19.424,4.554,28.414,22.558l0.456,0.916l0.994-0.247   c4.728-1.176,10.092-1.862,13.074-2.001l0.137-0.007l-0.002-0.137c-0.034-2.686,0.116-5.174,0.459-7.607   c0.418-2.97,1.228-5.779,2.404-8.35l0.039-0.084l-0.061-0.069c-25.053-28.381-60.464-24.003-83.174-11.63   c-25.14,13.696-47.673,43.064-37.736,75.18c6.003,19.399,17.033,32.801,32.783,39.833c12.578,5.617,24.56,5.411,29.131,5.06   c0.009-0.001,0.018-0.001,0.028-0.001c0.154,0,0.238,0.105,0.266,0.206c0.028,0.106,0.004,0.258-0.156,0.335   c-3.868,1.859-12.296,4.407-25.31,0.599c-0.064-0.019-0.128-0.042-0.194-0.065l-0.343-0.117l0.035,0.23   c1.577,10.27,5.785,17.293,12.505,20.877c4.014,2.141,8.642,2.974,13.413,2.974c13.405-0.001,27.939-6.574,33.142-9.165l0.1-0.05   l-0.024-0.109c-2.135-9.361,0.033-19.016,6.27-27.921c6.597-9.422,15.021-14.84,25.036-16.105l0.05-0.006l0.034-0.036   c1.636-1.687,7.169-8.096,9.686-19.733l0.014-0.066l-0.043-0.053C137.002,102.014,132.343,94.323,129.231,86.627z"></path>
	<path id="_x23_F2F2F3_00000127031163188204861590000011612600644850742926_" fill="#F2F2F3" d="M280.352,64.976   c-1.477,10.392-7.633,18.384-15.686,20.36l-0.077,0.019l-0.056-0.055c-1.584-1.551-3.177-3.06-4.735-4.489l11.288-3.454   l-6.33-45.269l-18.627,7.924l-2.869-14.71L214.89,47.202c-1.515-0.874-2.916-1.649-4.263-2.354l-0.133-0.069l0.076-0.128   c4.333-7.366,20.612-30.361,48.111-17.011C277.285,36.67,282.073,52.847,280.352,64.976z M250.633,72.868l1.157-22.65   l-11.377,5.634l-4.813-8.168l-0.093-0.159l-7.784,7.93l-0.117,0.118l0.136,0.096c7.218,5.1,14.96,10.692,22.675,17.021   L250.633,72.868z"></path>
</g>
<g id="_x3C_Group_x3E__-__x23_FBD2B3">
	<path id="_x23_FBD2B3_00000178890853621885233880000010876040266786826915_" fill="#FBD2B3" d="M393.247,546.197   c2.353-1.781,6.249-6.568,5.904-18.62c-0.288-10.089-3.037-17.645-8.17-22.457c-2.54-2.38-5.621-4.04-9.158-4.931l-0.311-0.079   l0.152,0.283c0.476,0.886,0.88,1.781,1.203,2.661c4.429,12.056,0.087,32.206-1.985,40.309c-0.451,1.765-0.476,3.559-0.076,5.332   c2.722,12.093,9.658,53.596-15.396,79.923c-0.557,0.586-1.181,1.195-1.906,1.864l-0.534,0.492l0.68-0.255   c8.339-3.134,15.67-8.067,21.202-14.264c6.304-7.062,10.14-15.487,11.403-25.043c2.382-18.032-2.027-31.32-4.866-37.636   C390.168,551.066,390.933,547.949,393.247,546.197z"></path>
	<path id="_x23_FBD2B3_00000093173746685485714350000007578623424438849415_" fill="#FBD2B3" d="M167.324,545.225l0.008,0.065   l-0.044,0.048c-3.352,3.645-6.911,6.724-10.579,9.152l-0.29,0.191l0.073-0.34c3.692-17.122-10.247-32.974-19.47-43.463   c-2.664-3.031-4.954-5.634-6.544-7.865c-1.632-2.288-3.196-4.64-4.71-6.915c-9.705-14.584-19.739-29.664-51.802-39.068   c-26.995-7.922-42.308,5.441-49.034,14.111c-0.235,0.288-0.482,0.457-0.736,0.505l-0.145,0.027l-0.021-0.147   c-0.89-6.403-0.918-14.979,3.96-19.602l-0.034-0.038l0.103-0.096c9.343-8.635,21.336-13.198,34.69-13.198   c0.047,0,0.093,0.001,0.14,0.001c13.456,0.032,27.418,4.697,40.378,13.49c18.669,12.668,26.817,26.969,34.005,39.588   c4.564,8.009,8.505,14.925,14.375,20.012C163.564,522.013,166.659,539.968,167.324,545.225z M127.017,505.482   c-1.671-2.343-3.255-4.724-4.789-7.028c-9.283-13.95-18.882-28.376-49.458-37.345c-31.502-9.236-45.029,12.531-47.421,16.989   l-0.025,0.048l0.013,0.053c0.482,1.919,0.911,3.272,1.053,3.704l-0.021,0.007l0.048,0.134c2.801,7.947,8.881,15.327,18.073,21.935   l2.321,1.668c14.614,10.503,24.267,17.441,30.692,22.585l0.068,0.054l0.079-0.035c25.733-11.422,53.797-6.427,54.084-6.375   l0.091,0.014c0.679,0.106,0.961,0.658,0.94,1.158c-0.022,0.523-0.364,1.074-1.078,1.126c-31.334,2.265-43.66,6.548-48.218,8.899   l-0.178,0.092l0.147,0.137c2.74,2.554,4.814,4.902,6.727,7.611c2.984,4.226,20.023,19.536,40.633,20.72   c0.833,0.048,1.664,0.072,2.491,0.072c6.141,0,12.065-1.324,17.641-3.948l0.049-0.023l0.021-0.051   c6.915-16.61-7.005-32.44-17.168-43.999C131.098,510.578,128.739,507.894,127.017,505.482z"></path>
	<path id="_x23_FBD2B3" fill="#FBD2B3" d="M200.902,226.406c-4.343,1.664-11.347,3.884-20.059,5.009l-0.059-0.276   c4.31-1.314,8.42-4.335,12.216-8.981l0.084-0.104l0.108,0.079c0.032,0.023,3.206,2.307,7.708,4.008l0.349,0.131L200.902,226.406z    M343.749,210.375c5.644,5.516,7.863,13.592,6.595,24.003c-1.293,10.621-8.098,20.091-19.162,26.665   c-14.505,8.619-33.028,10.205-48.338,4.138c-2.011-0.798-4.307-0.549-6.14,0.665c-4.144,2.744-16.06,9.408-37.168,12.026   c-3.654,0.453-7.134,1.544-10.345,3.244c-6.104,3.233-17.668,8.239-30.732,8.239c-1.609,0-3.241-0.076-4.889-0.24   c-19.65-1.965-25.608-8.834-34.626-19.231c-0.612-0.705-1.235-1.424-1.876-2.156c-2.219-2.538-5.68-5.131-9.685-8.135   c-6.509-4.88-14.606-10.952-21.412-19.582c-7.963-10.1-12.576-21.62-14.101-35.22l-0.022-0.193l0.19,0.038   c0.979,0.198,2.028,0.333,3.118,0.404l0.133,0.008v0.133c0,0.059,0.05,5.883,4.077,9.293c2.627,2.225,6.351,2.956,11.061,2.169   l0.104-0.017l0.047,0.095c0.045,0.094,4.617,9.344,12.55,10.923c4.52,0.897,9.272-0.829,14.125-5.137l0.11-0.097l0.093,0.112   c0.068,0.081,6.855,8.095,16.064,9.246l-0.011,0.282c-6.84,0.307-13.656-0.193-20.261-1.49c-0.125,0.811,0.064,1.626,0.539,2.306   c0.503,0.721,1.256,1.193,2.122,1.329c1.173,0.185,2.382,0.351,3.593,0.493l0.089,0.01l0.029,0.084   c2.12,6.125,13.758,36.676,34.693,36.674c1.209,0,2.443-0.103,3.671-0.306c5.281-0.871,9.491-3.553,12.514-7.971   c6.887-10.068,5.964-26.709,4.802-35.733l-0.016-0.12l0.116-0.034c4.873-1.421,8.857-4.978,11.842-10.575l0.042-0.079l0.09,0.004   c0.123,0.009,13.114,0.517,18.978-7.226c3.435-4.535,3.797-10.989,1.075-19.182c-0.198-0.596-0.644-1.083-1.224-1.334   c-0.588-0.255-1.259-0.247-1.841,0.022c-7.485,3.453-28.378,11.334-60.677,9.98l-0.553-0.023l0.496-0.245   c4.048-2.003,5.109-6.31,5.376-8.069c0.017-0.102-0.027-0.195-0.115-0.249c-0.07-0.044-0.186-0.065-0.293,0.011   c-3.613,2.567-6.89,4.617-10.018,6.265c-12.383,6.525-24.593,7.625-40.823,3.676c-13.297-3.235-24.247-11.26-29.294-21.469   c-0.501-1.013-0.878-1.865-1.186-2.682c-3.487-9.245-1.926-18.992,4.514-28.188c10.386-14.835,23.904-15.719,33.413-13.848   c4.202,0.825,8.509,2.334,12.801,4.483c0.881,0.441,1.727,0.889,2.516,1.332c1.783,1.001,3.572,2.125,5.314,3.343   c0.77,0.537,1.508,1.074,2.193,1.596c1.686,1.284,3.323,2.661,4.865,4.092c2.409,2.235,4.526,4.544,6.296,6.864l0.203,0.266   c0.458,0.61,0.816,1.108,1.126,1.565c1.516,2.232,2.59,4.321,3.191,6.208c0.038,0.12,0.134,0.195,0.257,0.201   c0.114,0.002,0.226-0.04,0.288-0.179c0.863-1.954,1.963-5.645-0.212-8.606c0,0,2.534-2.357,3.58-3.518   c1.333-1.479,2.618-3.156,3.811-4.995c0.675-1.045,1.207-1.931,1.671-2.788c1.306-2.411,2.36-4.922,3.133-7.462   c3.447-11.101,1.134-21.413-5.625-25.076c-4.231-2.293-9.564-1.868-15.02,1.195c-5.306,2.979-10.125,8.123-13.568,14.483   c-1.224,2.255-2.385,4.793-3.162,7.181c-0.582-0.28-2.894-1.277-3.268-1.43l-0.125-0.052l0.045-0.127   c1.188-3.336,12-32.676,25.867-35.595l0.041-0.008l0.039,0.015c8.817,3.436,14.613,10.903,17.227,22.194   c0.006,0.025,0.022,0.03,0.034,0.03c0.698-2.662,2.822-11.978,1.968-21.04l-0.018-0.182l0.18,0.029   c13.194,2.11,28.321,6.469,37.644,10.846l0.209,0.099l-0.182,0.142c-8.149,6.335-13.454,14.406-14.885,16.728   c-0.003,0.005-0.012,0.019,0.002,0.035c0.008,0.009,0.022,0.014,0.042,0.009c3.144-1.34,19.58-7.942,34.273-6.286   c1.01,0.333,1.921,0.584,2.736,0.753l0.056,0.012l0.032,0.048c4.186,6.217,6.615,11.833,8.758,16.787   c5.428,12.546,9.349,21.611,35.034,27.137l0.087,0.019l0.021,0.087c0.54,2.262,1.047,4.581,1.507,6.891l0.01,0.053l-0.028,0.047   c-1.711,2.894-7.992,12.448-16.965,13.913c-0.857,0.14-1.706,0.272-2.542,0.402c-10.116,1.575-20.576,3.205-18.603,16.304   c0.118,0.794-0.129,1.661-0.681,2.38c-2.775,3.621-8.227,13.075,1.045,22.626c7.507,7.731,17.836-1.602,27.823-10.624   c6.906-6.239,14.044-12.687,19.837-13.527C324.148,201.802,336.237,203.035,343.749,210.375z M261.412,140.839   c-1.208-5.621-4.024-9.774-8.145-12.008c-2.166-1.173-4.58-1.768-7.176-1.768c-3.538,0-7.262,1.084-11.07,3.221   c-6.448,3.62-12.307,9.873-16.497,17.607c-4.193,7.736-6.233,16.059-5.743,23.436c0.503,7.585,3.609,13.295,8.746,16.079   c1.076,0.583,2.234,1.026,3.442,1.317c1.177,0.283,2.398,0.424,3.657,0.424c1.779,0,3.635-0.282,5.55-0.845   c5.318-1.562,10.804-5.278,15.444-10.461c1.624-1.79,3.183-3.833,4.636-6.072c0.823-1.271,1.468-2.348,2.032-3.39   c1.588-2.93,2.87-5.983,3.81-9.073C262.111,152.82,262.577,146.262,261.412,140.839z M333.467,231.645   c-2.025-3.049-8.279-11.167-17.376-11.167c-2.516,0-5.248,0.62-8.169,2.14c-13.038,6.785-11.322,19.309-10.485,22.986v0.001   c0.006,0.027,0.039,0.035,0.051,0.039c0.018-0.001,0.046-0.008,0.052-0.048c0.319-2.488,1.711-8.613,7.741-11.723   c7.434-3.833,13.639,4.797,14.806,6.567c0.014,0.023,0.042,0.022,0.054,0.02c0.012-0.003,0.04-0.012,0.045-0.044   c1.415-7.41-7.635-11.989-7.726-12.035l-0.262-0.13l0.266-0.125c8.28-3.891,18.115,1.766,20.931,3.593   c0.029,0.02,0.052,0.008,0.066-0.006C333.475,231.699,333.487,231.676,333.467,231.645z"></path>
</g>
<path id="_x23_ED2024" fill="#ED2024" d="M225.174,287.736l0.425-0.182l-0.25,0.389c-2.805,4.36-6.897,11.187-10.465,18.95  l-0.041,0.089l-0.097-0.007c-19.881-1.37-45.403-0.515-55.453-0.084l-0.229,0.009l0.093-0.209  c4.208-9.441,8.748-16.647,11.081-20.102l0.076-0.113l0.116,0.073c5.901,3.676,13.119,5.835,22.717,6.795  c1.732,0.173,3.516,0.261,5.3,0.261C209.192,293.606,218.912,290.414,225.174,287.736z M349.097,249.883l-0.065,0.009l-0.035,0.055  c-3.715,5.777-9.125,10.877-15.642,14.751c-15.613,9.277-35.568,10.979-52.078,4.435c-0.715-0.284-1.549-0.19-2.226,0.257  c-1.875,1.241-5.113,3.151-9.888,5.194l-0.071,0.03l-0.013,0.075c-2.904,16.104-1.834,26.705-0.8,36.956  c0.253,2.513,0.478,4.785,0.656,7.133l0.006,0.07l0.059,0.038c4.437,2.869,19.967,13.271,33.526,26.659l0.087,0.086l12.284-9.319  l0.064-0.048l-0.009-0.079c-0.618-6.047-0.828-11.053-0.896-14.189l-0.004-0.201l-0.188,0.072c-3.236,1.241-6.404,2.639-9.415,4.154  c-0.127,0.064-0.239,0.009-0.296-0.059c-0.025-0.032-0.104-0.146-0.003-0.278c2.371-3.116,9.858-10.661,28.138-13.408  c19.36-2.911,33.236-0.994,37.027-0.338l0.244,0.042l-0.086-0.231c-3.34-8.898-3.233-21.273,0.314-36.783  c2.426-10.608,6.338-19.109,11.63-25.268l0.169-0.198l-0.258-0.035C375.915,248.728,364.528,247.799,349.097,249.883z   M144.83,262.992c-13.68-10.257-34.353-25.758-37.381-59.991l-0.007-0.071l-0.061-0.037c-7.842-4.809-4.185-16.406-2.249-21.169  l0.024-0.061l-0.031-0.059c-0.687-1.288-1.277-2.568-1.754-3.806l-0.055-0.145l-0.139,0.069c-5.197,2.562-18.734,8.585-32.158,9.195  l-0.214,0.01l0.093,0.193c16.819,34.997,35.046,64.426,62.912,101.578l0.099,0.132l0.116-0.118  c5.922-6.083,12.762-11.935,20.329-17.393l0.126-0.091l-0.612-0.703C151.942,268.326,148.653,265.859,144.83,262.992z   M303.252,159.757l0.231,0.054l-0.062-0.229c-6.746-24.939-18.505-46.232-35.95-65.094c-15.053-16.276-31.724-28-46.432-38.342  c-24.724-17.387-58.631-24.702-77.194-16.657c-8.335,3.613-13.197,9.957-14.451,18.857c-3.936,27.946,20.078,52.733,27.532,59.665  l0.139,0.13l0.084-0.171c3.719-7.536,9.717-17.539,17.162-22.402l0.33-0.215l-0.392-0.044c-2.904-0.329-5.251-0.179-6.393-0.061  c-0.176,0.017-0.317-0.052-0.411-0.184c-0.095-0.133-0.11-0.301-0.04-0.451c1.282-2.747,6.032-11.913,13.357-14.545  c3.197-1.149,6.52-0.92,9.872,0.677c4.713,2.245,7.844,6.557,9.304,12.817l0.022,0.094l0.095,0.014  c15.172,2.261,32.67,7.438,42.552,12.587l0.071,0.037l0.069-0.042c1.275-0.779,2.613-1.494,3.978-2.124l0.178-0.082l-0.135-0.143  c-42.606-45.051-71.621-51.961-79.498-53.006c-0.159-0.021-0.219-0.14-0.222-0.244c-0.002-0.102,0.051-0.232,0.213-0.263  c3.746-0.717,16.017-0.143,28.111,6.252c17.11,9.048,35.879,24.431,55.788,45.722l0.059,0.064l0.084-0.024  c3.669-1.07,7.377-1.396,11.02-0.976c6.719,0.778,11.512,3.365,14.249,7.688c5.072,8.018,1.566,19.505,0.792,21.745  c-0.006,0.001-0.023,0.002-0.037-0.019c-2.48-3.92-5.928-6.878-10.25-8.791l-0.403-0.178l0.224,0.38  c2.926,4.975,4.846,9.415,6.541,13.333C278.601,147.517,281.717,154.72,303.252,159.757z M194.422,268.328  c1.005,0,2.031-0.085,3.051-0.253c4.47-0.738,7.887-2.914,10.446-6.652c3.303-4.827,4.998-12.053,5.037-21.476l0.001-0.16  l-0.159,0.019c-7.007,0.814-29.99,4.906-31.529,23.401l-0.006,0.076l0.06,0.047c4.211,3.317,8.614,4.999,13.09,5  C194.416,268.328,194.419,268.328,194.422,268.328z M257.549,78.784l10.362-3.238l-5.348-39.136l-18.259,7.745l-2.798-13.677  L217.572,48.8c2.094,1.284,4.084,2.583,5.912,3.869c0.516,0.362,1.039,0.731,1.562,1.098l11.062-11.586l5.222,9.776l13.481-6.255  l-1.466,29.434C254.779,76.354,256.19,77.575,257.549,78.784z M380.06,167.996c-6.374-7.019-14.581-11.326-18.907-13.269  l-0.176-0.08l-0.022,0.193c-0.943,8.202-4.251,11.475-5.63,12.501c-0.069,0.054-0.14,0.023-0.166,0.007  c-0.045-0.028-0.089-0.085-0.076-0.165c13.919-85.219-30.915-148.651-82.3-160.742c-22.396-5.27-42.446-1.215-59.589,12.049  c-9.326,7.216-15.203,15.301-17.876,19.478l-0.095,0.15l0.167,0.06c3.786,1.357,7.554,2.926,11.201,4.665l0.116,0.055l0.066-0.111  c4.894-8.196,23.23-33.79,53.764-18.971c20.659,10.028,25.954,28.146,24.022,41.758c-1.554,10.949-7.833,19.805-16.383,23.113  l-0.199,0.078l0.148,0.153c28.121,29.097,43.103,65.077,45.802,109.993l0.01,0.17l0.166-0.04c0.483-0.118,0.93-0.207,1.367-0.271  c9.467-1.369,22.647,0.159,31.249,8.565c5.333,5.213,8.097,12.267,8.216,20.965l0.002,0.2l0.188-0.069  c8.269-3.027,28.006-12.082,32.671-30.746C390.551,186.671,387.948,176.682,380.06,167.996z"></path>
<g>
</g>
<g>
</g>
<g>
</g>
<g>
</g>
<g>
</g>
</svg>
