<?xml version="1.0" encoding="UTF-8"?>
<!-- Generator: Adobe Illustrator 26.1.0, SVG Export Plug-In . SVG Version: 6.00 Build 0)  -->
<svg xmlns="http://www.w3.org/2000/svg" xmlns:xlink="http://www.w3.org/1999/xlink" version="1.1" id="Layer_1" x="0px" y="0px" width="579.113px" height="637.857px" viewBox="0 0 579.113 637.857" xml:space="preserve">
<path id="_x23_191919_00000084524638513899832610000008373294445975615896_" fill="#191919" d="M555.857,336.685  c-1.233-0.95-2.49-1.814-3.761-2.622c23.562-62.296,15.036-126.383-24.815-185.701c-27.454-40.864-69.945-79.229-119.643-108.028  C364.052,15.078,319.91,0,289.557,0c-30.353,0-74.496,15.078-118.081,40.334c-49.699,28.798-92.189,67.164-119.643,108.028  C11.982,207.68,3.456,271.768,27.018,334.063c-1.271,0.808-2.528,1.672-3.761,2.622C8.187,348.3,0.365,367.752,0.008,394.499  c-0.333,24.961,9.759,51.664,27.688,73.26c17.694,21.313,41.072,34.897,64.606,37.674c2.413,5.043,5.253,10.201,8.583,15.449  c31.494,49.626,80.377,65.537,92.49,68.821c7.028,10.128,37.337,48.155,96.181,48.155s89.154-38.026,96.181-48.155  c12.113-3.283,60.996-19.194,92.49-68.821c3.33-5.248,6.17-10.407,8.583-15.449c23.533-2.777,46.911-16.361,64.606-37.674  c17.93-21.596,28.021-48.299,27.688-73.26C578.749,367.752,570.926,348.3,555.857,336.685z"></path>
<path id="_x23_191919" fill="#191919" d="M555.857,336.685c-1.233-0.95-2.49-1.814-3.761-2.622  c23.562-62.296,15.036-126.383-24.815-185.701c-27.454-40.864-69.945-79.229-119.643-108.028C364.052,15.078,319.91,0,289.557,0  c-30.353,0-74.496,15.078-118.081,40.334c-49.699,28.798-92.189,67.164-119.643,108.028C11.982,207.68,3.456,271.768,27.018,334.063  c-1.271,0.808-2.528,1.672-3.761,2.622C8.187,348.3,0.365,367.752,0.008,394.499c-0.333,24.961,9.759,51.664,27.688,73.26  c17.694,21.313,41.072,34.897,64.606,37.674c2.413,5.043,5.253,10.201,8.583,15.449c31.494,49.626,80.377,65.537,92.49,68.821  c7.028,10.128,37.337,48.155,96.181,48.155s89.154-38.026,96.181-48.155c12.113-3.283,60.996-19.194,92.49-68.821  c3.33-5.248,6.17-10.407,8.583-15.449c23.533-2.777,46.911-16.361,64.606-37.674c17.93-21.596,28.021-48.299,27.688-73.26  C578.749,367.752,570.926,348.3,555.857,336.685z M62.911,155.805C121.335,68.843,236.168,13.346,289.557,13.346  s168.222,55.496,226.646,142.458c37.659,56.056,45.645,114.082,23.784,172.566c-12.444-4.089-24.668-3.467-31.619-2.546  c-5.702-29.351-18.014-61.746-39.026-93.376c-22.086-33.248-52.788-58.16-91.252-74.045c-0.237-0.098-0.472-0.189-0.709-0.286  c14.296-33.805,6.383-58.351-3.059-73.185c-16.169-25.401-50.233-42.467-84.765-42.467s-68.596,17.066-84.765,42.467  c-9.442,14.834-17.355,39.38-3.059,73.185c-0.237,0.097-0.472,0.188-0.709,0.286c-38.465,15.884-69.166,40.797-91.252,74.045  c-21.012,31.63-33.324,64.025-39.026,93.376c-6.951-0.921-19.175-1.543-31.619,2.546C17.266,269.887,25.252,211.861,62.911,155.805z   M288.517,92.646l28.654-29.12l35.305,65.519l-20.13,13.321c-0.82-0.157-1.636-0.31-2.444-0.456l-17.336-51.345l-24.049,22.88  l-24.049-22.88l-17.476,51.758c-0.608,0.116-1.217,0.233-1.831,0.355l-20.603-13.634l35.305-65.519L288.517,92.646z M262.55,54.659  c8.699-2.398,17.828-3.7,27.006-3.7c8.592,0,17.139,1.143,25.333,3.255l-26.372,28.917L262.55,54.659z M322.089,56.349  c19.069,6.422,35.547,18.188,45.068,33.145c11.863,18.637,12.631,41.234,2.3,65.556c-10.737-3.935-21.069-6.811-30.696-8.926  l22.482-14.877L322.089,56.349z M323.306,143.239c-14.079-2.149-25.801-2.667-33.75-2.667c-8.36,0-20.888,0.571-35.947,3.012  l13.835-40.975l21.072,20.047l21.071-20.047L323.306,143.239z M215.79,131.246l23.005,15.223c-9.182,2.081-18.98,4.856-29.139,8.58  c-10.332-24.321-9.563-46.918,2.3-65.556c9.094-14.287,24.537-25.664,42.522-32.252L215.79,131.246z M234.361,158.751  c19.233-5.027,38.138-7.26,55.195-7.26c17.057,0,35.962,2.232,55.195,7.26c42.307,11.059,86.201,35.642,115.495,79.741  c4.091,6.158,7.832,12.339,11.253,18.514c-7.647,0.681-21.321-0.358-37.01-11.894c-0.783-0.575-1.601-1.162-2.432-1.751  c-4.53-31.788-23.533-58.62-56.703-49.749c-8.151,2.18-15.157,5.962-21.172,10.683c-21.209-7.219-43.606-12.113-64.626-12.113  c-21.021,0-43.417,4.894-64.626,12.113c-6.015-4.721-13.021-8.503-21.172-10.683c-33.169-8.871-52.173,17.961-56.703,49.749  c-0.831,0.59-1.649,1.176-2.432,1.751c-15.688,11.536-29.363,12.576-37.01,11.894c3.421-6.174,7.162-12.356,11.253-18.514  C148.161,194.394,192.054,169.81,234.361,158.751z M13.353,394.676c0.3-22.417,6.347-38.353,17.978-47.364  c12.656-9.805,29.264-9.276,37.274-8.287c-1.734,13.163-2.113,25.54-1.34,36.757c-4.412-2.991-12.335-7.088-19.915-4.498  c-0.749,0.256-0.791,1.308-0.078,1.651c3.465,1.669,11.471,6,21.24,14.304c1.191,7.886,2.992,15.034,5.341,21.24  c2.076,5.485,6.118,9.989,10.957,12.937c-3.564,10.66-9.598,36.688,1.528,69.416C47.021,481.636,12.776,437.962,13.353,394.676z   M84.067,404.615c-7.663-20.248-9.107-51.265-0.622-86.303c5.618,13.171,13.778,24.189,22.269,35.656  c1.551,2.093,3.126,4.22,4.716,6.399c3.147,4.312,4.289,8.227,3.493,11.966c-1.456,6.837-8.98,11.222-9.035,11.253l-4.031,2.262  l1.565,4.35c4.491,12.471,3.785,21.51-1.841,23.586C95.401,415.698,86.874,412.035,84.067,404.615z M466.96,513.731  c-32.333,50.947-86.269,63.498-86.809,63.619l-2.782,0.622l-1.485,2.442c-1.092,1.787-27.629,44.098-86.328,44.098  s-85.235-42.311-86.328-44.098l-1.485-2.442l-2.782-0.622c-0.54-0.121-54.476-12.672-86.809-63.619  c-26.965-42.493-18.273-77.781-14.546-88.533c0.008,0,0.017,0.001,0.025,0.001c2.3,0,4.575-0.375,6.73-1.171  c4.302-1.588,17.153-8.579,9.652-33.544c3.68-2.941,8.935-8.288,10.566-15.774c1.501-6.885-0.293-13.877-5.331-20.78  c-1.604-2.2-3.196-4.347-4.76-6.461c-11.542-15.584-21.545-29.092-25.64-47.941c3.525-10.569,7.96-21.381,13.377-32.267  c2.317,0.423,5.39,0.793,9.078,0.793c8.813,0,21.096-2.132,34.694-10.688c-0.068,6.633,0.461,13.287,1.6,19.703  c0,0,5.633-20.1,20.004-34.094c5.944-5.789,13.384-10.529,22.539-12.373c0.967-0.195,1.951-0.361,2.956-0.489  c33.54-4.263,51.739,20.436,65.779,35.516c0,0-5.365-30.977-24.953-52.867c18.45-5.836,37.599-9.662,55.633-9.662  c18.034,0,37.183,3.826,55.633,9.662c-19.588,21.89-24.953,52.867-24.953,52.867c14.04-15.08,32.24-39.779,65.779-35.516  c1.006,0.128,1.989,0.294,2.956,0.489c9.155,1.843,16.595,6.584,22.539,12.373c14.37,13.994,20.004,34.094,20.004,34.094  c1.139-6.416,1.668-13.07,1.6-19.703c13.599,8.556,25.881,10.688,34.694,10.688c3.687,0,6.761-0.37,9.078-0.793  c5.417,10.886,9.852,21.698,13.377,32.267c-4.095,18.85-14.098,32.357-25.64,47.941c-1.564,2.114-3.155,4.261-4.76,6.461  c-5.038,6.903-6.832,13.895-5.331,20.78c1.63,7.485,6.885,12.833,10.566,15.774c-7.501,24.966,5.35,31.956,9.652,33.544  c2.155,0.796,4.43,1.171,6.73,1.171c0.008,0,0.017-0.001,0.025-0.001C485.233,435.95,493.925,471.238,466.96,513.731z   M478.533,413.784c-5.626-2.077-6.332-11.115-1.841-23.586l1.565-4.35l-4.031-2.262c-0.055-0.031-7.578-4.415-9.035-11.253  c-0.796-3.739,0.346-7.654,3.493-11.966c1.59-2.179,3.165-4.306,4.716-6.399c8.491-11.467,16.651-22.485,22.269-35.656  c8.485,35.038,7.041,66.055-0.622,86.303C492.239,412.035,483.712,415.698,478.533,413.784z M492.775,490.833  c11.125-32.728,5.092-58.756,1.528-69.416c4.839-2.949,8.881-7.452,10.957-12.937c2.348-6.206,4.15-13.354,5.341-21.24  c9.769-8.305,17.775-12.635,21.24-14.304c0.713-0.344,0.671-1.395-0.078-1.651c-7.58-2.589-15.503,1.507-19.915,4.498  c0.774-11.216,0.394-23.594-1.34-36.757c8.009-0.99,24.618-1.518,37.273,8.287c11.631,9.011,17.678,24.946,17.978,47.364  C566.337,437.962,532.093,481.636,492.775,490.833z M390.666,409.5c0.004-0.292,0.029-0.58,0.029-0.872  c0-5.419-0.775-10.703-2.219-15.804c16.896-12.185,28.565-37.803,28.565-67.372c0-41.324-22.783-74.943-50.786-74.943  c-25.121,0-46.027,27.061-50.067,62.462c-1.194,5.909-1.848,12.264-1.848,18.923c0,1.051,0.022,2.092,0.054,3.128  c-7.95-1.513-16.269-2.323-24.837-2.323c-8.568,0-16.887,0.811-24.837,2.323c0.032-1.036,0.054-2.077,0.054-3.128  c0-6.659-0.654-13.014-1.848-18.923c-4.04-35.401-24.946-62.462-50.067-62.462c-28.003,0-50.786,33.619-50.786,74.943  c0,29.569,11.668,55.187,28.565,67.372c-1.444,5.101-2.219,10.385-2.219,15.804c0,0.293,0.025,0.581,0.029,0.872  c-19.527-3.82-33.175-14.85-45.008-41.432c-43.549,60.254,9.36,80.599,9.36,80.599c1.56,51.999,57.199,43.159,57.199,43.159  c2.557,4.391,5.479,7.999,8.654,10.95c1.064,8.312,3.975,25.993,11.021,43.904c12.94,32.888,33.647,50.271,59.884,50.271  s46.944-17.383,59.884-50.271c7.046-17.911,9.957-35.592,11.021-43.904c3.175-2.951,6.097-6.558,8.654-10.95  c0,0,55.639,8.84,57.199-43.159c0,0,52.909-20.345,9.36-80.599C423.84,394.65,410.193,405.68,390.666,409.5z M327.933,297.388  c5.327-10.586,12.984-17.356,21.336-17.356c15.645,0,28.864,23.75,28.864,51.862c0,12.141-2.469,23.462-6.531,32.414  c-4.261-4.434-9.13-8.515-14.537-12.161c2.841-6.127,4.543-13.886,4.543-22.334c0-19.796-9.325-35.844-20.827-35.844  c-5.688,0-10.84,3.928-14.599,10.288C326.687,301.908,327.27,299.613,327.933,297.388z M349.269,323.54  c0,8.186-4.055,14.823-9.057,14.823c-5.002,0-9.057-6.636-9.057-14.823s4.055-14.823,9.057-14.823  C345.214,308.717,349.269,315.354,349.269,323.54z M251.181,297.388c0.663,2.225,1.245,4.52,1.751,6.87  c-3.759-6.36-8.911-10.288-14.599-10.288c-11.503,0-20.827,16.048-20.827,35.844c0,8.448,1.702,16.207,4.543,22.334  c-5.407,3.646-10.276,7.727-14.537,12.161c-4.062-8.952-6.531-20.274-6.531-32.414c0-28.112,13.219-51.862,28.864-51.862  C238.196,280.032,245.854,286.802,251.181,297.388z M247.957,323.54c0,8.186-4.055,14.823-9.057,14.823s-9.057-6.636-9.057-14.823  s4.055-14.823,9.057-14.823S247.957,315.354,247.957,323.54z M170.565,325.452c0-36.641,18.972-66.45,42.293-66.45  c11.334,0,21.632,7.055,29.233,18.5c-3.795-2.289-7.917-3.536-12.247-3.536c-19.587,0-34.93,25.445-34.93,57.928  c0,14.418,3.03,27.439,8.105,37.472c-3.848,4.763-6.994,9.875-9.386,15.244C179.954,373.59,170.565,351.218,170.565,325.452z   M289.557,588.458c-19.468,0-33.036-11.354-42.446-26.05c4.916-4.733,22.341-20.012,42.446-20.012  c20.133,0,37.577,15.32,42.465,20.03C322.612,577.113,309.04,588.458,289.557,588.458z M348.297,521.66  c-5.3,2.536-23.048,9.497-58.741,9.815c-35.65-0.318-53.4-7.263-58.723-9.807c-1.084-4.499-1.905-8.626-2.529-12.178  c26.396,13.308,61.252-3.625,61.252-3.625s34.865,16.937,61.262,3.62C350.197,513.037,349.379,517.162,348.297,521.66z   M289.557,473.637c-49.747,0-90.219-29.163-90.219-65.01c0-35.847,40.472-65.01,90.219-65.01s90.219,29.163,90.219,65.01  C379.776,444.474,339.304,473.637,289.557,473.637z M385.479,384.609c-2.392-5.369-5.538-10.482-9.386-15.244  c5.076-10.033,8.105-23.054,8.105-37.472c0-32.483-15.343-57.928-34.93-57.928c-4.33,0-8.452,1.248-12.247,3.536  c7.601-11.445,17.9-18.5,29.233-18.5c23.321,0,42.293,29.809,42.293,66.45C408.548,351.218,399.159,373.59,385.479,384.609z"></path>
<g id="_x3C_Group_x3E__-__x23_8B5035">
	<path id="_x23_8B5035_00000008831982505529354720000007065401753366846881_" fill="#8B5035" d="M105.713,353.968   c-8.491-11.467-16.651-22.485-22.269-35.656c-8.485,35.038-7.041,66.055,0.622,86.303c2.807,7.42,11.335,11.083,16.514,9.169   c5.626-2.076,6.332-11.115,1.841-23.586l-1.565-4.35l4.031-2.262c0.055-0.031,7.578-4.415,9.035-11.253   c0.796-3.739-0.346-7.654-3.493-11.966C108.839,358.188,107.264,356.061,105.713,353.968z"></path>
	<path id="_x23_8B5035" fill="#8B5035" d="M495.668,318.312c-5.617,13.171-13.778,24.189-22.269,35.656   c-1.551,2.093-3.126,4.22-4.716,6.399c-3.147,4.312-4.289,8.227-3.493,11.966c1.456,6.837,8.98,11.222,9.035,11.253l4.031,2.262   l-1.565,4.35c-4.491,12.471-3.784,21.51,1.841,23.586c5.179,1.915,13.707-1.748,16.514-9.169   C502.709,384.367,504.153,353.35,495.668,318.312z"></path>
</g>
<g id="_x3C_Group_x3E__-__x23_27A8E0">
	<path id="_x23_27A8E0_00000060726046135682771680000017931269821402784157_" fill="#27A8E0" d="M349.269,280.032   c-8.351,0-16.009,6.77-21.336,17.356c-0.663,2.225-1.245,4.52-1.751,6.87c3.759-6.36,8.911-10.288,14.599-10.288   c11.503,0,20.827,16.048,20.827,35.844c0,8.448-1.702,16.207-4.543,22.334c5.407,3.646,10.276,7.727,14.537,12.161   c4.062-8.952,6.531-20.274,6.531-32.414C378.132,303.781,364.914,280.032,349.269,280.032z"></path>
	<path id="_x23_27A8E0" fill="#27A8E0" d="M229.845,280.032c-15.645,0-28.864,23.75-28.864,51.861   c0,12.141,2.469,23.463,6.531,32.414c4.261-4.434,9.13-8.515,14.537-12.161c-2.841-6.127-4.543-13.886-4.543-22.334   c0-19.796,9.325-35.844,20.827-35.844c5.688,0,10.84,3.928,14.599,10.288c-0.506-2.35-1.089-4.645-1.751-6.87   C245.854,286.802,238.196,280.032,229.845,280.032z"></path>
</g>
<g id="_x3C_Group_x3E__-__x23_F2F2F3">
	<path id="_x23_F2F2F3_00000013915122255449204880000008415852192638334135_" fill="#F2F2F3" d="M289.557,505.866   c0,0-34.856,16.933-61.252,3.625c0.624,3.553,1.445,7.679,2.529,12.178c5.323,2.543,23.073,9.488,58.723,9.807   c35.692-0.319,53.441-7.28,58.741-9.815c1.081-4.498,1.9-8.623,2.521-12.174C324.421,522.803,289.557,505.866,289.557,505.866z"></path>
	<path id="_x23_F2F2F3_00000022556629685113410020000012084050443531449786_" fill="#F2F2F3" d="M331.156,323.54   c0-8.186,4.055-14.823,9.057-14.823c5.002,0,9.057,6.636,9.057,14.823s-4.055,14.823-9.057,14.823   C335.211,338.362,331.156,331.726,331.156,323.54z M366.255,259.002c-11.334,0-21.632,7.055-29.233,18.5   c3.795-2.289,7.917-3.536,12.247-3.536c19.587,0,34.93,25.445,34.93,57.928c0,14.418-3.03,27.439-8.105,37.472   c3.848,4.763,6.994,9.875,9.386,15.244c13.679-11.019,23.069-33.391,23.069-59.157   C408.548,288.811,389.576,259.002,366.255,259.002z"></path>
	<path id="_x23_F2F2F3_00000034775709058172091270000009327295409631208888_" fill="#F2F2F3" d="M238.901,308.717   c5.002,0,9.057,6.636,9.057,14.823s-4.055,14.823-9.057,14.823s-9.057-6.636-9.057-14.823S233.899,308.717,238.901,308.717z    M229.845,273.965c4.33,0,8.452,1.248,12.247,3.536c-7.601-11.445-17.899-18.5-29.233-18.5c-23.321,0-42.293,29.809-42.293,66.45   c0,25.767,9.389,48.138,23.069,59.157c2.392-5.369,5.538-10.482,9.386-15.244c-5.076-10.033-8.105-23.053-8.105-37.472   C194.915,299.41,210.257,273.965,229.845,273.965z"></path>
	<path id="_x23_F2F2F3" fill="#F2F2F3" d="M209.657,155.049c-10.332-24.321-9.563-46.918,2.3-65.556   c9.094-14.287,24.537-25.664,42.522-32.252l-38.688,74.004l23.005,15.223C229.614,148.551,219.816,151.326,209.657,155.049z    M288.517,122.656l-21.072-20.047l-13.835,40.975c15.059-2.441,27.587-3.012,35.947-3.012c7.949,0,19.671,0.518,33.75,2.667   l-13.719-40.63L288.517,122.656z M314.889,54.214c-8.193-2.112-16.741-3.255-25.333-3.255c-9.178,0-18.307,1.302-27.006,3.7   l25.967,28.472L314.889,54.214z M338.76,146.123c9.627,2.115,19.96,4.991,30.696,8.926c10.332-24.321,9.563-46.918-2.3-65.556   c-9.521-14.957-25.999-26.723-45.068-33.145l39.154,74.897L338.76,146.123z"></path>
</g>
<path id="_x23_FDD2B2" fill="#FDD2B2" d="M379.776,408.628c0,35.846-40.472,65.01-90.219,65.01  c-49.747,0-90.219-29.163-90.219-65.01c0-35.847,40.472-65.01,90.219-65.01C339.304,343.618,379.776,372.781,379.776,408.628z   M84.81,421.417c-4.839-2.948-8.881-7.452-10.957-12.937c-2.348-6.206-4.15-13.354-5.341-21.24  c-9.769-8.305-17.775-12.635-21.24-14.304c-0.713-0.344-0.671-1.395,0.078-1.651c7.58-2.589,15.503,1.507,19.915,4.498  c-0.774-11.216-0.394-23.594,1.34-36.757c-8.009-0.99-24.618-1.518-37.273,8.287c-11.631,9.011-17.678,24.946-17.978,47.364  c-0.577,43.286,33.667,86.96,72.985,96.157C75.213,458.106,81.246,432.077,84.81,421.417z M547.782,347.313  c-12.656-9.805-29.265-9.276-37.274-8.287c1.734,13.163,2.113,25.541,1.34,36.757c4.412-2.991,12.335-7.088,19.915-4.498  c0.749,0.256,0.791,1.308,0.078,1.651c-3.464,1.669-11.471,6-21.24,14.304c-1.191,7.886-2.992,15.034-5.341,21.24  c-2.076,5.485-6.118,9.989-10.957,12.937c3.564,10.66,9.598,36.688-1.528,69.416c39.317-9.197,73.562-52.871,72.985-96.157  C565.46,372.259,559.413,356.324,547.782,347.313z M459.864,353.93c-5.038,6.903-6.832,13.895-5.331,20.78  c1.63,7.485,6.885,12.833,10.566,15.774c-7.501,24.966,5.35,31.956,9.652,33.544c2.155,0.796,4.43,1.171,6.73,1.171  c0.008,0,0.017-0.001,0.025-0.001c3.727,10.752,12.42,46.04-14.546,88.533c-32.333,50.947-86.269,63.498-86.809,63.619l-2.782,0.622  l-1.485,2.442c-1.092,1.787-27.629,44.098-86.328,44.098s-85.235-42.311-86.328-44.098l-1.485-2.442l-2.782-0.622  c-0.54-0.121-54.476-12.672-86.809-63.619c-26.965-42.493-18.273-77.781-14.546-88.533c0.008,0,0.017,0.001,0.025,0.001  c2.3,0,4.575-0.375,6.73-1.171c4.302-1.588,17.153-8.578,9.652-33.544c3.68-2.941,8.935-8.288,10.566-15.774  c1.501-6.885-0.293-13.877-5.331-20.78c-1.604-2.2-3.196-4.347-4.76-6.461c-11.542-15.584-21.545-29.092-25.64-47.941  c3.525-10.569,7.96-21.381,13.377-32.267c2.317,0.423,5.39,0.793,9.078,0.793c8.813,0,21.096-2.132,34.694-10.688  c-0.068,6.633,0.461,13.287,1.6,19.703c0,0,5.633-20.1,20.004-34.094c5.944-5.789,13.384-10.529,22.539-12.373  c0.967-0.195,1.951-0.361,2.956-0.489c33.54-4.263,51.739,20.436,65.779,35.516c0,0-5.365-30.977-24.953-52.867  c18.45-5.836,37.598-9.662,55.633-9.662s37.183,3.826,55.633,9.662c-19.588,21.89-24.953,52.867-24.953,52.867  c14.04-15.08,32.24-39.779,65.779-35.516c1.005,0.128,1.989,0.294,2.956,0.489c9.155,1.843,16.595,6.584,22.539,12.373  c14.371,13.994,20.004,34.094,20.004,34.094c1.139-6.416,1.668-13.07,1.6-19.703c13.599,8.556,25.881,10.688,34.694,10.688  c3.687,0,6.761-0.37,9.078-0.793c5.417,10.886,9.852,21.698,13.377,32.267c-4.095,18.85-14.098,32.357-25.64,47.941  C463.059,349.583,461.468,351.73,459.864,353.93z M435.674,368.068c-11.834,26.582-25.481,37.612-45.008,41.432  c0.004-0.292,0.029-0.58,0.029-0.872c0-5.419-0.775-10.703-2.219-15.804c16.896-12.185,28.565-37.803,28.565-67.372  c0-41.324-22.783-74.943-50.786-74.943c-25.121,0-46.027,27.061-50.067,62.462c-1.194,5.909-1.848,12.264-1.848,18.923  c0,1.051,0.022,2.092,0.054,3.128c-7.95-1.513-16.269-2.323-24.837-2.323s-16.886,0.811-24.837,2.323  c0.032-1.036,0.054-2.077,0.054-3.128c0-6.659-0.654-13.014-1.848-18.923c-4.04-35.401-24.946-62.462-50.067-62.462  c-28.003,0-50.786,33.619-50.786,74.943c0,29.569,11.668,55.187,28.565,67.372c-1.444,5.101-2.219,10.385-2.219,15.804  c0,0.293,0.025,0.581,0.029,0.872c-19.527-3.82-33.174-14.85-45.008-41.432c-43.549,60.254,9.36,80.599,9.36,80.599  c1.56,51.999,57.199,43.159,57.199,43.159c2.557,4.391,5.479,7.999,8.654,10.95c1.064,8.312,3.975,25.993,11.021,43.905  c12.94,32.888,33.647,50.271,59.884,50.271s46.944-17.383,59.884-50.271c7.046-17.911,9.957-35.592,11.021-43.905  c3.175-2.951,6.097-6.558,8.654-10.95c0,0,55.639,8.84,57.199-43.159C426.315,448.667,479.224,428.322,435.674,368.068z"></path>
<g id="_x3C_Group_x3E__-__x23_E4232A">
	<path id="_x23_E4232A_00000077297284896157299790000001817206038168259991_" fill="#E4232A" d="M247.11,562.408   c9.41,14.697,22.978,26.05,42.446,26.05c19.483,0,33.055-11.344,42.464-26.032c-4.888-4.711-22.332-20.03-42.465-20.03   C269.451,542.395,252.026,557.674,247.11,562.408z"></path>
	<path id="_x23_E4232A" fill="#E4232A" d="M460.247,238.492c4.091,6.158,7.832,12.339,11.253,18.514   c-7.647,0.681-21.321-0.358-37.01-11.894c-0.783-0.575-1.601-1.162-2.432-1.751c-4.529-31.788-23.533-58.62-56.703-49.749   c-8.151,2.18-15.157,5.962-21.172,10.683c-21.209-7.219-43.606-12.113-64.626-12.113c-21.021,0-43.417,4.894-64.626,12.113   c-6.016-4.721-13.021-8.503-21.172-10.683c-33.169-8.871-52.173,17.961-56.703,49.749c-0.831,0.59-1.649,1.176-2.432,1.751   c-15.688,11.536-29.363,12.576-37.01,11.894c3.421-6.174,7.162-12.356,11.253-18.514c29.294-44.098,73.187-68.682,115.495-79.74   c19.233-5.027,38.138-7.26,55.195-7.26c17.057,0,35.962,2.232,55.195,7.26C387.059,169.81,430.952,194.393,460.247,238.492z    M246.992,142.324l17.476-51.758l24.049,22.88l24.049-22.88l17.336,51.345c0.808,0.146,1.623,0.299,2.443,0.456l20.13-13.321   L317.17,63.526l-28.654,29.12l-28.654-29.12l-35.305,65.519l20.603,13.634C245.775,142.557,246.384,142.44,246.992,142.324z    M516.202,155.805C457.778,68.843,342.945,13.346,289.557,13.346S121.335,68.843,62.911,155.805   c-37.659,56.056-45.645,114.082-23.784,172.566c12.444-4.089,24.668-3.467,31.619-2.546c5.702-29.351,18.014-61.746,39.026-93.376   c22.086-33.248,52.788-58.16,91.252-74.045c0.237-0.098,0.472-0.189,0.709-0.286c-14.296-33.805-6.383-58.351,3.059-73.185   c16.169-25.401,50.233-42.467,84.765-42.467c34.532,0,68.596,17.066,84.765,42.467c9.442,14.834,17.355,39.38,3.059,73.185   c0.237,0.097,0.472,0.188,0.709,0.286c38.465,15.884,69.166,40.797,91.252,74.045c21.012,31.63,33.324,64.025,39.026,93.376   c6.951-0.92,19.175-1.543,31.619,2.546C561.847,269.887,553.861,211.861,516.202,155.805z"></path>
</g>
<g>
</g>
<g>
</g>
<g>
</g>
<g>
</g>
<g>
</g>
</svg>
