<?xml version="1.0" encoding="UTF-8"?>
<!-- Generator: Adobe Illustrator 26.1.0, SVG Export Plug-In . SVG Version: 6.00 Build 0)  -->
<svg xmlns="http://www.w3.org/2000/svg" xmlns:xlink="http://www.w3.org/1999/xlink" version="1.1" id="Layer_1" x="0px" y="0px" width="641.857px" height="311.887px" viewBox="0 0 641.857 311.887" xml:space="preserve">
<path id="_x23_191919_00000021799625901447173510000012538651733353542311_" fill="#191919" d="M0.387,278.336l68.132,29.027  c0.347,0.148,0.746-0.037,0.857-0.397l17.863-57.733c0.165-0.534,0.89-0.611,1.163-0.123l15.553,27.803  c0.219,0.391,0.763,0.439,1.047,0.093l20.005-24.389c0.366-0.446,1.09-0.214,1.127,0.363l3.699,57.499  c0.025,0.386,0.386,0.661,0.764,0.582l56.908-11.836c0.083-0.017,0.168-0.018,0.251-0.002l39.52,7.701  c0.348,0.068,0.684-0.162,0.747-0.51l5.429-29.716c0.049-0.27,0.266-0.477,0.537-0.516l18.945-2.666  c0.332-0.047,0.644,0.173,0.712,0.501l6.565,31.824c0.07,0.34,0.4,0.561,0.742,0.496l44.787-8.496  c0.355-0.067,0.695,0.174,0.748,0.532l0.999,6.745c0.049,0.334,0.352,0.571,0.688,0.54l56.154-5.221  c0.327-0.03,0.577-0.305,0.577-0.633V285.05c0-0.633,0.823-0.877,1.169-0.347l14.946,22.924c0.171,0.263,0.508,0.361,0.794,0.233  l39.031-17.586c0.421-0.19,0.897,0.118,0.897,0.58v14.178c0,0.369,0.312,0.66,0.68,0.635l54.061-3.768  c0.29-0.02,0.529-0.234,0.581-0.52l6.591-35.841c0.118-0.639,1.005-0.711,1.224-0.1l8.871,24.731c0.066,0.185,0.214,0.328,0.4,0.39  l64.772,21.297c0.152,0.05,0.316,0.041,0.462-0.025l62.28-28.265c0.177-0.08,0.307-0.237,0.354-0.425l19.818-79.361  c0.045-0.18,0.009-0.371-0.098-0.522l-43.621-61.533c-0.104-0.146-0.264-0.242-0.442-0.264l-36.192-4.42  c-0.644-0.079-0.771-0.958-0.175-1.215l9.46-4.086c0.233-0.101,0.384-0.33,0.384-0.584v-22.389c0-0.186-0.081-0.362-0.223-0.483  l-13.867-11.866c-0.17-0.146-0.251-0.37-0.214-0.59l10.529-61.714c0.043-0.254-0.071-0.509-0.289-0.646L520.122,4.056  c-0.131-0.082-0.287-0.113-0.439-0.089l-65.272,10.537c-0.308,0.05-0.535,0.316-0.535,0.628v4.477c0,0.395-0.356,0.694-0.745,0.627  L388.949,9.064c-0.325-0.057-0.639,0.145-0.724,0.464l-3.884,14.639c-0.106,0.401-0.561,0.594-0.924,0.393l-31.07-17.261  c-0.13-0.072-0.281-0.097-0.427-0.069l-64.992,12.26c-0.306,0.058-0.525,0.328-0.518,0.639l0.269,12.68  c0.008,0.388-0.33,0.693-0.715,0.645l-36.59-4.574c-0.331-0.041-0.574-0.332-0.556-0.665l0.528-9.906  c0.018-0.34-0.235-0.634-0.574-0.667l-58.581-5.655c-0.351-0.034-0.663,0.224-0.695,0.576l-0.431,4.746  c-0.045,0.495-0.615,0.75-1.014,0.452L164.43,0.126c-0.126-0.094-0.282-0.138-0.438-0.124l-51.135,4.64  c-0.191,0.017-0.363,0.12-0.47,0.278L84.972,45.675c-0.071,0.105-0.108,0.229-0.108,0.355v22.107c0,0.221,0.115,0.426,0.303,0.542  l8.74,5.378c0.315,0.194,0.399,0.614,0.183,0.914L80.836,93.352c-0.077,0.107-0.119,0.235-0.12,0.367l-0.145,20.243  c-0.001,0.181,0.075,0.355,0.209,0.476l12.144,10.981c0.467,0.423,0.102,1.195-0.521,1.101l-33.854-5.092  c-0.287-0.043-0.567,0.113-0.68,0.38L0.051,257.913C0.017,257.992,0,258.076,0,258.162v19.589  C0,278.006,0.152,278.236,0.387,278.336z"></path>
<path id="_x23_191919" fill="#191919" d="M379.208,177.509l-3.195,25.706c-0.017,0.136-0.117,0.246-0.251,0.275l-24.404,5.347  c-0.197,0.043-0.385-0.103-0.391-0.304l-1.307-38.872c-0.007-0.217,0.197-0.379,0.406-0.322l28.906,7.82  C379.127,177.2,379.228,177.349,379.208,177.509z M248.996,180.034l-12.533-0.57c-0.151-0.007-0.283,0.1-0.309,0.248l-6.2,36.002  c-0.031,0.178,0.102,0.343,0.283,0.35l26.047,1.025c0.194,0.008,0.343-0.168,0.305-0.358l-7.314-36.458  C249.249,180.139,249.133,180.04,248.996,180.034z M573.628,196.079l-26.998-7.174c-0.386-0.102-0.792,0.063-0.997,0.405  l-14.714,24.522c-0.202,0.337-0.161,0.766,0.102,1.059l20.038,22.306c0.266,0.296,0.695,0.381,1.054,0.208l25.075-12.066  c0.346-0.166,0.547-0.535,0.5-0.916l-3.401-27.588C574.242,196.472,573.982,196.173,573.628,196.079z M335.271,74.323l18.235-3.035  c0.218-0.036,0.388-0.209,0.422-0.427l3.038-19.91c0.037-0.246-0.107-0.483-0.343-0.562l-23.637-7.911  c-0.347-0.116-0.7,0.159-0.672,0.524l2.365,30.856C334.7,74.157,334.975,74.372,335.271,74.323z M501.912,73.493l18.062-2.812  c0.319-0.05,0.569-0.301,0.616-0.62l3.186-21.305c0.052-0.349-0.15-0.686-0.482-0.804l-22.321-7.948  c-0.49-0.175-1.003,0.2-0.985,0.72l1.073,32.064C501.076,73.231,501.474,73.561,501.912,73.493z M641.838,203.779L622.02,283.14  c-0.047,0.188-0.177,0.345-0.354,0.425l-62.28,28.265c-0.145,0.066-0.31,0.075-0.462,0.025l-64.772-21.297  c-0.186-0.061-0.334-0.205-0.4-0.389l-8.871-24.731c-0.219-0.612-1.107-0.539-1.224,0.1l-6.591,35.841  c-0.053,0.286-0.292,0.499-0.581,0.52l-54.061,3.768c-0.368,0.026-0.68-0.266-0.68-0.635v-14.178c0-0.462-0.476-0.77-0.897-0.58  l-39.031,17.586c-0.286,0.129-0.623,0.03-0.794-0.233l-14.946-22.924c-0.346-0.53-1.169-0.285-1.169,0.347v14.753  c0,0.328-0.25,0.603-0.577,0.633l-56.154,5.221c-0.336,0.031-0.639-0.206-0.688-0.54l-0.999-6.745  c-0.053-0.358-0.393-0.599-0.748-0.532l-44.787,8.496c-0.341,0.065-0.671-0.156-0.742-0.496l-6.565-31.824  c-0.068-0.329-0.379-0.548-0.712-0.501l-18.945,2.666c-0.271,0.038-0.488,0.246-0.537,0.516l-5.429,29.716  c-0.064,0.348-0.4,0.578-0.747,0.51l-39.52-7.701c-0.083-0.016-0.168-0.016-0.251,0.002l-56.908,11.836  c-0.379,0.079-0.739-0.196-0.764-0.582l-3.699-57.499c-0.037-0.576-0.761-0.809-1.127-0.363l-20.005,24.389  c-0.284,0.347-0.828,0.298-1.047-0.093L88.402,249.11c-0.273-0.488-0.998-0.412-1.163,0.123l-17.863,57.733  c-0.111,0.36-0.51,0.545-0.857,0.397L0.387,278.336c-0.235-0.1-0.387-0.33-0.387-0.585v-19.589c0-0.085,0.017-0.17,0.051-0.249  l57.818-136.104c0.113-0.267,0.393-0.423,0.68-0.38l33.854,5.092c0.623,0.094,0.989-0.678,0.521-1.101l-12.144-10.981  c-0.135-0.122-0.211-0.295-0.209-0.476l0.145-20.243c0.001-0.132,0.043-0.26,0.12-0.367L94.089,74.97  c0.216-0.3,0.132-0.72-0.183-0.914l-8.74-5.378c-0.188-0.116-0.303-0.321-0.303-0.542V46.03c0-0.126,0.038-0.25,0.108-0.355  l27.414-40.754c0.107-0.159,0.28-0.261,0.47-0.278l51.135-4.64c0.156-0.014,0.312,0.03,0.438,0.124l23.623,17.635  c0.399,0.298,0.969,0.043,1.014-0.452l0.431-4.746c0.032-0.351,0.344-0.609,0.695-0.576l58.581,5.655  c0.339,0.033,0.592,0.327,0.574,0.667l-0.528,9.906c-0.018,0.333,0.225,0.624,0.556,0.665l36.59,4.574  c0.385,0.048,0.723-0.257,0.715-0.645l-0.269-12.68c-0.007-0.311,0.213-0.581,0.518-0.639L351.92,7.23  c0.146-0.028,0.297-0.003,0.427,0.069l31.07,17.261c0.362,0.201,0.817,0.008,0.924-0.393l3.884-14.639  c0.085-0.319,0.399-0.52,0.724-0.464l64.182,11.172c0.389,0.068,0.745-0.232,0.745-0.627v-4.477c0-0.312,0.227-0.578,0.535-0.628  l65.272-10.537c0.152-0.025,0.308,0.007,0.439,0.089l46.969,29.411c0.219,0.137,0.333,0.392,0.289,0.646l-10.529,61.714  c-0.038,0.221,0.043,0.445,0.214,0.59l13.867,11.866c0.141,0.121,0.223,0.297,0.223,0.483v22.389c0,0.254-0.151,0.483-0.384,0.584  l-9.46,4.086c-0.596,0.257-0.469,1.137,0.175,1.215l36.192,4.42c0.178,0.022,0.338,0.117,0.442,0.264l43.62,61.533  C641.847,203.408,641.883,203.599,641.838,203.779z M465.39,22.698l6.641,1.207c0.498,0.09,0.831,0.563,0.751,1.062l-5.367,33.16  c-0.01,0.065-0.012,0.13-0.005,0.196l7.021,66.313c0.042,0.399,0.396,0.691,0.796,0.658l26.814-2.25  c0.392-0.033,0.69-0.368,0.676-0.761l-1.146-32.662c-0.026-0.751,0.955-1.056,1.359-0.423l22.774,35.633  c0.194,0.303,0.577,0.422,0.908,0.283l32.093-13.513c0.504-0.212,0.61-0.881,0.196-1.239L531.537,86.72  c-0.377-0.326-0.33-0.923,0.094-1.186l17.027-10.549c0.18-0.112,0.304-0.296,0.339-0.505l6.376-37.87  c0.051-0.3-0.089-0.601-0.35-0.757l-36.848-21.915c-0.149-0.089-0.324-0.122-0.495-0.094l-52.284,8.458  C465.171,22.338,465.168,22.657,465.39,22.698z M379.767,91.037c-0.102,0.101-0.148,0.244-0.123,0.385l4.969,28.845  c0.035,0.203,0.207,0.354,0.413,0.363l76.204,3.122c0.279,0.011,0.497-0.237,0.449-0.512l-4.867-27.868  c-0.041-0.235-0.263-0.394-0.498-0.357l-37.045,5.788c-0.241,0.038-0.467-0.13-0.501-0.372l-2.424-17.343  c-0.04-0.289,0.208-0.536,0.497-0.493l29.785,4.391c0.241,0.036,0.465-0.133,0.497-0.374l2.835-20.981  c0.035-0.262-0.169-0.496-0.433-0.496h-30.527c-0.285,0-0.494-0.269-0.424-0.546l4.287-16.775c0.062-0.244,0.317-0.385,0.556-0.308  l33.834,10.765c0.251,0.08,0.516-0.079,0.563-0.338l4.768-26.127c0.044-0.239-0.116-0.467-0.355-0.509l-66.693-11.701  c-0.224-0.039-0.441,0.1-0.499,0.321l-2.378,9.148c-0.051,0.196,0.039,0.401,0.217,0.496l5.347,2.852  c0.163,0.087,0.254,0.267,0.227,0.45l-6.844,46.344c-0.014,0.094-0.058,0.18-0.125,0.247L379.767,91.037z M296.875,27.706  l0.872,6.628c0.031,0.232,0.215,0.414,0.448,0.441l7.556,0.879c0.292,0.034,0.495,0.306,0.445,0.596l-4.978,28.612  c-0.009,0.05-0.01,0.101-0.004,0.152l7.577,59.78c0.035,0.278,0.288,0.476,0.566,0.444l27.64-3.185  c0.272-0.031,0.471-0.271,0.452-0.544l-1.707-24.463c-0.02-0.285,0.198-0.531,0.483-0.546l25.352-1.344  c0.123-0.007,0.239-0.057,0.328-0.142l20.667-19.887c0.081-0.078,0.134-0.18,0.151-0.291l5.644-36.591  c0.033-0.214-0.072-0.426-0.263-0.528l-38.023-20.474c-0.103-0.056-0.222-0.074-0.338-0.052l-52.458,9.946  C297.021,27.188,296.84,27.437,296.875,27.706z M193.985,72.541c-0.012,0.156,0.056,0.307,0.182,0.4l6.902,5.107  c0.169,0.125,0.23,0.351,0.146,0.544l-8.455,21.058c-0.077,0.179-0.032,0.387,0.114,0.517l24.247,21.651  c0.08,0.071,0.182,0.112,0.29,0.115l49.573,1.352c0.135,0.004,0.264-0.053,0.353-0.154l18.532-21.176  c0.055-0.063,0.092-0.141,0.106-0.224l9.576-57.26c0.042-0.253-0.134-0.49-0.388-0.524l-39.669-5.199  c-0.28-0.037-0.525,0.189-0.511,0.472l2.517,50.347c0.012,0.247-0.176,0.458-0.422,0.474l-28.798,1.907  c-0.292,0.019-0.525-0.238-0.477-0.527l10.881-65.029c0.044-0.26-0.144-0.503-0.407-0.526l-40.284-3.534  c-0.265-0.023-0.492,0.185-0.492,0.451v2.47c0,0.124,0.051,0.243,0.142,0.329l7.286,6.896c0.164,0.155,0.189,0.407,0.058,0.591  l-8.795,12.417c-0.047,0.067-0.075,0.145-0.082,0.226L193.985,72.541z M121.167,122.288c0.079,0.067,0.18,0.103,0.284,0.102  l50.899-0.783c0.167-0.003,0.318-0.102,0.385-0.255l17.511-39.497c0.085-0.192,0.019-0.417-0.157-0.532l-50.488-33.139  c-0.193-0.126-0.251-0.382-0.132-0.58l7.648-12.684c0.127-0.211,0.406-0.272,0.609-0.132l29.305,20.051  c0.186,0.127,0.439,0.089,0.579-0.089l16.263-20.664c0.149-0.189,0.113-0.463-0.079-0.608L161.7,9.36  c-0.085-0.064-0.192-0.094-0.298-0.084l-43.266,4.111c-0.128,0.012-0.244,0.081-0.315,0.188L94.883,47.786  c-0.135,0.202-0.076,0.475,0.13,0.603l53.126,32.888c0.213,0.132,0.268,0.419,0.118,0.62L137.95,95.766  c-0.148,0.199-0.433,0.231-0.622,0.071L109.002,71.75c-0.189-0.16-0.474-0.128-0.622,0.071L90.532,95.81  c-0.135,0.181-0.106,0.437,0.067,0.583L121.167,122.288z M193.466,270.25l-25.62-124.859c-0.036-0.176-0.178-0.311-0.356-0.338  l-33.165-4.946c-0.18-0.027-0.358,0.063-0.442,0.225l-21.307,40.598c-0.175,0.334-0.666,0.295-0.786-0.064l-14.109-42.328  c-0.052-0.155-0.187-0.267-0.349-0.289l-32.285-4.363c-0.191-0.026-0.376,0.08-0.452,0.257L13.359,255.17  c-0.092,0.218,0.01,0.469,0.227,0.561l48.036,20.379c0.233,0.099,0.501-0.025,0.576-0.267l22.067-70.846  c0.112-0.361,0.604-0.41,0.785-0.078l20.238,37.056c0.146,0.267,0.515,0.301,0.707,0.066l28.519-34.793  c0.247-0.302,0.736-0.143,0.759,0.246l4.349,73.931c0.015,0.261,0.259,0.448,0.515,0.394l52.997-11.065  C193.365,270.707,193.514,270.482,193.466,270.25z M313.679,268.565l-41.88-121.51c-0.038-0.11-0.136-0.188-0.251-0.2l-60.568-6.468  c-0.145-0.015-0.28,0.076-0.32,0.216l-18.57,65.436c-0.013,0.045-0.015,0.093-0.006,0.139l13.274,68.731  c0.024,0.122,0.121,0.217,0.244,0.238l13.42,2.284c0.163,0.028,0.317-0.082,0.345-0.244l4.697-27.276  c0.022-0.127,0.123-0.226,0.25-0.245l37.451-5.674c0.158-0.024,0.307,0.08,0.338,0.237l6.612,32.962  c0.032,0.161,0.188,0.266,0.35,0.235l44.385-8.468C313.631,268.922,313.739,268.737,313.679,268.565z M428.457,257.456  l-37.61-31.657c-0.171-0.144-0.148-0.413,0.045-0.525l25.095-14.651c0.081-0.047,0.137-0.127,0.154-0.219l8.667-45.981  c0.025-0.134-0.036-0.269-0.154-0.338l-51.531-30.183c-0.065-0.038-0.141-0.052-0.215-0.04l-71.398,11.63  c-0.171,0.028-0.289,0.185-0.268,0.357l9.88,82.73c0.003,0.023,0.008,0.047,0.016,0.069l16.639,47.268  c0.048,0.137,0.182,0.225,0.327,0.215l24.766-1.738c0.173-0.012,0.306-0.159,0.3-0.333l-1.472-43.767  c-0.005-0.138,0.08-0.264,0.209-0.313l1.033-0.387c0.14-0.053,0.298-0.002,0.382,0.123l31.691,47.537  c0.087,0.131,0.257,0.18,0.401,0.115l42.967-19.371C428.598,257.899,428.639,257.608,428.457,257.456z M490.653,150.475  c0.025-0.137-0.062-0.269-0.197-0.302l-51.572-12.405c-0.161-0.039-0.317,0.08-0.324,0.245l-4.753,110.993  c-0.004,0.091,0.033,0.179,0.1,0.24l11.35,10.362c0.158,0.144,0.124,0.401-0.067,0.498c-1.985,1.002-10.839,5.471-12.174,6.134  c-0.103,0.051-0.168,0.156-0.168,0.272v10.717c0,0.153,0.13,0.273,0.282,0.262l34.956-2.629c0.119-0.009,0.217-0.098,0.239-0.215  L490.653,150.475z M627.081,200.634l-34.87-48.702c-0.146-0.203-0.37-0.337-0.618-0.367l-66.143-8.183  c-0.309-0.038-0.616,0.087-0.81,0.33l-28.667,35.955c-0.094,0.117-0.156,0.257-0.182,0.405l-7.818,44.957  c-0.026,0.15-0.014,0.304,0.037,0.448l13.598,39.046c0.092,0.264,0.302,0.47,0.569,0.557l56.306,18.314  c0.213,0.069,0.444,0.056,0.648-0.037l52.996-24.16c0.247-0.112,0.429-0.331,0.496-0.593l14.599-57.228  C627.286,201.12,627.235,200.849,627.081,200.634z"></path>
<g id="_x3C_Group_x3E__-__x23_45AF49">
	<path id="_x23_45AF49_00000140725074524119956920000001526757699327002811_" fill="#45AF49" d="M627.081,200.634l-34.87-48.702   c-0.146-0.203-0.37-0.337-0.618-0.367l-66.143-8.183c-0.309-0.038-0.616,0.087-0.81,0.33l-28.667,35.955   c-0.094,0.117-0.156,0.257-0.182,0.405l-7.818,44.957c-0.026,0.15-0.014,0.304,0.037,0.448l13.598,39.046   c0.092,0.264,0.302,0.47,0.569,0.557l56.306,18.314c0.213,0.069,0.444,0.056,0.648-0.037l52.996-24.16   c0.247-0.112,0.429-0.331,0.496-0.593l14.599-57.228C627.286,201.12,627.235,200.849,627.081,200.634z M577.188,225.339   l-25.075,12.066c-0.359,0.173-0.788,0.088-1.054-0.208l-20.038-22.306c-0.263-0.292-0.304-0.722-0.102-1.059l14.714-24.522   c0.205-0.342,0.612-0.507,0.998-0.405l26.998,7.174c0.353,0.094,0.614,0.393,0.659,0.756l3.401,27.588   C577.735,224.804,577.534,225.172,577.188,225.339z"></path>
	<path id="_x23_45AF49_00000050636161615784295890000010738794018499889830_" fill="#45AF49" d="M271.799,147.055   c-0.038-0.11-0.136-0.188-0.251-0.2l-60.568-6.468c-0.145-0.015-0.28,0.076-0.32,0.216l-18.57,65.436   c-0.013,0.045-0.015,0.093-0.006,0.139l13.274,68.731c0.024,0.122,0.121,0.217,0.244,0.238l13.42,2.284   c0.163,0.028,0.317-0.082,0.345-0.244l4.697-27.276c0.022-0.127,0.123-0.226,0.25-0.245l37.451-5.674   c0.158-0.024,0.307,0.08,0.338,0.237l6.612,32.962c0.032,0.161,0.188,0.266,0.35,0.235l44.385-8.468   c0.179-0.034,0.286-0.219,0.227-0.392L271.799,147.055z M256.284,217.09l-26.047-1.025c-0.181-0.007-0.314-0.172-0.283-0.35   l6.2-36.002c0.026-0.149,0.158-0.255,0.309-0.248l12.533,0.57c0.137,0.006,0.253,0.105,0.28,0.24l7.314,36.458   C256.627,216.922,256.478,217.097,256.284,217.09z"></path>
	<path id="_x23_45AF49" fill="#45AF49" d="M422.86,47.815c0.062-0.244,0.317-0.385,0.556-0.308l33.834,10.765   c0.251,0.08,0.516-0.079,0.563-0.338l4.768-26.127c0.044-0.239-0.116-0.467-0.355-0.509l-66.693-11.701   c-0.224-0.039-0.441,0.1-0.499,0.321l-2.378,9.148c-0.051,0.196,0.039,0.401,0.218,0.496l5.347,2.852   c0.163,0.087,0.254,0.267,0.227,0.45l-6.844,46.344c-0.014,0.094-0.058,0.18-0.125,0.247l-11.712,11.583   c-0.102,0.101-0.148,0.244-0.123,0.385l4.969,28.845c0.035,0.203,0.207,0.354,0.413,0.363l76.204,3.122   c0.279,0.011,0.497-0.237,0.449-0.512l-4.867-27.868c-0.041-0.235-0.263-0.394-0.498-0.357l-37.045,5.788   c-0.241,0.038-0.467-0.13-0.501-0.372l-2.424-17.343c-0.04-0.289,0.208-0.536,0.497-0.493l29.785,4.391   c0.241,0.036,0.465-0.133,0.497-0.374l2.835-20.981c0.035-0.262-0.169-0.496-0.433-0.496h-30.527c-0.285,0-0.494-0.269-0.424-0.546   L422.86,47.815z"></path>
</g>
<g id="_x3C_Group_x3E__-__x23_E42826">
	<path id="_x23_E42826_00000013174237398260920330000006941683357645811336_" fill="#E42826" d="M167.846,145.391   c-0.036-0.176-0.178-0.311-0.356-0.338l-33.165-4.946c-0.18-0.027-0.358,0.063-0.442,0.225l-21.307,40.598   c-0.175,0.334-0.666,0.295-0.786-0.064l-14.109-42.328c-0.052-0.155-0.187-0.267-0.349-0.289l-32.285-4.363   c-0.191-0.026-0.376,0.08-0.452,0.257L13.359,255.17c-0.092,0.218,0.01,0.469,0.227,0.561l48.036,20.379   c0.233,0.099,0.501-0.025,0.576-0.267l22.067-70.846c0.112-0.361,0.604-0.41,0.785-0.078l20.238,37.056   c0.146,0.267,0.515,0.301,0.707,0.066l28.519-34.793c0.247-0.302,0.736-0.143,0.759,0.246l4.349,73.931   c0.015,0.261,0.259,0.448,0.515,0.394l52.997-11.065c0.231-0.048,0.379-0.274,0.332-0.505L167.846,145.391z"></path>
	<path id="_x23_E42826" fill="#E42826" d="M388.105,37.717l-38.023-20.474c-0.103-0.056-0.222-0.074-0.338-0.052l-52.458,9.946   c-0.266,0.051-0.447,0.3-0.412,0.569l0.872,6.628c0.031,0.232,0.215,0.414,0.448,0.441l7.556,0.879   c0.292,0.034,0.495,0.306,0.445,0.596l-4.978,28.612c-0.009,0.05-0.01,0.101-0.003,0.152l7.577,59.78   c0.035,0.278,0.288,0.476,0.566,0.444l27.64-3.185c0.272-0.031,0.471-0.271,0.452-0.544l-1.707-24.463   c-0.02-0.285,0.198-0.531,0.483-0.546l25.352-1.344c0.123-0.007,0.239-0.057,0.328-0.142l20.667-19.887   c0.081-0.078,0.134-0.18,0.151-0.291l5.644-36.591C388.401,38.032,388.296,37.82,388.105,37.717z M353.928,70.86   c-0.033,0.219-0.203,0.391-0.422,0.427l-18.235,3.035c-0.296,0.049-0.571-0.166-0.594-0.465l-2.365-30.856   c-0.028-0.365,0.325-0.64,0.672-0.524l23.637,7.911c0.236,0.079,0.381,0.316,0.343,0.562L353.928,70.86z"></path>
</g>
<g id="_x3C_Group_x3E__-__x23_0B9BD7">
	<path id="_x23_0B9BD7_00000028302684424955801050000014566572839044861599_" fill="#0B9BD7" d="M490.456,150.173l-51.572-12.405   c-0.161-0.039-0.317,0.08-0.324,0.245l-4.754,110.993c-0.004,0.091,0.033,0.179,0.1,0.24l11.35,10.362   c0.158,0.144,0.124,0.401-0.067,0.498c-1.985,1.002-10.839,5.471-12.174,6.134c-0.103,0.051-0.168,0.156-0.168,0.272l0,10.717   c0,0.153,0.13,0.273,0.282,0.262l34.956-2.629c0.119-0.009,0.217-0.098,0.239-0.215l22.329-124.173   C490.677,150.338,490.591,150.206,490.456,150.173z"></path>
	<path id="_x23_0B9BD7" fill="#0B9BD7" d="M161.7,9.36c-0.085-0.064-0.192-0.094-0.298-0.084l-43.266,4.111   c-0.128,0.012-0.244,0.081-0.315,0.188L94.883,47.786c-0.135,0.202-0.076,0.475,0.13,0.603l53.126,32.888   c0.213,0.132,0.268,0.419,0.118,0.62L137.95,95.766c-0.148,0.199-0.433,0.231-0.622,0.071L109.002,71.75   c-0.189-0.16-0.474-0.128-0.622,0.071L90.532,95.81c-0.135,0.181-0.106,0.437,0.067,0.583l30.568,25.895   c0.079,0.067,0.18,0.103,0.284,0.102l50.899-0.783c0.167-0.003,0.318-0.102,0.385-0.255l17.511-39.497   c0.085-0.192,0.019-0.417-0.157-0.532l-50.488-33.139c-0.193-0.126-0.251-0.382-0.132-0.58l7.648-12.684   c0.127-0.211,0.406-0.272,0.609-0.132l29.305,20.051c0.186,0.127,0.439,0.089,0.579-0.089l16.263-20.664   c0.149-0.189,0.113-0.463-0.079-0.608L161.7,9.36z"></path>
</g>
<g id="_x3C_Group_x3E__-__x23_FBCF08">
	<path id="_x23_FBCF08_00000020361979617829577650000007313477595462133145_" fill="#FBCF08" d="M390.847,225.799   c-0.171-0.144-0.147-0.413,0.045-0.525l25.095-14.651c0.081-0.047,0.137-0.127,0.154-0.219l8.667-45.981   c0.025-0.134-0.036-0.269-0.154-0.338l-51.531-30.183c-0.065-0.038-0.141-0.052-0.215-0.04l-71.398,11.63   c-0.171,0.028-0.289,0.185-0.268,0.357l9.88,82.73c0.003,0.023,0.008,0.047,0.016,0.069l16.639,47.268   c0.048,0.137,0.182,0.225,0.327,0.215l24.766-1.738c0.173-0.012,0.306-0.159,0.3-0.333l-1.472-43.767   c-0.005-0.138,0.079-0.264,0.209-0.313l1.033-0.387c0.14-0.053,0.298-0.002,0.382,0.123l31.691,47.537   c0.087,0.131,0.257,0.18,0.401,0.115l42.967-19.371c0.217-0.098,0.257-0.388,0.075-0.541L390.847,225.799z M376.013,203.214   c-0.017,0.136-0.117,0.246-0.251,0.275l-24.404,5.347c-0.197,0.043-0.385-0.103-0.391-0.304l-1.307-38.872   c-0.007-0.217,0.197-0.379,0.406-0.322l28.906,7.82c0.155,0.042,0.256,0.192,0.236,0.351L376.013,203.214z"></path>
	<path id="_x23_FBCF08_00000095301657654012330330000003091242718842985617_" fill="#FBCF08" d="M558.9,110.361L531.537,86.72   c-0.377-0.326-0.33-0.923,0.094-1.186l17.027-10.549c0.18-0.112,0.304-0.296,0.339-0.505l6.376-37.87   c0.051-0.3-0.089-0.601-0.35-0.757l-36.848-21.915c-0.149-0.089-0.324-0.122-0.495-0.094l-52.284,8.458   c-0.223,0.036-0.226,0.356-0.004,0.396l6.641,1.207c0.498,0.09,0.831,0.563,0.751,1.062l-5.367,33.16   c-0.01,0.065-0.012,0.13-0.005,0.196l7.021,66.313c0.042,0.399,0.396,0.691,0.796,0.658l26.814-2.25   c0.392-0.033,0.69-0.368,0.676-0.761l-1.146-32.662c-0.026-0.751,0.955-1.056,1.359-0.423l22.774,35.633   c0.194,0.303,0.577,0.422,0.908,0.283l32.093-13.513C559.209,111.387,559.314,110.719,558.9,110.361z M520.59,70.061   c-0.048,0.319-0.297,0.57-0.616,0.62l-18.062,2.812c-0.438,0.068-0.836-0.262-0.851-0.705l-1.073-32.064   c-0.017-0.52,0.495-0.895,0.985-0.72l22.321,7.948c0.332,0.118,0.534,0.455,0.482,0.804L520.59,70.061z"></path>
	<path id="_x23_FBCF08" fill="#FBCF08" d="M295.162,43.948l-39.669-5.199c-0.28-0.037-0.525,0.189-0.511,0.472l2.517,50.347   c0.012,0.247-0.176,0.458-0.422,0.474l-28.798,1.907c-0.292,0.019-0.525-0.238-0.477-0.527l10.881-65.029   c0.044-0.26-0.144-0.503-0.407-0.526l-40.284-3.534c-0.265-0.023-0.492,0.185-0.492,0.451v2.47c0,0.124,0.051,0.243,0.142,0.329   l7.286,6.896c0.164,0.155,0.188,0.407,0.058,0.591l-8.795,12.417c-0.047,0.067-0.075,0.145-0.082,0.226l-2.124,26.828   c-0.012,0.156,0.056,0.307,0.182,0.4l6.902,5.107c0.169,0.125,0.23,0.351,0.146,0.544l-8.455,21.058   c-0.077,0.179-0.032,0.387,0.114,0.517l24.247,21.651c0.08,0.071,0.182,0.112,0.29,0.115l49.573,1.352   c0.135,0.004,0.264-0.053,0.353-0.154l18.532-21.176c0.055-0.063,0.092-0.141,0.106-0.224l9.576-57.26   C295.592,44.219,295.417,43.982,295.162,43.948z"></path>
</g>
<g>
</g>
<g>
</g>
<g>
</g>
<g>
</g>
<g>
</g>
</svg>
