<?xml version="1.0" encoding="iso-8859-1"?>
<!-- Generator: Adobe Illustrator 25.1.0, SVG Export Plug-In . SVG Version: 6.00 Build 0)  -->
<svg version="1.1" id="Layer_1" xmlns="http://www.w3.org/2000/svg" xmlns:xlink="http://www.w3.org/1999/xlink" x="0px" y="0px"
	 width="603.286px" height="720px" viewBox="0 0 603.286 720" enable-background="new 0 0 603.286 720" xml:space="preserve">
<path d="M586.784,302.008c-4.556-13.877-12.004-26.658-13.209-41.534c-7.153-48.514-22.998-96.284-45.669-129.582
	c-63.95-102.574-195.021-57.796-279.681,0.958c-8.657,7.965,0.664-18.514-20.054-32.634c-13.96-9.893-0.326-38.832-20.588-66.332
	c-12.844-19.551-33.264-29.864-58.899-29.812C91.188,3.093,46.15,28.42,19.045,78.967c-24.816,46.072-20.797,92.519,9.452,135.37
	c2.507,3.562,3.309,5.713,1.786,9.817c-19.503,63.544,35.801,55.669,28.408,81.338C7.811,482.133,105.782,615.331,259.042,661.554
	c9.396,19.409,31.176,19.908,46.159,6.27c1.991,29.353,34.915,63.66,59.605,42.599c2.699-2.302,3.705-2.175,6.611-0.541
	c17.743,9.972,34.89,4.055,40.978-15.371c0.906-2.891,1.951-2.367,4.227-1.478c28.487,11.126,46.495-10.389,40.117-39.715
	c-1.702-7.826-3.945-19.29,4.248-24.365C575.434,563.632,627.373,426.587,586.784,302.008z"/>
<path d="M178.103,601.485c-0.169-2.399,1.215-3.174,2.136-4.043c9.307-8.778,17.014-18.634,21.344-30.848
	c0.686-3.819,4.527-3.615,4.674,0.305C209.047,581.351,193.778,603.136,178.103,601.485z M480.922,371.947
	c8.66,19.661,4.027,55.38-24.084,51.274c-3.899-0.449-5.298,0.257-6.135,4.39c-2.945,16.341-22.523,19.828-36.23,16.027
	c-3.509-1.177-4.872,0.042-6.459,2.863c-8.836,15.711-20.056,29.397-35.178,39.479c-30.978,23.329-79.227,14.055-91.501-24.828
	c-6.727-16.837-7.801-34.545-6.692-52.457c-0.221-5.677,3.97-15.43-5.346-14.234c-33.031-17.205-4.203-35.856-26.062-48.779
	c-14.796-29.003,25.07-60.775,25.136-47.643c0.161,31.943,26.921,37.678,29.933,32.099c3.383-6.265-1.006-11.001-2.554-14.281
	c-1.479-3.134-4.388-16.501-5.037-24.677c-1.029-12.965,2.629-24.081,4.594-29.538c20.679-57.414,90.409-51.696,72.846,26.166
	c-0.565,2.765-1.133,4.906-1.557,7.837l31.597,11.142c1.205-3.791,2.379-7.484,3.541-11.139c0.716-2.253,4.587-11.775,5.321-13.036
	c21.433-36.856,68.123-28.478,70.721,13.482c0.159,2.563-0.502,12.807-0.858,15.203c-3.217,21.694-13.183,44.135-34.027,53.496
	c-11.535,1.526-13.078,9.766-11.333,13.895C436.357,390.038,469.999,385.032,480.922,371.947z M355.151,287.484
	c1.101-10.285-11.669-8.382-11.348,1.056C343.407,298.17,355.566,295.172,355.151,287.484z M360.715,270.795
	c3.278-11.144-4.746-19.351-16.077-15.988c-17.287,5.657-24.993,24.952-25.557,41.803c-0.079,2.39-1.466,5.985,1.09,6.915
	c2.348,0.854,4.915-1.917,7.274-3.292c3.282-5.647,2.573-13.578,5.967-19.62C339.107,267.299,350.165,263.228,360.715,270.795z
	 M305.072,313.143c0.764,1.214,1.501,2.625,3.057,0.978c3.113-3.295,7.149-5.534,6.564-11.585
	c-2.468-24.273,16.069-62.879,46.057-49.799c-2.001-10.304-6.872-17.342-16.657-19.516
	C307.415,227.288,290.482,286.778,305.072,313.143z M354.927,476.829c-9.201-22.598-36.361-33.192-58.095-22.414
	c-3.835,1.978-4.869,4.03-2.719,8.367c10.906,22.001,35.451,31.136,58.166,21.475C356.281,482.555,356.478,480.309,354.927,476.829z
	 M400.959,436.042c-16.979,14.541-42.856,7.079-53.838-11.625c-2.101-3.645-3.766-4.139-7.753-2.96
	c-23.16,7.288-42.477-6.325-51.894-26.905c-2.3,9.176-4.146,19.567,5.334,25.181c28.119,20.367,60.01,30.026,93.996,34.012
	C393.075,455.14,397.688,442.041,400.959,436.042z M341.745,309.413c-36.914,7.338-43.669,49.087-22.853,70.001
	c17.924,18.634,40.08,26.036,65.61,23.532C461.674,387.796,399.531,291.027,341.745,309.413z M424.147,308.962
	c0.404-9.562-12.489-6.295-11.572,2.205C412.63,321.147,424.901,317.422,424.147,308.962z M434.823,339.728
	c11.28-14.318,20.668-52.81-1.692-60.412c-6.683-3.616-26.586,10.991-13.693,10.672c11.563-3.609,18.977,9.228,17.048,19.121
	c0.028,19.958-17.341,26.193-7.689,33.811C431.758,345.695,433.378,341.559,434.823,339.728z M432.545,356.471
	c45.334-0.598,51.499-116.688-5.755-82.254c0.7,0.665,1.275,1.401,2.443,1.412c15.332,0.139,19.569,8.788,20.753,20.932
	c1.92,19.684-2.245,37.761-17.542,51.788C429.318,351.217,431.838,353.991,432.545,356.471z M460.987,628.953
	c-8.193,5.075-5.95,16.539-4.248,24.365c6.378,29.326-11.63,50.841-40.117,39.715c-2.276-0.889-3.321-1.414-4.227,1.478
	c-6.087,19.426-23.235,25.344-40.978,15.371c-2.906-1.633-3.912-1.76-6.611,0.541c-24.69,21.061-57.614-13.246-59.605-42.599
	c-14.983,13.638-36.764,13.14-46.159-6.27C105.782,615.331,7.811,482.133,58.69,305.493c7.393-25.668-47.911-17.794-28.408-81.338
	c1.523-4.105,0.721-6.256-1.786-9.817c-30.249-42.852-34.267-89.298-9.452-135.37C46.15,28.42,91.189,3.093,148.684,3.072
	c25.635-0.052,46.055,10.261,58.899,29.812c20.262,27.5,6.628,56.438,20.588,66.332c20.718,14.12,11.397,40.599,20.054,32.634
	c84.66-58.754,215.732-103.532,279.681-0.958c22.671,33.298,38.516,81.069,45.669,129.582c1.205,14.876,8.653,27.657,13.209,41.534
	C627.373,426.587,575.434,563.632,460.987,628.953z M203.061,217.231c28.019-3.218,29.455,16.622,35.177,8.658
	c27.338-34.224,65.626-60.176,108.586-69.987c5.298-1.13,7.172-2.914,6.911-8.477c1.11-66.637,121.299-65.856,140.907-2.52
	c6.815,17.067,8.064,34.07-6.863,48.34c-2.274,2.174-1.449,3.48,0.313,5.337c35.884,39.848,49.868,95.248,49.862,147.89
	c-1.293,8.779,8.515,7.161,12.668,2.768c10.934-9.682,13.306-22.857,13.18-36.184c-9.06-162.92-78.706-284.046-254.912-197.569
	C206.708,166.883,263.313,153.85,203.061,217.231z M493.237,350.616c6.955-10.79,19.103-15.616,25.96-27.036
	c4.09-6.812,6.128-13.389,3.332-20.198c-4.304-10.481-11.583-5.393-15.455-7.165c-5.817-2.661-16.816-22.247-22.539-12.108
	c0.501-15.593-1.693-31.646-17.82-37.024c0.001,0,0.001,0,0.002,0c-13.042-6.096-28.318-1.323-41.054,3.43
	c-1.025,0.409-4.029,4.053-4.245-0.993c3.885-6.224,8.064-12.336,13.778-16.928c4.215-3.388,2.546-4.891-0.711-7.215
	c-16.499-11.778-35.205-16.306-55.088-17.434c-10.752-2.018-0.584,14.894-4.984,28.793c-14.322-33.866-45.97-47.608-72.027-17.199
	c2.182-7.822-2.78-7.52-7.252-8.128c-6.769-0.358-11.891-5.246-17.767-7.387c-18.41,10.919-13.386,29.823-12.042,47.896
	c2.726,15.426,2.398,37.772-17.224,41.325c-1.509,0.298-2.407,0.65-2.574,2.469c-0.79,8.605-5.759,14.818-11.948,20.282
	c-20.022,5.607-26.902,29.278-27.705,48.151c-1.781,46.83,30.689,67.658,49.105,104.179c18.084,42.368,69.442,59.684,112.2,45.226
	c4.339-1.467,9.599-3.548,16.339-8.284c49.097-5.728,110.267-25.401,110.092-84.217c-7.133-12.619-4.866-24.677,1.836-36.486
	c0.951-1.675,1.015-2.41-0.273-3.959C487.617,371.523,487.044,360.67,493.237,350.616z M436.323,540.508
	c3.023-37.812-11.85-28.204-39.409-23.505c-2.634,0.332-3.949,1.528-4.225,4.011c-1.095,9.835-2.512,19.608-5.137,29.176
	c-0.686,2.5-0.257,4.092,2.994,4.157c14.069,0.284,28.05,1.303,41.515,5.938c8.507,2.756,3.274-15.016,4.658-19.773
	C436.586,540.51,436.454,540.509,436.323,540.508z M373.889,525.982c-34.837,15.524-76.791,11.889-105.098-15.131
	c-2.152-1.892-4.06-2.959-4.981,0.897c-2.108,8.83-4.107,17.686-6.095,26.294c0.067,4.215,2.958,5.677,5.903,6.87
	c8.824,3.574,17.277,7.872,25.33,12.922c10.669,4.579,23.075-0.296,33.979,5.757c3.301,1.332,6.594,4.644,11.034,2.429
	c10.716-5.347,22.199-8.25,33.97-10.121c2.726-0.433,4.823-1.529,5.487-4.546C373.081,546.522,384.309,521.841,373.889,525.982z
	 M135.113,515.316c-2.756,5.751-1.777,7.628,4.502,7.439c5.875-0.804,12.123,0.349,16.337-6.027
	c16.031-24.251,36.16-44.924,57.384-64.606c10.64-7.636,4.279-11.625-0.64-20.932c-18.871-28.272-24.147-58.834-17.945-92.231
	c-5.062-17.463-10.194-34.909-14.885-52.472c-1.415-5.296-3.594-6.171-8.126-3.701c-11.471,6.251-24.069,8.922-36.785,10.941
	c-56.373,11.602-64.273-16.985-48.15,32.193c16.774,49.875,35.776,99.818,65.45,143.603
	C157.931,475.638,138.001,505.82,135.113,515.316z M193.38,276.117c3.37,15.603,6.526,31.004,9.963,47.069
	c7.662-7.918,7.749-7.932,6.343-17.088c-2.58-16.7,7.477-33.216-2.36-49.188c-0.652-1.195-1.046-2.778,0.521-3.671
	c4.8-1.71,7.517,3.592,10.728,6.935c1.802-5.951,10.527-15.446,7.792-20.529c-4.115-5.34-9.334-8.501-16.057-8.861
	c-3.477-0.186-5.655,0.651-5.629,5.283C206.807,257.175,189.363,264.07,193.38,276.117z M292.316,191.846
	c-7.395,4.369,12.896,13.722,18.298,0.477c13.416-22.27,41.774-23.865,55.045-2.741c2.704,4.305,5.473,5.258,9.933,5.284
	c26.241,0.15,50.521,6.528,71.164,23.544c3.101,2.556,5.718,2.262,9.217,1.247c11.742-3.406,22.816-2.033,32.051,6.585
	c9.233,8.617,10.175,19.621,7.967,31.277c-4.534,17.041,25.793,35.707,21.886,21.454c-3.465-9.472-6.255-19.156-10.033-28.55
	C476.179,163.1,363.936,137.407,292.316,191.846z M368.833,153.091c40.402-2.555,76.497,8.982,107.876,34.647
	c2.926,2.393,4.588,1.946,6.871-0.23c13.176-16.94,9.664-38.628-5.363-55.552c-14.231-16.028-39.065-27.796-60.216-26.776
	c-26.126,1.259-55.255,10.079-55.521,41.369C362.316,151.078,362.816,153.472,368.833,153.091z M502.06,460.858
	c40.072,4.645,70.392-34.922,64.202-71.432c-3.55-20.943-31.086-32.013-30.73-17.374c0.085,3.486-0.421,7.174-1.612,10.485
	c-2.585,7.182,9.415,2.273,15.86,7.824c1.838,1.583,3.614,4.561-0.038,4.765c-31.518,1.756-19.716,20.54-38.965,28.637
	c-7.071,2.974-3.595,20.716-9.024,26.671C498.642,453.847,495.275,460.072,502.06,460.858z M189.807,229.666
	c-2.046-12.124-16.389,3.503-28.481-1.391c32.078-20.531,64.638-48.127,64.973-89.295c0.385-47.299-54.44-37.588-74.376-9.892
	c-11.856,12.724-14.05,39.4,9.764,37.72c10.748-0.758,20.455-4.002,29.741-9.129c2.135-1.178,4.161-3.259,7.076-1.876
	c-5.791,23.303-43.8,33.388-62.581,20.842c-3.934-2.628-4.415-1.051-5.991,1.894c-30.073,56.231-99.328-13.07-59.174-48.449
	c-6.144,97.643,103.495,40.867,6.648-36.127c25.383-5.949,43.769,20.828,52.644,42.048c3.546-8.422,7.819-15.298,13.788-20.825
	c2.864-2.652,2.782-5.038,1.509-8.23c-5.627-14.109-16.477-30.561-30.129-39.108c18.428-3.578,33.067,13.079,40.508,27.963
	c2.229,4.466,5.766,7.982,14.559,1.993c6.309-4.298,6.88-4.842,4.858-9.456c-7.597-17.327-18.656-30.591-33.71-42.043
	c20.901-5.541,39.131,12.833,44.752,31.025c2.956,8.997,6.52,13.545,16.772,12.267c4.183-0.521,5.072-1.064,4.497-4.718
	C189.077-59.319-13.598,54.989,23.971,165.454c20.897,61.446,72.507,73.67,47.504,74.537c-13.087,0.454-24.086-13.355-26.29-4.454
	C26.033,312.907,200.214,291.335,189.807,229.666z M134.07,480.312c2.098-4.161,1.942-7.299-0.512-11.358
	c-21.494-35.548-38.933-73.064-53.503-111.933c-3.555-9.483-6.926-19.034-10.699-29.426c-17.958,70.885-2.712,151.933,38.9,209.03
	C117.622,518.658,124.251,498.429,134.07,480.312z M139.614,536.148c-13.731-0.276-13.639,0.504-17.756,13.991
	c-2.462,5.213,4.405,8.571,6.715,12.599c2.287,2.693,4.056,2.813,5.383-0.906c2.572-7.206,4.968-14.483,8.602-21.27
	C144.207,537.484,143.445,535.738,139.614,536.148z M187.872,610.297c18.327-9.28,27.85-24.329,29.109-45.676
	c-7.064-48.654-60.793-13.029-57.97,22.8c-0.329,8.687,18.843,15.991,24.843,22.955
	C185.642,611.811,186.766,610.857,187.872,610.297z M231.729,588.654c10.186-29.412,13.801-60.45,21.82-90.412
	c1.457-6.4-5.026-10.354-7.3-15.621c-5.792-6.138-10.57-36.054-21.674-23.008c-16.251,10.731-100.939,108.699-75.647,121.975
	c3.861-21.643,12.746-42.354,35.383-49.317c51.683-15.465,54.589,59.413,19.71,81.099c-1.484,1.179-5.482,1.779-3.463,4.884
	C212.114,632.276,229.585,597.992,231.729,588.654z M276.475,570.785c2.486-2.677,1.669-4.037-0.987-5.261
	c-4.996-2.301-10.02-4.548-15.085-6.692c-6.415-2.717-6.459-2.654-7.686,4.409c-4.386,24.091-9.596,49.447-29.68,65.99
	C280.58,655.999,229.86,622.037,276.475,570.785z M471.488,597.036c-35.815-33.44-95.121-40.363-137.509-15.621
	c-2.612,1.685-3.924,0.167-5.747-0.892c-17.577-10.209-37.54-5.853-49.162,10.836c-10.947,15.177-21.858,63.404,2.983,69.217
	c9.199,0.369,24.363-11.489,24.268-21.46c0.68-14.043,5.872-31.539,20.225-37.604c-11.933,27.254-17.205,101.405,27.678,96.371
	c1.795-0.76,3.519-1.536,1.841-4.322c-13.847-26.143-12.2-60.922,4.416-85.291c2.939-5.545,7.675-4.256,4.708,2.207
	c-5.387,26.372-10.068,59.107,7.503,81.77c10.345,12.403,31.81,1.843,27.475-13.331c-12.438-14.599-14.489-61.154,4.891-69.414
	c1.68,0.817,0.744,2.469,0.537,3.719c-15.191,58.732,35.658,93.805,37.111,42.921c0.585-10.241-4.092-33.427,6.362-38.188
	c7.413-4.161,14.439-9.003,21.83-13.204C475.383,602.201,475.135,599.974,471.488,597.036z M469.612,550.796
	c-5.494-6.793-11.436-13.271-19.202-20.016c0,12.396,0.058,23.072-0.039,33.746c-0.025,2.754,1.843,3.64,3.692,4.829
	c9.949,6.4,20.293,12.273,28.194,21.395c2.738,3.161,5.255,1.239,7.664-0.68C500.646,586.126,473.384,556.917,469.612,550.796z
	 M581.735,348.79c-0.919-7.126-1.823-14.393-4.946-22.228c-3.059,24.601-19.414,30.264-12.529,33.247
	c45.736,47.697-13.254,128.567-69.325,114.457c-2.717-0.426-4.711-0.148-6.59,2.429c-11.044,15.148-28.836,22.38-45.884,29.292
	c24.086,18.625,44.397,40.256,59.593,66.752c2.479,4.173,3.676,3.594,6.538,0.618C569.254,510.298,592.875,435.179,581.735,348.79z"
	/>
<path fill="#F8CEAF" d="M193.38,276.117c-4.017-12.047,13.427-18.942,11.301-40.049c-0.026-4.632,2.152-5.47,5.629-5.283
	c6.724,0.36,11.942,3.521,16.057,8.861c2.735,5.082-5.991,14.578-7.792,20.529c-3.211-3.342-5.928-8.645-10.728-6.935
	c-1.567,0.893-1.174,2.476-0.521,3.671c9.837,15.972-0.219,32.488,2.36,49.188c1.407,9.156,1.319,9.169-6.343,17.088
	C199.906,307.121,196.75,291.72,193.38,276.117z M341.745,309.413c-36.915,7.338-43.669,49.087-22.853,70.001
	c17.924,18.634,40.08,26.036,65.61,23.532C461.674,387.796,399.531,291.027,341.745,309.413z M566.262,389.426
	c-3.55-20.943-31.086-32.013-30.73-17.374c0.085,3.486-0.421,7.174-1.612,10.485c-2.585,7.182,9.415,2.273,15.86,7.824
	c1.838,1.583,3.614,4.561-0.038,4.765c-31.518,1.756-19.716,20.54-38.965,28.637c-7.071,2.974-3.595,20.716-9.024,26.671
	c-3.111,3.413-6.479,9.637,0.307,10.424C542.133,465.503,572.452,425.937,566.262,389.426z M493.237,350.616
	c-6.193,10.055-5.62,20.907,1.933,29.989c1.288,1.549,1.223,2.284,0.273,3.959c-6.702,11.809-8.969,23.867-1.836,36.486
	c0.175,58.816-60.995,78.489-110.092,84.217c-6.74,4.736-12.001,6.817-16.339,8.284c-42.758,14.457-94.116-2.858-112.2-45.226
	c-18.416-36.521-50.885-57.348-49.105-104.179c0.803-18.873,7.683-42.544,27.705-48.151c6.189-5.464,11.158-11.677,11.948-20.282
	c0.167-1.819,1.065-2.171,2.574-2.469c19.622-3.553,19.951-25.899,17.224-41.325c-1.344-18.073-6.368-36.977,12.042-47.896
	c5.876,2.141,10.998,7.029,17.767,7.387c4.472,0.608,9.434,0.305,7.252,8.128c26.057-30.409,57.705-16.667,72.027,17.199
	c4.399-13.899-5.769-30.812,4.984-28.793c19.883,1.128,38.589,5.656,55.088,17.434c3.257,2.325,4.926,3.827,0.711,7.215
	c-5.714,4.592-9.893,10.704-13.778,16.928c0.217,5.046,3.22,1.403,4.245,0.993c12.736-4.753,28.012-9.526,41.054-3.43
	c-0.001,0-0.001,0-0.002,0c16.128,5.378,18.321,21.431,17.82,37.024c5.723-10.139,16.723,9.447,22.539,12.108
	c3.873,1.772,11.151-3.316,15.455,7.165c2.796,6.81,0.758,13.387-3.332,20.198C512.34,334.999,500.192,339.825,493.237,350.616z
	 M366.597,295.644c0.424-2.931,0.992-5.072,1.557-7.837c17.563-77.862-52.167-83.58-72.846-26.166
	c-1.965,5.457-5.624,16.573-4.594,29.538c0.649,8.176,3.559,21.542,5.037,24.677c1.548,3.28,5.937,8.016,2.554,14.281
	c-3.012,5.579-29.773-0.155-29.933-32.099c-0.066-13.131-39.932,18.641-25.136,47.643c21.859,12.923-6.969,31.573,26.062,48.779
	c9.316-1.197,5.125,8.556,5.346,14.234c-1.109,17.912-0.035,35.62,6.692,52.457c12.275,38.883,60.523,48.157,91.501,24.828
	c15.122-10.081,26.342-23.768,35.178-39.479c1.587-2.821,2.95-4.04,6.459-2.863c13.707,3.801,33.285,0.314,36.23-16.027
	c0.838-4.133,2.236-4.839,6.135-4.39c28.111,4.107,32.745-31.613,24.084-51.274c-10.924,13.085-44.565,18.09-49.362,6.741
	c-1.745-4.129-0.201-12.37,11.333-13.895c20.843-9.362,30.809-31.802,34.027-53.496c0.355-2.396,1.016-12.64,0.858-15.203
	c-2.598-41.96-49.288-50.338-70.721-13.482c-0.734,1.262-4.605,10.783-5.321,13.036c-1.162,3.655-2.336,7.348-3.542,11.139"/>
<g>
	<path fill="#0965AA" d="M436.718,540.512c-0.132-0.001-0.264-0.002-0.395-0.003c3.023-37.812-11.85-28.204-39.409-23.505
		c-2.634,0.332-3.949,1.528-4.225,4.011c-1.095,9.835-2.512,19.608-5.137,29.176c-0.686,2.5-0.257,4.092,2.994,4.157
		c14.069,0.284,28.05,1.303,41.515,5.938C440.568,563.04,435.335,545.269,436.718,540.512z"/>
	<path fill="#0965AA" d="M142.558,540.562c-3.634,6.787-6.03,14.064-8.602,21.27c-1.327,3.719-3.096,3.599-5.383,0.906
		c-2.31-4.028-9.177-7.386-6.715-12.599c4.116-13.487,4.024-14.267,17.756-13.991C143.445,535.738,144.207,537.484,142.558,540.562z
		 M253.549,498.242c1.457-6.4-5.026-10.354-7.3-15.621c-5.792-6.138-10.57-36.054-21.674-23.008
		c-16.251,10.731-100.939,108.699-75.647,121.975c3.861-21.643,12.746-42.354,35.383-49.317
		c51.683-15.465,54.589,59.413,19.71,81.099c-1.484,1.179-5.482,1.779-3.463,4.884c11.556,14.021,29.027-20.263,31.171-29.601
		C241.915,559.242,245.53,528.204,253.549,498.242z M275.488,565.525c-4.996-2.301-10.02-4.548-15.085-6.692
		c-6.415-2.717-6.459-2.654-7.686,4.409c-4.386,24.091-9.596,49.447-29.68,65.99c57.543,26.767,6.822-7.195,53.438-58.447
		C278.962,568.109,278.145,566.748,275.488,565.525z"/>
</g>
<g>
	<path fill="#F7F7F8" d="M368.833,153.091c40.402-2.555,76.497,8.982,107.876,34.647c2.926,2.393,4.588,1.946,6.871-0.23
		c13.176-16.94,9.664-38.628-5.363-55.552c-14.231-16.028-39.065-27.796-60.216-26.776c-26.126,1.259-55.255,10.079-55.521,41.369
		C362.316,151.078,362.816,153.472,368.833,153.091z"/>
	<path fill="#F7F7F8" d="M360.75,252.738c-29.988-13.08-48.524,25.526-46.057,49.799c0.586,6.05-3.451,8.29-6.564,11.585
		c-1.556,1.647-2.294,0.236-3.057-0.978c-14.591-26.366,2.342-85.855,39.02-79.922C353.878,235.396,358.749,242.434,360.75,252.738z
		 M412.575,311.167c0.056,9.98,12.327,6.255,11.572-2.205C424.551,299.4,411.658,302.668,412.575,311.167z M343.803,288.54
		c-0.396,9.631,11.763,6.632,11.348-1.056C356.252,277.199,343.482,279.102,343.803,288.54z M426.79,274.218
		c0.7,0.665,1.275,1.401,2.443,1.412c15.332,0.139,19.569,8.788,20.753,20.932c1.92,19.684-2.245,37.761-17.542,51.788
		c-3.127,2.867-0.606,5.641,0.101,8.122C477.879,355.873,484.044,239.783,426.79,274.218z"/>
	<path fill="#F7F7F8" d="M471.488,597.036c-35.815-33.44-95.121-40.363-137.509-15.621c-2.612,1.685-3.924,0.167-5.747-0.892
		c-17.577-10.209-37.54-5.853-49.162,10.836c-10.947,15.177-21.858,63.404,2.983,69.217c9.199,0.369,24.363-11.489,24.268-21.46
		c0.68-14.043,5.872-31.539,20.225-37.604c-11.933,27.254-17.205,101.405,27.678,96.371c1.795-0.76,3.519-1.536,1.841-4.322
		c-13.847-26.143-12.2-60.922,4.416-85.291c2.939-5.545,7.675-4.256,4.708,2.207c-5.387,26.372-10.068,59.107,7.503,81.77
		c10.345,12.403,31.81,1.843,27.475-13.331c-12.438-14.599-14.489-61.154,4.891-69.414c1.68,0.817,0.744,2.469,0.537,3.719
		c-15.191,58.732,35.658,93.805,37.111,42.921c0.585-10.241-4.092-33.427,6.362-38.188c7.413-4.161,14.439-9.003,21.83-13.204
		C475.383,602.201,475.135,599.974,471.488,597.036z"/>
	<path fill="#F7F7F8" d="M581.735,348.79c-0.919-7.126-1.823-14.393-4.946-22.228c-3.059,24.601-19.414,30.264-12.529,33.247
		c45.736,47.697-13.254,128.567-69.325,114.457c-2.717-0.426-4.711-0.148-6.59,2.429c-11.044,15.148-28.836,22.38-45.884,29.292
		c24.086,18.625,44.397,40.256,59.593,66.752c2.479,4.173,3.676,3.594,6.538,0.618C569.254,510.298,592.875,435.179,581.735,348.79z
		"/>
	<path fill="#F7F7F8" d="M151.922,129.088c-11.856,12.724-14.05,39.4,9.764,37.72c10.748-0.758,20.455-4.002,29.741-9.129
		c2.135-1.178,4.161-3.259,7.076-1.876c-5.791,23.303-43.8,33.388-62.581,20.842c-3.934-2.628-4.415-1.051-5.991,1.894
		c-30.073,56.231-99.328-13.07-59.174-48.449c-6.144,97.643,103.495,40.867,6.648-36.127c25.383-5.949,43.769,20.828,52.644,42.048
		c3.546-8.422,7.819-15.298,13.788-20.825c2.864-2.652,2.782-5.038,1.509-8.23c-5.627-14.109-16.477-30.561-30.129-39.108
		c18.428-3.578,33.067,13.079,40.508,27.963c2.229,4.466,5.766,7.982,14.559,1.993c6.309-4.298,6.88-4.842,4.858-9.456
		c-7.597-17.327-18.656-30.591-33.71-42.043c20.901-5.541,39.131,12.833,44.752,31.025c2.956,8.997,6.52,13.545,16.772,12.267
		c4.183-0.521,5.072-1.064,4.497-4.718C189.077-59.319-13.598,54.989,23.971,165.454c20.897,61.446,72.507,73.67,47.504,74.537
		c-13.087,0.454-24.086-13.355-26.29-4.454c-19.152,77.369,155.029,55.797,144.622-5.871c-2.046-12.124-16.389,3.503-28.481-1.391
		c32.078-20.531,64.638-48.127,64.973-89.295C226.683,91.681,171.858,101.392,151.922,129.088z"/>
	<path fill="#F7F7F8" d="M80.055,357.022c-3.555-9.483-6.926-19.034-10.699-29.426c-17.958,70.885-2.712,151.933,38.9,209.03
		c9.366-17.968,15.995-38.196,25.813-56.313c2.098-4.161,1.942-7.299-0.512-11.358C112.064,433.406,94.625,395.891,80.055,357.022z"
		/>
	<path fill="#F7F7F8" d="M292.808,419.732c28.119,20.367,60.01,30.026,93.996,34.012c6.272,1.396,10.885-11.703,14.155-17.702
		c-16.979,14.541-42.856,7.079-53.838-11.625c-2.101-3.645-3.766-4.139-7.753-2.96c-23.16,7.288-42.477-6.325-51.894-26.905
		C285.173,403.727,283.327,414.118,292.808,419.732z"/>
</g>
<g>
	<path fill="#E12329" d="M373.889,525.982c-34.837,15.524-76.791,11.889-105.098-15.131c-2.152-1.892-4.06-2.959-4.981,0.897
		c-2.108,8.83-4.107,17.686-6.095,26.294c0.067,4.215,2.958,5.677,5.903,6.87c8.824,3.574,17.277,7.872,25.33,12.922
		c10.669,4.579,23.075-0.296,33.979,5.757c3.301,1.332,6.594,4.644,11.034,2.429c10.716-5.347,22.199-8.25,33.97-10.121
		c2.726-0.433,4.823-1.529,5.487-4.546C373.081,546.522,384.309,521.841,373.889,525.982z"/>
	<path fill="#E12329" d="M194.751,338.958c-5.062-17.463-10.194-34.909-14.885-52.472c-1.415-5.296-3.594-6.171-8.126-3.701
		c-11.471,6.251-24.069,8.922-36.785,10.941c-56.373,11.602-64.273-16.985-48.15,32.193c16.774,49.875,35.776,99.818,65.45,143.603
		c5.676,6.115-14.254,36.298-17.142,45.793c-2.756,5.751-1.777,7.628,4.502,7.439c5.875-0.804,12.123,0.349,16.337-6.027
		c16.031-24.251,36.16-44.924,57.384-64.606c10.64-7.636,4.279-11.625-0.64-20.932C193.824,402.917,188.548,372.356,194.751,338.958
		z"/>
	<path fill="#E12329" d="M352.279,484.257c4.002-1.702,4.199-3.947,2.648-7.428c-9.201-22.598-36.361-33.192-58.095-22.414
		c-3.835,1.978-4.869,4.03-2.719,8.367C305.019,484.783,329.564,493.917,352.279,484.257z"/>
	<path fill="#E12329" d="M450.41,530.78c0,12.396,0.058,23.072-0.039,33.746c-0.025,2.754,1.843,3.64,3.692,4.829
		c9.949,6.4,20.293,12.273,28.194,21.395c2.738,3.161,5.255,1.239,7.664-0.68c10.727-3.944-16.535-33.152-20.308-39.274
		C464.118,544.003,458.176,537.525,450.41,530.78z"/>
	<path fill="#E12329" d="M563.803,313.056c0.127,13.326-2.246,26.502-13.18,36.184c-4.153,4.393-13.961,6.011-12.668-2.768
		c0.006-52.642-13.978-108.042-49.862-147.89c-1.762-1.856-2.587-3.163-0.313-5.337c14.927-14.271,13.678-31.274,6.863-48.34
		c-19.608-63.336-139.797-64.117-140.907,2.52c0.26,5.563-1.613,7.347-6.911,8.477c-42.96,9.811-81.248,35.763-108.586,69.987
		c-5.722,7.964-7.158-11.876-35.177-8.658c60.252-63.381,3.647-50.348,105.829-101.744
		C485.097,29.01,554.743,150.136,563.803,313.056z M507.843,250.423c-31.664-87.323-143.907-113.016-215.527-58.577
		c-7.395,4.369,12.896,13.722,18.298,0.477c13.416-22.27,41.774-23.865,55.045-2.741c2.704,4.305,5.473,5.258,9.933,5.284
		c26.241,0.15,50.521,6.528,71.164,23.544c3.101,2.556,5.718,2.262,9.217,1.247c11.742-3.406,22.816-2.033,32.051,6.585
		c9.233,8.617,10.175,19.621,7.967,31.277c-4.534,17.041,25.793,35.707,21.886,21.454
		C514.411,269.501,511.622,259.817,507.843,250.423z M391.519,147.193c5.134-3.461,23.83-23.634,28.534-14.949
		c2.572,4.445,5.717,8.553,8.364,12.957c4.669,8.907,14.635-2.107,21.386-3.505c10.774-6.927,7.213,32.228,16.622,29.343
		c4.217-1.846,15.136-0.615,10.788-8.495c-4.679-11.345-9.918-22.408-15.318-33.415c-3.028-7.478-16.316,3.835-21.685,5.136
		c-3.297,1.695-5.332,1.285-7.216-2.035c-15.885-27.753-10.054-16.451-40.142-4.676c-12.722,6.107-12.64,6.052-6.383,18.587
		C387.953,149.116,389.089,149.361,391.519,147.193z"/>
</g>
<path fill="#2EC1F0" d="M434.823,339.728c-1.445,1.831-3.064,5.967-6.025,3.193c-9.651-7.618,7.717-13.853,7.689-33.811
	c1.929-9.893-5.485-22.731-17.048-19.121c-12.893,0.319,7.009-14.289,13.693-10.672
	C455.491,286.918,446.102,325.411,434.823,339.728z M344.638,254.807c-17.287,5.657-24.993,24.952-25.557,41.803
	c-0.079,2.39-1.466,5.985,1.09,6.915c2.348,0.854,4.915-1.917,7.274-3.292c3.282-5.647,2.573-13.578,5.967-19.62
	c5.694-13.314,16.752-17.386,27.303-9.818C363.993,259.651,355.969,251.443,344.638,254.807z"/>
<path fill="#FAED1E" d="M159.012,587.421c-0.329,8.687,18.843,15.991,24.843,22.955c1.787,1.435,2.912,0.481,4.017-0.079
	c18.327-9.28,27.85-24.329,29.109-45.676C209.918,515.967,156.189,551.591,159.012,587.421z M178.103,601.485
	c-0.169-2.399,1.215-3.174,2.136-4.043c9.307-8.778,17.014-18.634,21.344-30.848c0.686-3.819,4.527-3.615,4.674,0.305
	C209.047,581.351,193.778,603.136,178.103,601.485z"/>
<g>
</g>
<g>
</g>
<g>
</g>
<g>
</g>
<g>
</g>
</svg>
