<?xml version="1.0" encoding="UTF-8"?>
<!-- Generator: Adobe Illustrator 26.1.0, SVG Export Plug-In . SVG Version: 6.00 Build 0)  -->
<svg xmlns="http://www.w3.org/2000/svg" xmlns:xlink="http://www.w3.org/1999/xlink" version="1.1" id="Layer_1" x="0px" y="0px" width="640.883px" height="609.375px" viewBox="0 0 640.883 609.375" xml:space="preserve">
<path id="_x23_191919" d="M495.451,426.076c-0.357-0.222-0.814-0.144-1.07,0.19c-32.011,41.929-85.335,88.436-173.94,88.436  c-88.605,0-141.929-46.507-173.94-88.436c-0.255-0.334-0.712-0.412-1.07-0.19c-4.983,3.096-37.546,25.086-32.947,68.397  c4.378,41.222,39.345,40.013,46.18,39.377c0.561-0.052,0.985,0.455,0.85,1.002c-1.331,5.424-5.609,29.017,16.489,42.561  c22.469,13.771,46.236,1.573,50.948-1.12c0.441-0.252,0.981-0.049,1.151,0.429c1.928,5.41,13.137,32.653,43.383,32.653  c29.513,0,44.963-20.938,48.273-26.01c0.325-0.498,1.039-0.498,1.364,0c3.31,5.073,18.76,26.01,48.273,26.01  c30.246,0,41.455-27.243,43.383-32.653c0.171-0.479,0.71-0.681,1.151-0.429c4.712,2.693,28.479,14.891,50.948,1.12  c22.099-13.544,17.821-37.137,16.489-42.561c-0.134-0.547,0.289-1.054,0.85-1.002c6.835,0.636,41.803,1.846,46.18-39.377  C532.997,451.162,500.434,429.172,495.451,426.076z"></path>
<path id="_x23_ED2024" fill="#ED2024" d="M539.207,349.215c0.921,1.056,0.641,2.699-0.571,3.402  c-25.533,14.809-44.687,14.535-73.758,5.107c-29.939-9.71-97.91-37.222-144.437-37.222s-114.497,27.512-144.437,37.222  c-29.072,9.429-48.225,9.702-73.758-5.107c-1.212-0.703-1.492-2.346-0.571-3.402c12.647-14.498,93.776-101.538,218.766-101.538  S526.561,334.717,539.207,349.215z M346.09,152.558l22.597,64.115l26.639-22.264l-41.101-86.872l-33.785,37.985l-33.785-37.985  l-41.101,86.872l26.639,22.264l22.597-64.115l25.649,30.799L346.09,152.558z M577.353,148.958  C452.033,4.243,339.434-0.186,322.606,0.005c-1.443,0.016-2.886,0.016-4.329,0C301.448-0.186,188.85,4.243,63.53,148.958  C-64.132,296.377,38.017,368.581,50.233,376.424c0.64,0.411,1.484,0.248,1.925-0.372c8.339-11.714,84.348-114.34,206.43-142.361  c-15.697-15.778-25.402-37.523-25.402-61.537c0-48.19,39.066-87.256,87.255-87.256c48.19,0,87.255,39.066,87.255,87.256  c0,24.015-9.705,45.76-25.402,61.537c122.082,28.021,198.091,130.647,206.43,142.361c0.441,0.62,1.285,0.783,1.925,0.372  C602.866,368.581,705.015,296.377,577.353,148.958z"></path>
<g>
</g>
<g>
</g>
<g>
</g>
<g>
</g>
<g>
</g>
</svg>
